<?xml version="1.0" standalone="no"?>
<!DOCTYPE svg PUBLIC "-//W3C//DTD SVG 1.1//EN" "http://www.w3.org/Graphics/SVG/1.1/DTD/svg11.dtd" >
<svg xmlns="http://www.w3.org/2000/svg" xmlns:xlink="http://www.w3.org/1999/xlink" version="1.1">
<metadata>
Created by FontForge 20170731 at Tue Jul 15 17:27:41 2014
 By Aleksey,,,
Core Sans D 17 Cn Thin Italic
</metadata>
<defs>
<font id="CoreSansD17CnThin-Italic" horiz-adv-x="254" >
  <font-face 
    font-family="Core Sans D 17 Cn Thin"
    font-weight="400"
    font-style="italic"
    font-stretch="normal"
    units-per-em="1000"
    panose-1="2 11 4 6 3 3 2 2 2 4"
    ascent="800"
    descent="-200"
    x-height="500"
    cap-height="700"
    bbox="-320 -238 749 958"
    underline-thickness="24"
    underline-position="-255"
    slope="-11"
    unicode-range="U+0008-FB04"
  />
<missing-glyph horiz-adv-x="500" 
d="M460 0h-360v750h360v-750zM175 65h210v620h-210v-620z" />
    <glyph glyph-name="f_f" unicode="ff" horiz-adv-x="371" 
d="M322 500l21 109q10 55 33.5 79t65.5 24h17l-4 -18h-19q-30 0 -46.5 -18.5t-26.5 -66.5l-21 -109h76l-4 -18h-76l-93 -482h-20l93 482h-153l-93 -482h-20l93 482h-57l4 18h57l21 109q11 55 34 79t66 24q27 0 42 -6l-9 -17q-12 5 -37 5q-32 0 -49.5 -18t-26.5 -67l-21 -109
h153z" />
    <glyph glyph-name="f_i" unicode="fi" horiz-adv-x="338" 
d="M225 0l93 482h-153l-93 -482h-20l93 482h-57l4 18h57l21 109q10 55 33.5 79t65.5 24h17l-4 -18h-19q-30 0 -46.5 -18.5t-26.5 -66.5l-21 -109h173l-97 -500h-20zM348 635l15 77h20l-15 -77h-20z" />
    <glyph glyph-name="f_l" unicode="fl" horiz-adv-x="363" 
d="M240 103l111 574q-34 17 -81 17q-32 0 -51 -17.5t-29 -67.5l-21 -109h76l-4 -18h-76l-93 -482h-20l93 482h-57l4 18h57l21 109q11 57 35.5 80t68.5 23q49 0 81 -17l3 17h20l-118 -609q-9 -47 0.5 -66t39.5 -19h14l-3 -18h-12q-42 0 -56 24t-3 79z" />
    <glyph glyph-name="f_f_i" unicode="ffi" horiz-adv-x="511" 
d="M322 500l21 109q10 55 33.5 79t65.5 24h17l-4 -18h-19q-30 0 -46.5 -18.5t-26.5 -66.5l-21 -109h173l-97 -500h-20l93 482h-153l-93 -482h-20l93 482h-153l-93 -482h-20l93 482h-57l4 18h57l21 109q11 55 34 79t66 24q27 0 42 -6l-9 -17q-12 5 -37 5q-32 0 -49.5 -18
t-26.5 -67l-21 -109h153zM521 635l15 77h20l-15 -77h-20z" />
    <glyph glyph-name="f_f_l" unicode="ffl" horiz-adv-x="536" 
d="M413 103l111 574q-34 17 -81 17q-32 0 -51 -17.5t-29 -67.5l-21 -109h76l-4 -18h-76l-93 -482h-20l93 482h-153l-93 -482h-20l93 482h-57l4 18h57l21 109q11 55 34 79t66 24q27 0 42 -6l-9 -17q-12 5 -37 5q-32 0 -49.5 -18t-26.5 -67l-21 -109h153l21 109q11 57 35.5 80
t68.5 23q49 0 81 -17l3 17h20l-118 -609q-9 -47 0.5 -66t39.5 -19h14l-3 -18h-12q-42 0 -56 24t-3 79z" />
    <glyph glyph-name=".notdef" horiz-adv-x="500" 
d="M460 0h-360v750h360v-750zM175 65h210v620h-210v-620z" />
    <glyph glyph-name=".null" horiz-adv-x="0" 
 />
    <glyph glyph-name=".null" horiz-adv-x="0" 
 />
    <glyph glyph-name=".null" horiz-adv-x="0" 
 />
    <glyph glyph-name="nonmarkingreturn" horiz-adv-x="333" 
 />
    <glyph glyph-name="CR" unicode="&#x9;" horiz-adv-x="116" 
 />
    <glyph glyph-name="CR" unicode="&#xd;" horiz-adv-x="116" 
 />
    <glyph glyph-name="space" unicode=" " horiz-adv-x="182" 
 />
    <glyph glyph-name="exclam" unicode="!" horiz-adv-x="162" 
d="M73 169l104 531h20l-104 -531h-20zM73 65l-12 -65h-20l12 65h20z" />
    <glyph glyph-name="quotedbl" unicode="&#x22;" horiz-adv-x="244" 
d="M141 540l32 160h20l-32 -160h-20zM231 540l32 160h20l-32 -160h-20z" />
    <glyph glyph-name="numbersign" unicode="#" horiz-adv-x="431" 
d="M49 234h73l81 233h-85l4 18h88l75 216h20l-75 -216h140l75 216h20l-75 -216h71l-4 -18h-74l-81 -233h86l-4 -18h-88l-74 -216h-20l74 216h-140l-74 -216h-20l74 216h-71zM223 467l-81 -233h140l81 233h-140z" />
    <glyph glyph-name="dollar" unicode="$" horiz-adv-x="362" 
d="M40 157l3 14l20 1l-2 -12q-14 -70 7.5 -109.5t73.5 -44.5l67 347l-12 5q-60 25 -81 63t-6 116l3 16q14 72 56.5 115.5t109.5 44.5l14 69h20l-14 -70q57 -7 78 -49.5t8 -109.5l-3 -17l-21 -1l3 15q12 62 -5 99.5t-64 44.5l-63 -328l12 -5q60 -25 81 -63t6 -116l-5 -25
q-14 -75 -59 -120.5t-109 -48.5l-13 -69h-20l13 70q-61 4 -86.5 49t-11.5 119zM307 160l3 20q14 69 -5 104.5t-77 60.5l-66 -339q54 3 92.5 43t52.5 111zM132 550l-2 -11q-13 -70 5.5 -106t77.5 -60l63 322q-58 -1 -94 -39t-50 -106z" />
    <glyph glyph-name="percent" unicode="%" horiz-adv-x="487" 
d="M103 0l337 700h20l-337 -700h-20zM287 605l-32 -163q-20 -107 -93 -107t-53 107l32 163q21 107 94 107t52 -107zM161 607l-32 -167q-18 -88 36 -88q26 0 43.5 20.5t26.5 67.5l32 167q18 88 -35 88t-71 -88zM275 95l32 163q20 107 93 107t53 -107l-32 -163
q-21 -107 -94 -107t-52 107zM401 93l32 167q18 88 -36 88q-26 0 -43.5 -20.5t-26.5 -67.5l-32 -167q-18 -88 35 -88t71 88z" />
    <glyph glyph-name="ampersand" unicode="&#x26;" horiz-adv-x="406" 
d="M43 170q11 56 35.5 95.5t83.5 94.5l29 26l-14 35q-35 90 -25 144l4 17q12 62 44 95.5t75 33.5t62 -33.5t7 -95.5l-4 -17q-14 -77 -105 -161l-21 -19l100 -244q40 88 72 229l20 -1q-35 -161 -84 -251l50 -118h-23l-39 95q-65 -107 -160 -107q-68 0 -96.5 44.5t-13.5 122.5
zM156 6q85 0 145 109l-104 255l-23 -22q-58 -54 -79.5 -89.5t-32.5 -90.5l-2 -12q-14 -72 10 -111t86 -39zM176 582l-4 -17q-9 -52 26 -139l10 -24l12 11q87 81 100 152l4 17q10 54 -3.5 82.5t-49.5 28.5q-73 0 -95 -111z" />
    <glyph glyph-name="quotesingle" unicode="'" horiz-adv-x="154" 
d="M141 540l32 160h20l-32 -160h-20z" />
    <glyph glyph-name="parenleft" unicode="(" horiz-adv-x="249" 
d="M204 561l-84 -431q-19 -91 -10 -142t55 -76l-9 -20q-55 30 -66.5 88.5t9.5 145.5l85 439q19 97 50 150.5t98 83.5l2 -20q-56 -26 -84 -74.5t-46 -143.5z" />
    <glyph glyph-name="parenright" unicode=")" horiz-adv-x="249" 
d="M119 130l84 431q19 91 9.5 142t-55.5 76l10 20q55 -30 66 -88.5t-10 -145.5l-85 -439q-19 -97 -50 -150.5t-97 -83.5l-3 20q56 26 84 74.5t47 143.5z" />
    <glyph glyph-name="asterisk" unicode="*" horiz-adv-x="360" 
d="M200 165v143l-124 -71l-10 17l124 72l-124 72l10 17l124 -72v144h20v-144l124 72l10 -17l-125 -72l125 -72l-10 -17l-124 71v-143h-20z" />
    <glyph glyph-name="plus" unicode="+" horiz-adv-x="384" 
d="M71 317v18h141v152h20v-152h141v-18h-141v-152h-20v152h-141z" />
    <glyph glyph-name="comma" unicode="," horiz-adv-x="174" 
d="M79 65l-15 -78q-10 -56 -55 -70l5 23q24 10 30 47l15 78h20z" />
    <glyph glyph-name="hyphen" unicode="-" horiz-adv-x="243" 
d="M72 317l4 18h161l-4 -18h-161z" />
    <glyph glyph-name="period" unicode="." horiz-adv-x="174" 
d="M79 65l-12 -65h-20l12 65h20z" />
    <glyph glyph-name="slash" unicode="/" horiz-adv-x="244" 
d="M366 783l-395 -876h-19l394 876h20z" />
    <glyph glyph-name="zero" unicode="0" horiz-adv-x="348" 
d="M141 -12q-63 0 -86.5 48t-5.5 139l68 350q36 187 165 187q63 0 86.5 -48t6.5 -139l-68 -350q-18 -91 -60.5 -139t-105.5 -48zM145 6q110 0 142 174l67 340q34 174 -76 174q-108 0 -142 -174l-67 -340q-32 -174 76 -174z" />
    <glyph glyph-name="one" unicode="1" horiz-adv-x="348" 
d="M271 0h-217l3 18h99l129 663l-108 -47l3 19l110 47h19l-133 -682h98z" />
    <glyph glyph-name="two" unicode="2" horiz-adv-x="348" 
d="M282 712q125 0 91 -176l-6 -27q-9 -49 -26 -85.5t-54 -86.5l-242 -319h227l-3 -18h-250l3 17l247 327q63 83 78 165l6 27q31 158 -75 158q-104 0 -135 -158l-5 -25l-20 1l5 24q34 176 159 176z" />
    <glyph glyph-name="three" unicode="3" horiz-adv-x="348" 
d="M281 164l16 79q31 158 -74 158q-28 0 -52 -17l-11 12l203 286h-199l4 18h220l-4 -17l-194 -274q17 10 39 10q122 0 88 -176l-16 -79q-34 -176 -160 -176t-92 176l5 24l20 1l-5 -25q-31 -158 76 -158q105 0 136 158z" />
    <glyph glyph-name="four" unicode="4" horiz-adv-x="348" 
d="M321 193l-3 -18h-55l-34 -175h-20l34 175h-204l3 17l303 508h20l-99 -507h55zM63 193h183l89 457z" />
    <glyph glyph-name="five" unicode="5" horiz-adv-x="348" 
d="M191 682l-57 -293q41 49 99 49q121 0 88 -173l-20 -101q-34 -176 -160 -176t-92 176l5 24l20 1l-5 -25q-31 -158 76 -158q105 0 136 158l20 101q30 155 -72 155q-58 0 -101 -63h-20l67 343h211l-4 -18h-191z" />
    <glyph glyph-name="six" unicode="6" horiz-adv-x="348" 
d="M141 -12q-63 0 -86.5 48t-5.5 139l7 38q11 58 35 105l210 382h20l-180 -328q31 28 80 28q63 0 86.5 -48t6.5 -139l-7 -38q-18 -91 -60.5 -139t-105.5 -48zM145 6q110 0 142 174l6 28q34 174 -75 174t-143 -174l-6 -28q-32 -174 76 -174z" />
    <glyph glyph-name="seven" unicode="7" horiz-adv-x="348" 
d="M150 682l4 18h248l-4 -17l-309 -683h-21l309 682h-227z" />
    <glyph glyph-name="eight" unicode="8" horiz-adv-x="348" 
d="M282 712q56 0 78 -41t7 -117l-4 -21q-24 -121 -101 -149q83 -28 55 -178l-6 -31q-37 -187 -170 -187t-96 187l6 31q28 150 123 178q-66 29 -43 149l4 21q15 76 53 117t94 41zM145 6q114 0 146 174l5 21q34 174 -80 174q-112 0 -146 -174l-5 -21q-32 -174 80 -174z
M220 393q96 0 124 145l2 11q28 145 -68 145t-124 -145l-2 -11q-28 -145 68 -145z" />
    <glyph glyph-name="nine" unicode="9" horiz-adv-x="348" 
d="M282 712q63 0 86.5 -48t6.5 -139l-8 -38q-11 -58 -35 -105l-209 -382h-20l179 328q-31 -28 -80 -28q-63 0 -86.5 48t-6.5 139l8 38q36 187 165 187zM278 694q-108 0 -142 -174l-6 -28q-34 -174 75 -174t143 174l6 28q34 174 -76 174z" />
    <glyph glyph-name="colon" unicode=":" horiz-adv-x="174" 
d="M79 65l-12 -65h-20l12 65h20zM173 549l-12 -65h-20l12 65h20z" />
    <glyph glyph-name="semicolon" unicode=";" horiz-adv-x="174" 
d="M64 -13l15 78h-20l-15 -78q-6 -37 -30 -47l-5 -23q45 14 55 70zM173 549l-12 -65h-20l12 65h20z" />
    <glyph glyph-name="less" unicode="&#x3c;" horiz-adv-x="384" 
d="M363 162l-282 156v16l282 156v-21l-257 -143l257 -143v-21z" />
    <glyph glyph-name="equal" unicode="=" horiz-adv-x="384" 
d="M71 394v18h302v-18h-302zM71 240v18h302v-18h-302z" />
    <glyph glyph-name="greater" unicode="&#x3e;" horiz-adv-x="384" 
d="M363 318l-282 -156v21l257 143l-257 143v21l282 -156v-16z" />
    <glyph glyph-name="question" unicode="?" horiz-adv-x="329" 
d="M148 65l-12 -65h-20l12 65h20zM264 712q118 0 88 -160l-8 -39q-8 -42 -29 -76.5t-68 -81.5q-33 -33 -46 -59t-24 -83l-6 -32h-20l6 32q13 64 25.5 89.5t51.5 64.5q42 42 62.5 74.5t27.5 71.5l8 39q14 72 -5.5 107t-66.5 35q-98 0 -126 -142l-8 -40l-20 1l8 39
q15 79 53 119.5t97 40.5z" />
    <glyph glyph-name="at" unicode="@" horiz-adv-x="498" 
d="M382 471q65 0 84 -50l9 47q23 116 -7 171t-115 55q-84 0 -135.5 -55t-74.5 -171l-80 -413q-22 -116 8 -171t114 -55q55 0 97 27l5 -17q-42 -28 -105 -28q-187 0 -139 243l81 415q46 243 233 243q186 0 139 -241l-61 -314q-29 -149 -140 -149q-112 0 -83 149l32 165
q16 82 54.5 115.5t83.5 33.5zM299 26q91 0 116 132l45 231q-20 64 -81 64q-37 0 -69 -29t-46 -103l-32 -163q-25 -132 67 -132z" />
    <glyph glyph-name="A" unicode="A" horiz-adv-x="358" 
d="M298 0l-7 197h-209l-82 -197h-20l295 700h20l23 -700h-20zM277 660l-188 -445h201z" />
    <glyph glyph-name="B" unicode="B" horiz-adv-x="379" 
d="M153 0h-120l136 700h104q82 0 113 -43t14 -131q-27 -134 -103 -164q79 -31 51 -174q-20 -100 -68.5 -144t-126.5 -44zM243 352h-122l-65 -334h97q72 0 114.5 40t60.5 129q32 165 -85 165zM124 370h121q103 0 135 156q31 156 -114 156h-81z" />
    <glyph glyph-name="C" unicode="C" horiz-adv-x="386" 
d="M51 188l63 324q20 100 69.5 150t120.5 50t101.5 -50t10.5 -150l-2 -9l-20 -1l1 6q19 95 -7.5 140.5t-87.5 45.5q-130 0 -167 -186l-61 -316q-19 -95 7.5 -140.5t87.5 -45.5q130 0 167 186l1 6l20 -1l-2 -9q-20 -100 -69.5 -150t-120.5 -50t-101.5 50t-10.5 150z" />
    <glyph glyph-name="D" unicode="D" horiz-adv-x="396" 
d="M33 0l136 700h137q70 0 100.5 -50t11.5 -150l-59 -301q-19 -100 -68.5 -149.5t-120.5 -49.5h-137zM56 18h117q131 0 167 185l57 293q19 95 -7.5 140.5t-87.5 45.5h-117z" />
    <glyph glyph-name="E" unicode="E" horiz-adv-x="345" 
d="M33 0l136 700h250l-4 -18h-230l-60 -311h198l-4 -18h-198l-65 -335h230l-3 -18h-250z" />
    <glyph glyph-name="F" unicode="F" horiz-adv-x="335" 
d="M33 0l136 700h250l-4 -18h-230l-62 -319h206l-3 -18h-206l-67 -345h-20z" />
    <glyph glyph-name="G" unicode="G" horiz-adv-x="389" 
d="M240 313l4 20h137l-28 -145q-20 -100 -69.5 -150t-120.5 -50t-101.5 50t-10.5 150l63 324q20 100 69.5 150t120.5 50t101.5 -50t10.5 -150l-2 -9l-20 -1l1 6q19 95 -7.5 140.5t-87.5 45.5q-130 0 -167 -186l-61 -316q-19 -95 7.5 -140.5t87.5 -45.5q130 0 167 186l23 121
h-117z" />
    <glyph glyph-name="H" unicode="H" horiz-adv-x="410" 
d="M297 0l68 352h-244l-68 -352h-20l136 700h20l-65 -330h244l65 330h20l-136 -700h-20z" />
    <glyph glyph-name="I" unicode="I" horiz-adv-x="146" 
d="M189 700l-136 -700h-20l136 700h20z" />
    <glyph glyph-name="J" unicode="J" horiz-adv-x="321" 
d="M109 -12q-115 0 -97 147l20 1q-16 -130 81 -130q53 0 85.5 38t48.5 120l105 536h20l-105 -537q-34 -175 -158 -175z" />
    <glyph glyph-name="K" unicode="K" horiz-adv-x="376" 
d="M407 700h20l-8 -41q-18 -93 -50 -147t-97 -110l64 -402h-21l-61 388l-150 -121l-51 -267h-20l136 700h20l-79 -406l129 104q75 61 108 113.5t51 146.5z" />
    <glyph glyph-name="L" unicode="L" horiz-adv-x="322" 
d="M33 0l136 700h20l-133 -682h225l-3 -18h-245z" />
    <glyph glyph-name="M" unicode="M" horiz-adv-x="506" 
d="M268 184h-20l-71 456l-124 -640h-20l136 700h20l74 -492l266 492h20l-136 -700h-20l124 640z" />
    <glyph glyph-name="N" unicode="N" horiz-adv-x="434" 
d="M321 0l-142 653l-126 -653h-20l136 700h20l141 -653l127 653h20l-136 -700h-20z" />
    <glyph glyph-name="O" unicode="O" horiz-adv-x="392" 
d="M51 188l63 324q20 100 69.5 150t120.5 50t101.5 -50t10.5 -150l-63 -324q-20 -100 -69.5 -150t-120.5 -50t-101.5 50t-10.5 150zM334 192l61 316q19 95 -7.5 140.5t-87.5 45.5q-130 0 -167 -186l-61 -316q-19 -95 7.5 -140.5t87.5 -45.5q130 0 167 186z" />
    <glyph glyph-name="P" unicode="P" horiz-adv-x="372" 
d="M116 326h84q155 0 189 178q18 91 -11.5 134.5t-108.5 43.5h-84zM199 308h-87l-59 -308h-20l136 700h107q172 0 133 -196q-37 -196 -210 -196z" />
    <glyph glyph-name="Q" unicode="Q" horiz-adv-x="392" 
d="M331 -29l-57 58q-45 -41 -111 -41q-71 0 -101.5 49.5t-10.5 149.5l63 325q20 100 69.5 150t120.5 50t101.5 -50t10.5 -150l-63 -325q-17 -92 -64 -143l57 -59zM334 191l61 317q19 95 -7.5 140.5t-87.5 45.5q-130 0 -167 -186l-61 -317q-36 -185 95 -185q56 0 96 36
l-63 65l16 14l61 -64q40 48 57 134z" />
    <glyph glyph-name="R" unicode="R" horiz-adv-x="381" 
d="M201 318h-87l-61 -318h-20l136 700h107q84 0 118.5 -48t15.5 -143q-27 -145 -137 -181l48 -328h-21l-47 323q-27 -5 -52 -5zM185 682l-67 -346h84q155 0 188 173q34 173 -121 173h-84z" />
    <glyph glyph-name="S" unicode="S" horiz-adv-x="362" 
d="M40 157l3 14l20 1l-2 -12q-15 -73 10 -113.5t83 -40.5q57 0 97.5 40t55.5 114l3 20q14 70 -4.5 106t-78.5 60l-30 12q-60 25 -81 63t-6 116l3 16q14 73 57 116.5t110 43.5t93 -43.5t12 -116.5l-3 -17l-21 -1l3 15q14 68 -8 106.5t-79 38.5t-94 -38.5t-51 -106.5l-2 -11
q-13 -70 5.5 -106t78.5 -60l30 -12q60 -25 81 -63t6 -116l-5 -25q-15 -77 -62 -123t-114 -46t-96 46t-14 123z" />
    <glyph glyph-name="T" unicode="T" horiz-adv-x="322" 
d="M116 682l4 18h294l-4 -18h-137l-132 -682h-20l132 682h-137z" />
    <glyph glyph-name="U" unicode="U" horiz-adv-x="404" 
d="M336 192l99 508h20l-100 -512q-20 -100 -69 -150t-117 -50t-98 50t-10 150l100 512h20l-99 -508q-19 -95 6.5 -140.5t84.5 -45.5t101.5 45.5t61.5 140.5z" />
    <glyph glyph-name="V" unicode="V" horiz-adv-x="350" 
d="M136 700l19 -646l271 646h21l-292 -700h-20l-20 700h21z" />
    <glyph glyph-name="W" unicode="W" horiz-adv-x="614" 
d="M403 700h20l2 -654l258 654h21l-277 -700h-20l-3 658l-257 -658h-20l-5 700h21l2 -654z" />
    <glyph glyph-name="X" unicode="X" horiz-adv-x="352" 
d="M430 700l-201 -338l75 -362h-21l-71 340l-203 -340h-21l214 362l-68 338h21l65 -316l189 316h21z" />
    <glyph glyph-name="Y" unicode="Y" horiz-adv-x="326" 
d="M143 0h-20l64 330l-68 370h20l63 -343l197 343h20l-212 -370z" />
    <glyph glyph-name="Z" unicode="Z" horiz-adv-x="326" 
d="M9 17l361 665h-224l4 18h246l-4 -17l-361 -665h232l-3 -18h-254z" />
    <glyph glyph-name="bracketleft" unicode="[" horiz-adv-x="220" 
d="M23 -93l171 876h112l-4 -18h-92l-163 -840h92l-4 -18h-112z" />
    <glyph glyph-name="backslash" unicode="\" horiz-adv-x="245" 
d="M175 -93l-53 876h21l53 -876h-21z" />
    <glyph glyph-name="bracketright" unicode="]" horiz-adv-x="220" 
d="M270 783l-171 -876h-112l4 18h92l163 840h-92l4 18h112z" />
    <glyph glyph-name="asciicircum" unicode="^" horiz-adv-x="306" 
d="M288 488l-105 186l-105 -186h-21l120 212h12l120 -212h-21z" />
    <glyph glyph-name="underscore" unicode="_" horiz-adv-x="350" 
d="M-58 -146l4 18h349l-4 -18h-349z" />
    <glyph glyph-name="grave" unicode="`" horiz-adv-x="230" 
d="M238 569l-44 161h20l44 -161h-20z" />
    <glyph glyph-name="a" unicode="a" horiz-adv-x="336" 
d="M120 5q77 0 132 87l32 165h-93q-53 0 -91 -34t-49 -92l-4 -18q-20 -108 73 -108zM120 400l-20 1q45 111 140 111q52 0 76.5 -35t10.5 -105l-72 -372h-20l11 59q-54 -71 -132 -71q-50 0 -74.5 31t-12.5 94l4 18q13 68 58 106t111 38h88l19 96q24 123 -70 123
q-77 0 -117 -94z" />
    <glyph glyph-name="b" unicode="b" horiz-adv-x="332" 
d="M122 403l-60 -306q4 -46 26.5 -68.5t57.5 -22.5q48 0 79.5 37.5t43.5 98.5l42 216q12 61 -5 98.5t-65 37.5q-78 0 -119 -91zM54 53l-10 -53h-20l138 712h20l-52 -265q43 65 114 65q56 0 78.5 -41.5t9.5 -109.5l-43 -222q-14 -68 -52.5 -109.5t-94.5 -41.5q-71 0 -88 65z
" />
    <glyph glyph-name="c" unicode="c" horiz-adv-x="324" 
d="M37 139l43 222q13 70 55 110.5t98 40.5t82 -40.5t13 -110.5l-1 -6l-21 -1l1 4q12 64 -9.5 100t-67.5 36t-82.5 -36t-48.5 -100l-42 -216q-12 -64 10 -100t68 -36t82 36t48 100l1 4l20 -1l-1 -6q-14 -70 -56 -110.5t-98 -40.5t-82 40.5t-12 110.5z" />
    <glyph glyph-name="d" unicode="d" horiz-adv-x="332" 
d="M246 97l60 306q-4 46 -26 68.5t-57 22.5q-48 0 -80 -37.5t-44 -98.5l-42 -216q-12 -61 5.5 -98.5t65.5 -37.5q77 0 118 91zM228 0l10 53q-43 -65 -114 -65q-56 0 -78.5 41.5t-8.5 109.5l43 222q13 68 51.5 109.5t94.5 41.5q71 0 88 -65l52 265h20l-138 -712h-20z" />
    <glyph glyph-name="e" unicode="e" horiz-adv-x="328" 
d="M259 129l19 -2q-18 -67 -57.5 -103t-90.5 -36q-56 0 -82 39.5t-11 111.5l43 222q13 70 55 110.5t98 40.5t82 -40.5t13 -110.5l-23 -117h-228l-20 -102q-13 -66 9 -101t68 -35q40 0 74 31t51 92zM288 262l19 96q12 64 -9.5 100t-67.5 36t-82.5 -36t-48.5 -100l-19 -96h208
z" />
    <glyph glyph-name="f" unicode="f" horiz-adv-x="200" 
d="M149 500l21 109q10 55 33.5 79t65.5 24h19l-4 -18h-21q-30 0 -46.5 -18.5t-26.5 -66.5l-21 -109h78l-4 -18h-78l-93 -482h-20l93 482h-57l4 18h57z" />
    <glyph glyph-name="g" unicode="g" horiz-adv-x="332" 
d="M211 -84l27 137q-43 -65 -114 -65q-56 0 -78.5 41.5t-8.5 109.5l43 222q13 68 51.5 109.5t94.5 41.5q71 0 88 -65l11 53h20l-114 -585q-28 -147 -141 -147q-97 0 -89 115l20 2q-4 -99 73 -99q92 0 117 130zM246 97l60 306q-4 46 -26 68.5t-57 22.5q-48 0 -80 -37.5
t-44 -98.5l-42 -216q-12 -61 5.5 -98.5t65.5 -37.5q77 0 118 91z" />
    <glyph glyph-name="h" unicode="h" horiz-adv-x="343" 
d="M242 0l70 364q13 63 -6 96.5t-65 33.5q-76 0 -122 -106l-75 -388h-20l138 712h20l-53 -274q20 35 51 54.5t65 19.5q54 0 77.5 -38t10.5 -107l-71 -367h-20z" />
    <glyph glyph-name="i" unicode="i" horiz-adv-x="146" 
d="M33 0l97 500h20l-97 -500h-20zM156 635l15 77h20l-15 -77h-20z" />
    <glyph glyph-name="j" unicode="j" horiz-adv-x="136" 
d="M146 635l15 77h20l-15 -77h-20zM1 -109l119 609h20l-119 -609q-10 -55 -33.5 -79t-64.5 -24h-11l4 18h13q30 0 46.5 18.5t25.5 66.5z" />
    <glyph glyph-name="k" unicode="k" horiz-adv-x="316" 
d="M199 265l-123 -100l-32 -165h-20l138 712h20l-101 -521l102 83q60 48 90 97.5t43 116.5l3 12h20l-3 -12q-24 -126 -119 -208l57 -280h-21z" />
    <glyph glyph-name="l" unicode="l" horiz-adv-x="172" 
d="M49 103l118 609h20l-118 -609q-9 -47 0.5 -66t39.5 -19h14l-3 -18h-12q-42 0 -56 24t-3 79z" />
    <glyph glyph-name="m" unicode="m" horiz-adv-x="561" 
d="M242 0l70 364q13 63 -6 96.5t-65 33.5q-76 0 -122 -106l-75 -388h-20l97 500h20l-12 -62q20 35 51 54.5t65 19.5q39 0 63 -20.5t28 -58.5q52 79 127 79q54 0 77.5 -38t10.5 -107l-71 -367h-20l70 364q13 63 -6 96.5t-65 33.5q-71 0 -122 -93q-2 -22 -4 -34l-71 -367h-20z
" />
    <glyph glyph-name="n" unicode="n" horiz-adv-x="343" 
d="M242 0l70 364q13 63 -6 96.5t-65 33.5q-76 0 -122 -106l-75 -388h-20l97 500h20l-12 -62q20 35 51 54.5t65 19.5q54 0 77.5 -38t10.5 -107l-71 -367h-20z" />
    <glyph glyph-name="o" unicode="o" horiz-adv-x="328" 
d="M265 142l42 216q12 64 -9.5 100t-67.5 36t-82.5 -36t-48.5 -100l-42 -216q-12 -64 10 -100t68 -36t82 36t48 100zM328 361l-43 -222q-14 -70 -56 -110.5t-98 -40.5t-82 40.5t-12 110.5l43 222q13 70 55 110.5t98 40.5t82 -40.5t13 -110.5z" />
    <glyph glyph-name="p" unicode="p" horiz-adv-x="332" 
d="M122 403l-60 -306q4 -46 26.5 -68.5t57.5 -22.5q48 0 79.5 37.5t43.5 98.5l42 216q12 61 -5 98.5t-65 37.5q-78 0 -119 -91zM141 500l-11 -53q43 65 114 65q56 0 78.5 -41.5t9.5 -109.5l-43 -222q-14 -68 -52.5 -109.5t-94.5 -41.5q-71 0 -88 65l-53 -271h-20l140 718h20
z" />
    <glyph glyph-name="q" unicode="q" horiz-adv-x="332" 
d="M246 97l60 306q-4 46 -26 68.5t-57 22.5q-48 0 -80 -37.5t-44 -98.5l-42 -216q-12 -61 5.5 -98.5t65.5 -37.5q77 0 118 91zM314 447l11 53h20l-140 -718h-20l53 271q-43 -65 -114 -65q-56 0 -78.5 41.5t-8.5 109.5l43 222q13 68 51.5 109.5t94.5 41.5q71 0 88 -65z" />
    <glyph glyph-name="r" unicode="r" horiz-adv-x="225" 
d="M120 394l-76 -394h-20l97 500h20l-14 -69q49 76 121 76q20 0 32 -6l-4 -19q-12 7 -31 7q-71 0 -125 -95z" />
    <glyph glyph-name="s" unicode="s" horiz-adv-x="298" 
d="M60 125l-4 -20q-9 -46 9.5 -72.5t59.5 -26.5t69.5 26.5t37.5 72.5l3 16q11 57 -1 83t-55 41l-29 10q-46 16 -60 47t-2 94l1 4q10 52 45 82t82 30t70 -30t13 -82l-2 -13l-20 -1l2 14q9 44 -9.5 69t-56.5 25t-66.5 -25t-37.5 -69l-1 -6q-11 -57 1 -82.5t55 -40.5l29 -10
q46 -16 60 -47.5t2 -94.5l-3 -14q-10 -52 -44.5 -84.5t-87.5 -32.5q-52 0 -73 32.5t-11 84.5l4 19z" />
    <glyph glyph-name="t" unicode="t" horiz-adv-x="213" 
d="M65 103l73 379h-57l4 18h57l27 142h20l-27 -142h89l-4 -18h-89l-73 -379q-9 -47 0.5 -66t39.5 -19h34l-3 -18h-32q-42 0 -56 24t-3 79z" />
    <glyph glyph-name="u" unicode="u" horiz-adv-x="343" 
d="M138 500l-71 -364q-13 -63 6.5 -96.5t65.5 -33.5q75 0 121 106l76 388h20l-97 -500h-20l12 62q-20 -35 -51.5 -54.5t-65.5 -19.5q-54 0 -77.5 38t-10.5 107l72 367h20z" />
    <glyph glyph-name="v" unicode="v" horiz-adv-x="302" 
d="M131 0h-20l-29 500h21l26 -454l204 454h21z" />
    <glyph glyph-name="w" unicode="w" horiz-adv-x="542" 
d="M330 460l-201 -460h-20l-26 500h21l23 -454l201 454h20l23 -454l201 454h21l-220 -500h-20z" />
    <glyph glyph-name="x" unicode="x" horiz-adv-x="286" 
d="M150 259l-62 241h21l58 -222l144 222h21l-157 -241l69 -259h-21l-64 241l-156 -241h-21z" />
    <glyph glyph-name="y" unicode="y" horiz-adv-x="302" 
d="M46 -143l64 143l-28 500h21l25 -458l205 458h21l-287 -643q-20 -43 -34 -55.5t-42 -12.5h-7l4 18h9q15 0 24.5 9.5t24.5 40.5z" />
    <glyph glyph-name="z" unicode="z" horiz-adv-x="300" 
d="M327 500l-4 -17l-297 -465h215l-3 -18h-236l3 17l297 465h-198l4 18h219z" />
    <glyph glyph-name="braceleft" unicode="{" horiz-adv-x="219" 
d="M71 336l3 18q54 0 66 64l52 270q9 47 38 71t66 24h9l-4 -18h-9q-27 0 -49.5 -19.5t-30.5 -60.5l-52 -264q-11 -62 -54 -76q37 -13 25 -76l-52 -264q-8 -41 7 -60.5t43 -19.5h9l-4 -18h-9q-37 0 -56 24t-10 71l52 270q7 31 -4 47.5t-36 16.5z" />
    <glyph glyph-name="bar" unicode="|" horiz-adv-x="200" 
d="M120 -93v876h20v-876h-20z" />
    <glyph glyph-name="braceright" unicode="}" horiz-adv-x="219" 
d="M221 354l-3 -18q-52 0 -66 -64l-52 -270q-9 -47 -38 -71t-66 -24h-9l4 18h9q27 0 49.5 19.5t30.5 60.5l52 264q12 63 55 76q-38 13 -26 76l52 264q8 41 -7 60.5t-43 19.5h-9l4 18h9q37 0 56 -24t10 -71l-52 -270q-12 -64 40 -64z" />
    <glyph glyph-name="asciitilde" unicode="~" horiz-adv-x="384" 
d="M305 292q26 0 42.5 21t18.5 58l20 -1q-1 -45 -23.5 -70.5t-57.5 -25.5q-25 0 -48.5 13.5t-39.5 29.5t-37 29.5t-41 13.5q-26 0 -42.5 -21t-18.5 -58l-20 1q1 45 23.5 70.5t57.5 25.5q25 0 48.5 -13.5t39.5 -29.5t37 -29.5t41 -13.5z" />
    <glyph glyph-name="uni00A0" unicode="&#xa0;" horiz-adv-x="182" 
 />
    <glyph glyph-name="exclamdown" unicode="&#xa1;" horiz-adv-x="162" 
d="M125 331l-103 -531h-20l103 531h20zM125 435l13 65h20l-13 -65h-20z" />
    <glyph glyph-name="cent" unicode="&#xa2;" horiz-adv-x="324" 
d="M104 -89l15 78q-50 5 -72.5 44.5t-9.5 105.5l43 222q13 66 51 105.5t90 44.5l15 78h20l-15 -78q50 -3 74 -40.5t14 -101.5l-20 -1q9 57 -11 90t-60 36l-95 -488q41 3 74 36t46 90l20 -1q-15 -64 -53.5 -102t-90.5 -41l-15 -77h-20zM57 142q-12 -60 7 -95t59 -40l94 486
q-42 -5 -74 -40t-44 -95z" />
    <glyph glyph-name="sterling" unicode="&#xa3;" horiz-adv-x="386" 
d="M75 335h46l41 214q16 80 56 121.5t101 41.5q60 0 84.5 -41.5t8.5 -121.5l-9 -45l-20 -1l9 45q28 146 -77 146t-133 -146l-41 -213h146l-4 -18h-146l-29 -149q-20 -105 -61 -150h276l-3 -18h-302l2 13q49 51 65 138l32 166h-46z" />
    <glyph glyph-name="currency" unicode="&#xa4;" horiz-adv-x="516" 
d="M288 499q62 0 112 -40l78 79l15 -14l-78 -78q48 -50 48 -120t-48 -120l78 -78l-15 -14l-78 78q-48 -39 -112 -39q-65 0 -113 39l-77 -78l-15 14l78 78q-48 48 -48 120t48 120l-78 78l15 14l77 -79q50 40 113 40zM288 171q63 0 109 44t46 111t-46 111t-109 44t-109 -44
t-46 -111t46 -111t109 -44z" />
    <glyph glyph-name="yen" unicode="&#xa5;" horiz-adv-x="326" 
d="M97 329l4 18h82l-64 353h20l63 -343l197 343h20l-203 -353h83l-4 -18h-89l-13 -67h89l-3 -18h-89l-47 -244h-20l47 244h-89l3 18h89l13 67h-89z" />
    <glyph glyph-name="brokenbar" unicode="&#xa6;" horiz-adv-x="200" 
d="M140 395h-20v388h20v-388zM120 295h20v-388h-20v388z" />
    <glyph glyph-name="section" unicode="&#xa7;" horiz-adv-x="330" 
d="M245 -4l-7 -36q-10 -53 -43 -81.5t-82 -28.5t-70 28t-11 82l2 10l20 1l-2 -11q-18 -92 65 -92t101 92l7 38q10 55 -0.5 80t-49.5 40l-36 14q-54 21 -70.5 50.5t-4.5 90.5l5 30q11 52 33 80t74 50q-34 17 -43.5 47.5t1.5 85.5l7 36q10 54 42.5 82t81.5 28t70.5 -28.5
t11.5 -81.5l-2 -10l-21 -1l3 11q17 92 -66 92t-100 -92l-8 -38q-10 -55 1 -80t49 -40l36 -14q54 -21 71 -50.5t5 -90.5l-6 -30q-10 -52 -32.5 -80.5t-74.5 -50.5q34 -17 43.5 -46.5t-0.5 -85.5zM89 303l-6 -32q-11 -56 4 -80t66 -43l27 -11q55 21 76.5 45.5t32.5 76.5l6 32
q11 56 -4 80t-66 43l-27 10q-55 -21 -76.5 -45.5t-32.5 -75.5z" />
    <glyph glyph-name="dieresis" unicode="&#xa8;" horiz-adv-x="230" 
d="M161 696l-18 -93h-20l18 93h20zM299 696l-18 -93h-20l18 93h20z" />
    <glyph glyph-name="copyright" unicode="&#xa9;" horiz-adv-x="494" 
d="M463 268v164q0 262 -186 262t-186 -262v-164q0 -262 186 -262t186 262zM484 433v-166q0 -279 -207 -279t-207 279v166q0 279 207 279t207 -279zM192 252v196q0 58 23 88.5t64 30.5t64 -30.5t23 -88.5v-23l-20 -1v22q0 103 -67 103t-67 -103v-192q0 -103 67 -103t67 103
v22l20 -1v-23q0 -58 -23 -88.5t-64 -30.5t-64 30.5t-23 88.5z" />
    <glyph glyph-name="ordfeminine" unicode="&#xaa;" horiz-adv-x="264" 
d="M156 342q25 0 50.5 18t41.5 48l20 104h-55q-88 0 -103 -79l-4 -18q-7 -35 6.5 -54t43.5 -19zM239 708q41 0 59 -24.5t9 -73.5l-54 -277h-20l8 42q-35 -51 -89 -51q-39 0 -56.5 24.5t-9.5 66.5l4 18q9 46 43 71.5t82 25.5h57l15 79q16 81 -51 81t-83 -81l-3 -14l-19 2
l2 13q19 98 106 98z" />
    <glyph glyph-name="guillemotleft" unicode="&#xab;" horiz-adv-x="357" 
d="M241 424l-161 -112l117 -112l-4 -20l-128 125l3 14l177 125zM373 424l-161 -112l117 -112l-4 -20l-128 125l3 14l177 125z" />
    <glyph glyph-name="logicalnot" unicode="&#xac;" horiz-adv-x="384" 
d="M66 317v18h302v-150h-20v132h-282z" />
    <glyph glyph-name="uni00AD" unicode="&#xad;" horiz-adv-x="243" 
d="M72 317l4 18h161l-4 -18h-161z" />
    <glyph glyph-name="registered" unicode="&#xae;" horiz-adv-x="494" 
d="M484 433v-166q0 -279 -207 -279t-207 279v166q0 279 207 279t207 -279zM463 268v164q0 262 -186 262t-186 -262v-164q0 -262 186 -262t186 262zM255 329h-35v-188h-20v418h55q58 0 87.5 -26.5t29.5 -88.5q0 -82 -54 -105l67 -197h-21l-64 191q-19 -4 -45 -4zM220 347h34
q51 0 74.5 21t23.5 76t-23.5 76t-74.5 21h-34v-194z" />
    <glyph glyph-name="macron" unicode="&#xaf;" horiz-adv-x="230" 
d="M127 639l3 18h164l-3 -18h-164z" />
    <glyph glyph-name="degree" unicode="&#xb0;" horiz-adv-x="268" 
d="M260 610q0 -41 -26.5 -69.5t-69.5 -28.5t-69.5 28.5t-26.5 69.5t26.5 69.5t69.5 28.5t69.5 -28.5t26.5 -69.5zM240 610q0 35 -21.5 57.5t-54.5 22.5t-54.5 -22.5t-21.5 -57.5t21.5 -57.5t54.5 -22.5t54.5 22.5t21.5 57.5z" />
    <glyph glyph-name="plusminus" unicode="&#xb1;" horiz-adv-x="384" 
d="M71 278v18h141v152h20v-152h141v-18h-141v-152h-20v152h-141zM71 0v18h302v-18h-302z" />
    <glyph glyph-name="twosuperior" unicode="&#xb2;" 
d="M282 572l5 25q10 50 -8 71.5t-50 21.5q-76 0 -94 -93l-8 -40l-20 1l8 40q10 56 43.5 83t73.5 27t62.5 -27t12.5 -83l-5 -26q-13 -62 -54 -112l-169 -205h167l-3 -18h-192l2 14l178 217q39 48 51 104z" />
    <glyph glyph-name="threesuperior" unicode="&#xb3;" 
d="M141 229q-95 0 -68 140l3 13l20 1l-2 -12q-14 -68 0 -96t51 -28t61 28t38 96l5 26q19 96 -46 96q-22 0 -45 -15l-12 10l143 194h-146l4 18h169l-3 -15l-135 -183q14 8 32 8q39 0 54.5 -28.5t4.5 -81.5l-6 -31q-27 -140 -122 -140z" />
    <glyph glyph-name="acute" unicode="&#xb4;" horiz-adv-x="230" 
d="M258 730l-106 -161h-20l106 161h20z" />
    <glyph glyph-name="mu" unicode="&#xb5;" horiz-adv-x="346" 
d="M141 500l-71 -364q-13 -63 6.5 -96.5t65.5 -33.5q75 0 121 106l76 388h20l-97 -500h-20l12 62q-20 -35 -51.5 -54.5t-65.5 -19.5q-71 0 -84 61l-52 -267h-20l140 718h20z" />
    <glyph glyph-name="paragraph" unicode="&#xb6;" horiz-adv-x="360" 
d="M229 267h-15q-69 0 -104 46t-35 147v47q0 101 35 147t104 46h86v-831h-20v813h-31v-813h-20v398z" />
    <glyph glyph-name="periodcentered" unicode="&#xb7;" horiz-adv-x="174" 
d="M136 359l-12 -65h-20l12 65h20z" />
    <glyph glyph-name="cedilla" unicode="&#xb8;" horiz-adv-x="230" 
d="M-32 -214l15 16q19 -22 52 -22q63 0 74 58l1 4q5 27 -10 47.5t-51 29.5l-5 7l37 74h19l-34 -68q37 -10 53.5 -34.5t10.5 -53.5l-1 -7q-7 -33 -33 -54t-64 -21q-43 0 -64 24z" />
    <glyph glyph-name="onesuperior" unicode="&#xb9;" 
d="M236 237h-166l3 18h73l83 425l-80 -34l4 19l80 35h20l-87 -445h73z" />
    <glyph glyph-name="ordmasculine" unicode="&#xba;" horiz-adv-x="264" 
d="M164 324q-94 0 -69 124l26 136q12 61 42.5 92.5t75.5 31.5t63.5 -31.5t6.5 -92.5l-26 -136q-13 -61 -43.5 -92.5t-75.5 -31.5zM168 342q74 0 95 110l25 128q22 110 -52 110t-96 -110l-25 -128q-21 -110 53 -110z" />
    <glyph glyph-name="guillemotright" unicode="&#xbb;" horiz-adv-x="357" 
d="M337 312l-117 112l4 20l129 -125l-3 -14l-178 -125l4 20zM205 312l-117 112l4 20l129 -125l-3 -14l-178 -125l4 20z" />
    <glyph glyph-name="onequarter" unicode="&#xbc;" horiz-adv-x="617" 
d="M589 113l4 18h-37l64 332h-29l-215 -336l-3 -14h159l-21 -113h20l21 113h37zM536 131h-137l197 307zM544 700l-376 -700h-19l376 700h19zM236 237h-166l3 18h73l83 425l-80 -34l4 19l80 35h20l-87 -445h73z" />
    <glyph glyph-name="onehalf" unicode="&#xbd;" horiz-adv-x="617" 
d="M599 335l4 25q10 50 -7.5 71.5t-49.5 21.5q-76 0 -95 -93l-7 -40l-20 1l8 40q10 56 43.5 83t73.5 27t62.5 -27t12.5 -83l-5 -26q-13 -60 -54 -112l-169 -205h167l-3 -18h-192l2 14l178 217q39 48 51 104zM544 700l-376 -700h-19l376 700h19zM236 237h-166l3 18h73l83 425
l-80 -34l4 19l80 35h20l-87 -445h73z" />
    <glyph glyph-name="threequarters" unicode="&#xbe;" horiz-adv-x="617" 
d="M544 700l-376 -700h-19l376 700h19zM589 113l4 18h-37l64 332h-29l-215 -336l-3 -14h159l-21 -113h20l21 113h37zM536 131h-137l197 307zM141 229q-95 0 -68 140l3 13l20 1l-2 -12q-14 -68 0 -96t51 -28t61 28t38 96l5 26q19 96 -46 96q-22 0 -45 -15l-12 10l143 194
h-146l4 18h169l-3 -15l-135 -183q14 8 32 8q39 0 54.5 -28.5t4.5 -81.5l-6 -31q-27 -140 -122 -140z" />
    <glyph glyph-name="questiondown" unicode="&#xbf;" horiz-adv-x="329" 
d="M217 435l13 65h20l-13 -65h-20zM101 -212q-118 0 -88 160l8 39q8 43 29.5 77t68.5 81q33 33 45.5 59t23.5 83l7 32h20l-7 -32q-12 -63 -25 -88.5t-52 -65.5q-42 -42 -62.5 -74.5t-27.5 -71.5l-8 -39q-14 -72 5.5 -107t66.5 -35q98 0 126 142l8 40l20 -1l-8 -39
q-15 -79 -53 -119.5t-97 -40.5z" />
    <glyph glyph-name="Agrave" unicode="&#xc0;" horiz-adv-x="358" 
d="M298 0l-7 197h-209l-82 -197h-20l295 700h20l23 -700h-20zM277 660l-188 -445h201zM296 763l-44 161h20l44 -161h-20z" />
    <glyph glyph-name="Aacute" unicode="&#xc1;" horiz-adv-x="358" 
d="M298 0l-7 197h-209l-82 -197h-20l295 700h20l23 -700h-20zM277 660l-188 -445h201zM404 924l-106 -161h-20l106 161h20z" />
    <glyph glyph-name="Acircumflex" unicode="&#xc2;" horiz-adv-x="358" 
d="M298 0l-7 197h-209l-82 -197h-20l295 700h20l23 -700h-20zM277 660l-188 -445h201zM319 924h18l61 -161h-20l-54 141l-108 -141h-20z" />
    <glyph glyph-name="Atilde" unicode="&#xc3;" horiz-adv-x="358" 
d="M298 0l-7 197h-209l-82 -197h-20l295 700h20l23 -700h-20zM277 660l-188 -445h201zM321 849q20 -28 39 -28q27 0 44 56l20 -2q-21 -72 -68 -72q-27 0 -51 32q-22 28 -40 28q-27 0 -44 -56l-19 2q20 72 68 72q15 0 25.5 -6.5t25.5 -25.5z" />
    <glyph glyph-name="Adieresis" unicode="&#xc4;" horiz-adv-x="358" 
d="M298 0l-7 197h-209l-82 -197h-20l295 700h20l23 -700h-20zM277 660l-188 -445h201zM262 890l-18 -93h-20l18 93h20zM400 890l-18 -93h-20l18 93h20z" />
    <glyph glyph-name="Aring" unicode="&#xc5;" horiz-adv-x="358" 
d="M298 0l-7 197h-209l-82 -197h-20l295 700h20l23 -700h-20zM277 660l-188 -445h201zM253 843q-5 -27 9.5 -44t38.5 -17t44.5 16.5t25.5 44.5q6 27 -8.5 44t-38.5 17t-44.5 -16.5t-26.5 -44.5zM233 843q7 35 34.5 57t60.5 22t51.5 -22t11.5 -57t-34 -57t-60 -22t-52 22
t-12 57z" />
    <glyph glyph-name="AE" unicode="&#xc6;" horiz-adv-x="537" 
d="M230 0l38 197h-173l-108 -197h-22l386 700h260l-4 -18h-225l-61 -312h193l-3 -18h-193l-65 -334h225l-3 -18h-245zM105 215h166l91 465z" />
    <glyph glyph-name="Ccedilla" unicode="&#xc7;" horiz-adv-x="386" 
d="M51 188l63 324q20 100 69.5 150t120.5 50t101.5 -50t10.5 -150l-2 -9l-20 -1l1 6q19 95 -7.5 140.5t-87.5 45.5q-130 0 -167 -186l-61 -316q-19 -95 7.5 -140.5t87.5 -45.5q130 0 167 186l1 6l20 -1l-2 -9q-18 -93 -63 -143t-109 -56l-27 -57q37 -10 53.5 -34.5
t10.5 -53.5l-1 -7q-7 -33 -33 -54t-64 -21q-43 0 -65 24l16 16q19 -22 52 -22q63 0 74 58l1 4q5 27 -10 47.5t-51 29.5l-5 7l30 62q-70 0 -100.5 50t-10.5 150z" />
    <glyph glyph-name="Egrave" unicode="&#xc8;" horiz-adv-x="345" 
d="M33 0l136 700h250l-4 -18h-230l-60 -311h198l-4 -18h-198l-65 -335h230l-3 -18h-250zM315 763l-44 161h20l44 -161h-20z" />
    <glyph glyph-name="Eacute" unicode="&#xc9;" horiz-adv-x="345" 
d="M33 0l136 700h250l-4 -18h-230l-60 -311h198l-4 -18h-198l-65 -335h230l-3 -18h-250zM392 924l-106 -161h-20l106 161h20z" />
    <glyph glyph-name="Ecircumflex" unicode="&#xca;" horiz-adv-x="345" 
d="M33 0l136 700h250l-4 -18h-230l-60 -311h198l-4 -18h-198l-65 -335h230l-3 -18h-250zM324 924h18l61 -161h-20l-54 141l-108 -141h-20z" />
    <glyph glyph-name="Edieresis" unicode="&#xcb;" horiz-adv-x="345" 
d="M33 0l136 700h250l-4 -18h-230l-60 -311h198l-4 -18h-198l-65 -335h230l-3 -18h-250zM267 890l-18 -93h-20l18 93h20zM405 890l-18 -93h-20l18 93h20z" />
    <glyph glyph-name="Igrave" unicode="&#xcc;" horiz-adv-x="146" 
d="M189 700l-136 -700h-20l136 700h20zM199 763l-44 161h20l44 -161h-20z" />
    <glyph glyph-name="Iacute" unicode="&#xcd;" horiz-adv-x="146" 
d="M189 700l-136 -700h-20l136 700h20zM290 924l-106 -161h-20l106 161h20z" />
    <glyph glyph-name="Icircumflex" unicode="&#xce;" horiz-adv-x="146" 
d="M189 700l-136 -700h-20l136 700h20zM213 924h18l61 -161h-20l-54 141l-108 -141h-20z" />
    <glyph glyph-name="Idieresis" unicode="&#xcf;" horiz-adv-x="146" 
d="M189 700l-136 -700h-20l136 700h20zM156 890l-18 -93h-20l18 93h20zM294 890l-18 -93h-20l18 93h20z" />
    <glyph glyph-name="Eth" unicode="&#xd0;" horiz-adv-x="396" 
d="M52 341l3 18h47l67 341h137q70 0 100.5 -50t11.5 -150l-59 -301q-19 -100 -68.5 -149.5t-120.5 -49.5h-137l66 341h-47zM56 18h117q131 0 167 185l57 293q19 95 -7.5 140.5t-87.5 45.5h-117l-63 -323h98l-3 -18h-98z" />
    <glyph glyph-name="Ntilde" unicode="&#xd1;" horiz-adv-x="434" 
d="M321 0l-142 653l-126 -653h-20l136 700h20l141 -653l127 653h20l-136 -700h-20zM369 849q20 -28 39 -28q27 0 44 56l20 -2q-21 -72 -68 -72q-27 0 -51 32q-22 28 -40 28q-27 0 -44 -56l-19 2q20 72 68 72q15 0 25.5 -6.5t25.5 -25.5z" />
    <glyph glyph-name="Ograve" unicode="&#xd2;" horiz-adv-x="392" 
d="M51 188l63 324q20 100 69.5 150t120.5 50t101.5 -50t10.5 -150l-63 -324q-20 -100 -69.5 -150t-120.5 -50t-101.5 50t-10.5 150zM334 192l61 316q19 95 -7.5 140.5t-87.5 45.5q-130 0 -167 -186l-61 -316q-19 -95 7.5 -140.5t87.5 -45.5q130 0 167 186zM331 763l-44 161
h20l44 -161h-20z" />
    <glyph glyph-name="Oacute" unicode="&#xd3;" horiz-adv-x="392" 
d="M51 188l63 324q20 100 69.5 150t120.5 50t101.5 -50t10.5 -150l-63 -324q-20 -100 -69.5 -150t-120.5 -50t-101.5 50t-10.5 150zM334 192l61 316q19 95 -7.5 140.5t-87.5 45.5q-130 0 -167 -186l-61 -316q-19 -95 7.5 -140.5t87.5 -45.5q130 0 167 186zM403 924
l-106 -161h-20l106 161h20z" />
    <glyph glyph-name="Ocircumflex" unicode="&#xd4;" horiz-adv-x="392" 
d="M51 188l63 324q20 100 69.5 150t120.5 50t101.5 -50t10.5 -150l-63 -324q-20 -100 -69.5 -150t-120.5 -50t-101.5 50t-10.5 150zM334 192l61 316q19 95 -7.5 140.5t-87.5 45.5q-130 0 -167 -186l-61 -316q-19 -95 7.5 -140.5t87.5 -45.5q130 0 167 186zM336 924h18
l61 -161h-20l-54 141l-108 -141h-20z" />
    <glyph glyph-name="Otilde" unicode="&#xd5;" horiz-adv-x="392" 
d="M51 188l63 324q20 100 69.5 150t120.5 50t101.5 -50t10.5 -150l-63 -324q-20 -100 -69.5 -150t-120.5 -50t-101.5 50t-10.5 150zM334 192l61 316q19 95 -7.5 140.5t-87.5 45.5q-130 0 -167 -186l-61 -316q-19 -95 7.5 -140.5t87.5 -45.5q130 0 167 186zM338 849
q20 -28 39 -28q27 0 44 56l20 -2q-21 -72 -68 -72q-27 0 -51 32q-22 28 -40 28q-27 0 -44 -56l-19 2q20 72 68 72q15 0 25.5 -6.5t25.5 -25.5z" />
    <glyph glyph-name="Odieresis" unicode="&#xd6;" horiz-adv-x="392" 
d="M51 188l63 324q20 100 69.5 150t120.5 50t101.5 -50t10.5 -150l-63 -324q-20 -100 -69.5 -150t-120.5 -50t-101.5 50t-10.5 150zM334 192l61 316q19 95 -7.5 140.5t-87.5 45.5q-130 0 -167 -186l-61 -316q-19 -95 7.5 -140.5t87.5 -45.5q130 0 167 186zM279 890l-18 -93
h-20l18 93h20zM417 890l-18 -93h-20l18 93h20z" />
    <glyph glyph-name="multiply" unicode="&#xd7;" horiz-adv-x="384" 
d="M87 447l14 14l121 -121l121 121l14 -14l-121 -121l121 -121l-14 -14l-121 121l-121 -121l-14 14l121 121z" />
    <glyph glyph-name="Oslash" unicode="&#xd8;" horiz-adv-x="392" 
d="M51 188l63 324q20 100 69.5 150t120.5 50q66 0 96 -44l37 64h20l-46 -82q22 -55 5 -138l-63 -324q-20 -100 -69.5 -150t-120.5 -50q-68 0 -97 44l-36 -65h-20l46 83q-23 49 -5 138zM72 192q-14 -72 -2 -117l319 571q-25 48 -89 48q-130 0 -167 -186zM334 192l61 316
q14 68 2 117l-319 -572q23 -47 89 -47q130 0 167 186z" />
    <glyph glyph-name="Ugrave" unicode="&#xd9;" horiz-adv-x="404" 
d="M336 192l99 508h20l-100 -512q-20 -100 -69 -150t-117 -50t-98 50t-10 150l100 512h20l-99 -508q-19 -95 6.5 -140.5t84.5 -45.5t101.5 45.5t61.5 140.5zM327 763l-44 161h20l44 -161h-20z" />
    <glyph glyph-name="Uacute" unicode="&#xda;" horiz-adv-x="404" 
d="M336 192l99 508h20l-100 -512q-20 -100 -69 -150t-117 -50t-98 50t-10 150l100 512h20l-99 -508q-19 -95 6.5 -140.5t84.5 -45.5t101.5 45.5t61.5 140.5zM419 924l-106 -161h-20l106 161h20z" />
    <glyph glyph-name="Ucircumflex" unicode="&#xdb;" horiz-adv-x="404" 
d="M336 192l99 508h20l-100 -512q-20 -100 -69 -150t-117 -50t-98 50t-10 150l100 512h20l-99 -508q-19 -95 6.5 -140.5t84.5 -45.5t101.5 45.5t61.5 140.5zM342 924h18l61 -161h-20l-54 141l-108 -141h-20z" />
    <glyph glyph-name="Udieresis" unicode="&#xdc;" horiz-adv-x="404" 
d="M336 192l99 508h20l-100 -512q-20 -100 -69 -150t-117 -50t-98 50t-10 150l100 512h20l-99 -508q-19 -95 6.5 -140.5t84.5 -45.5t101.5 45.5t61.5 140.5zM285 890l-18 -93h-20l18 93h20zM423 890l-18 -93h-20l18 93h20z" />
    <glyph glyph-name="Yacute" unicode="&#xdd;" horiz-adv-x="326" 
d="M143 0h-20l64 330l-68 370h20l63 -343l197 343h20l-212 -370zM383 924l-106 -161h-20l106 161h20z" />
    <glyph glyph-name="Thorn" unicode="&#xde;" horiz-adv-x="372" 
d="M169 151h-87l-29 -151h-20l136 700h20l-30 -151h87q84 0 118.5 -50.5t15.5 -148.5t-73 -148.5t-138 -50.5zM85 169h84q155 0 191 181q34 181 -120 181h-84z" />
    <glyph glyph-name="germandbls" unicode="&#xdf;" horiz-adv-x="362" 
d="M379 550l-6 -33q-13 -65 -38 -99t-75 -57q61 -27 79.5 -65t6.5 -102l-8 -44q-17 -84 -54.5 -123t-103.5 -39q-44 0 -74 27l14 16q27 -25 64 -25q55 0 87 34.5t47 109.5l8 41q12 64 -7 99t-86 59l1 18q55 22 81.5 56t37.5 94l6 31q28 146 -74 146t-130 -146l-106 -548h-20
l106 550q16 80 55.5 121t98.5 41q121 0 90 -162z" />
    <glyph glyph-name="agrave" unicode="&#xe0;" horiz-adv-x="336" 
d="M120 5q77 0 132 87l32 165h-93q-53 0 -91 -34t-49 -92l-4 -18q-20 -108 73 -108zM120 400l-20 1q45 111 140 111q52 0 76.5 -35t10.5 -105l-72 -372h-20l11 59q-54 -71 -132 -71q-50 0 -74.5 31t-12.5 94l4 18q13 68 58 106t111 38h88l19 96q24 123 -70 123
q-77 0 -117 -94zM263 564l-44 161h20l44 -161h-20z" />
    <glyph glyph-name="aacute" unicode="&#xe1;" horiz-adv-x="336" 
d="M120 5q77 0 132 87l32 165h-93q-53 0 -91 -34t-49 -92l-4 -18q-20 -108 73 -108zM120 400l-20 1q45 111 140 111q52 0 76.5 -35t10.5 -105l-72 -372h-20l11 59q-54 -71 -132 -71q-50 0 -74.5 31t-12.5 94l4 18q13 68 58 106t111 38h88l19 96q24 123 -70 123
q-77 0 -117 -94zM340 725l-106 -161h-20l106 161h20z" />
    <glyph glyph-name="acircumflex" unicode="&#xe2;" horiz-adv-x="336" 
d="M120 5q77 0 132 87l32 165h-93q-53 0 -91 -34t-49 -92l-4 -18q-20 -108 73 -108zM120 400l-20 1q45 111 140 111q52 0 76.5 -35t10.5 -105l-72 -372h-20l11 59q-54 -71 -132 -71q-50 0 -74.5 31t-12.5 94l4 18q13 68 58 106t111 38h88l19 96q24 123 -70 123
q-77 0 -117 -94zM274 725h18l61 -161h-20l-53 141l-109 -141h-20z" />
    <glyph glyph-name="atilde" unicode="&#xe3;" horiz-adv-x="336" 
d="M120 5q77 0 132 87l32 165h-93q-53 0 -91 -34t-49 -92l-4 -18q-20 -108 73 -108zM120 400l-20 1q45 111 140 111q52 0 76.5 -35t10.5 -105l-72 -372h-20l11 59q-54 -71 -132 -71q-50 0 -74.5 31t-12.5 94l4 18q13 68 58 106t111 38h88l19 96q24 123 -70 123
q-77 0 -117 -94zM276 650q14 -18 21.5 -23t17.5 -5q28 0 44 56l20 -2q-21 -72 -68 -72q-27 0 -51 32q-14 18 -21.5 23t-17.5 5q-28 0 -44 -56l-20 2q21 72 68 72q27 0 51 -32z" />
    <glyph glyph-name="adieresis" unicode="&#xe4;" horiz-adv-x="336" 
d="M120 5q77 0 132 87l32 165h-93q-53 0 -91 -34t-49 -92l-4 -18q-20 -108 73 -108zM120 400l-20 1q45 111 140 111q52 0 76.5 -35t10.5 -105l-72 -372h-20l11 59q-54 -71 -132 -71q-50 0 -74.5 31t-12.5 94l4 18q13 68 58 106t111 38h88l19 96q24 123 -70 123
q-77 0 -117 -94zM218 691l-18 -93h-20l18 93h20zM356 691l-18 -93h-20l18 93h20z" />
    <glyph glyph-name="aring" unicode="&#xe5;" horiz-adv-x="336" 
d="M120 5q77 0 132 87l32 165h-93q-53 0 -91 -34t-49 -92l-4 -18q-20 -108 73 -108zM120 400l-20 1q45 111 140 111q52 0 76.5 -35t10.5 -105l-72 -372h-20l11 59q-54 -71 -132 -71q-50 0 -74.5 31t-12.5 94l4 18q13 68 58 106t111 38h88l19 96q24 123 -70 123
q-77 0 -117 -94zM209 644q-6 -27 8.5 -44t38.5 -17t44.5 16.5t26.5 44.5q5 28 -9 44.5t-38 16.5t-45 -17t-26 -44zM189 644q7 35 34 57t60 22t52 -22t12 -57t-34.5 -57t-60.5 -22t-51.5 22t-11.5 57z" />
    <glyph glyph-name="ae" unicode="&#xe6;" horiz-adv-x="553" 
d="M51 131l-4 -18q-20 -108 73 -108q79 0 137 98q2 24 5 36l22 118h-93q-53 0 -91 -34t-49 -92zM455 494q-46 0 -82.5 -36t-48.5 -100l-18 -95h208l18 95q12 64 -9.5 100t-67.5 36zM27 113l4 18q13 68 58 106t111 38h88l19 96q24 123 -70 123q-81 0 -118 -102l-21 1
q42 119 142 119q39 0 64 -20.5t26 -61.5q42 82 128 82q56 0 82 -40.5t13 -110.5l-23 -116h-228l-20 -103q-13 -66 9 -101t68 -35q40 0 74 31t51 92l19 -2q-18 -67 -57.5 -103t-90.5 -36q-41 0 -67 22t-30 64q-24 -38 -62 -62t-82 -24q-50 0 -74.5 31t-12.5 94z" />
    <glyph glyph-name="ccedilla" unicode="&#xe7;" horiz-adv-x="321" 
d="M20 -214l16 16q19 -22 52 -22q63 0 74 58l1 4q5 27 -10 47.5t-51 29.5l-5 7l30 62q-54 2 -79 42t-11 109l43 222q13 70 55 110.5t98 40.5t82 -40.5t13 -110.5l-1 -6l-21 -1l1 4q12 64 -9.5 100t-67.5 36t-82.5 -36t-48.5 -100l-42 -216q-12 -64 10 -100t68 -36t82 36
t48 100l1 4l20 -1l-1 -6q-13 -65 -50.5 -104.5t-87.5 -45.5l-28 -57q37 -10 53.5 -34.5t10.5 -53.5l-1 -7q-7 -33 -33 -54t-64 -21q-43 0 -65 24z" />
    <glyph glyph-name="egrave" unicode="&#xe8;" horiz-adv-x="328" 
d="M278 127l-19 2q-17 -61 -51 -92t-74 -31q-46 0 -68 35t-9 101l20 102h228l23 117q13 70 -13 110.5t-82 40.5t-98 -40.5t-55 -110.5l-43 -222q-15 -72 11 -111.5t82 -39.5q51 0 90.5 36t57.5 103zM307 358l-19 -96h-208l19 96q12 64 48.5 100t82.5 36t67.5 -36t9.5 -100z
M256 564l-44 161h20l44 -161h-20z" />
    <glyph glyph-name="eacute" unicode="&#xe9;" horiz-adv-x="328" 
d="M259 129l19 -2q-18 -67 -57.5 -103t-90.5 -36q-56 0 -82 39.5t-11 111.5l43 222q13 70 55 110.5t98 40.5t82 -40.5t13 -110.5l-23 -117h-228l-20 -102q-13 -66 9 -101t68 -35q40 0 74 31t51 92zM288 262l19 96q12 64 -9.5 100t-67.5 36t-82.5 -36t-48.5 -100l-19 -96h208
zM331 725l-106 -161h-20l106 161h20z" />
    <glyph glyph-name="ecircumflex" unicode="&#xea;" horiz-adv-x="328" 
d="M259 129l19 -2q-18 -67 -57.5 -103t-90.5 -36q-56 0 -82 39.5t-11 111.5l43 222q13 70 55 110.5t98 40.5t82 -40.5t13 -110.5l-23 -117h-228l-20 -102q-13 -66 9 -101t68 -35q40 0 74 31t51 92zM288 262l19 96q12 64 -9.5 100t-67.5 36t-82.5 -36t-48.5 -100l-19 -96h208
zM262 725h18l61 -161h-20l-53 141l-109 -141h-20z" />
    <glyph glyph-name="edieresis" unicode="&#xeb;" horiz-adv-x="328" 
d="M278 127l-19 2q-17 -61 -51 -92t-74 -31q-46 0 -68 35t-9 101l20 102h228l23 117q13 70 -13 110.5t-82 40.5t-98 -40.5t-55 -110.5l-43 -222q-15 -72 11 -111.5t82 -39.5q51 0 90.5 36t57.5 103zM307 358l-19 -96h-208l19 96q12 64 48.5 100t82.5 36t67.5 -36t9.5 -100z
M206 691l-18 -93h-20l18 93h20zM344 691l-18 -93h-20l18 93h20z" />
    <glyph glyph-name="igrave" unicode="&#xec;" horiz-adv-x="146" 
d="M33 0l97 500h20l-97 -500h-20zM160 564l-44 161h20l44 -161h-20z" />
    <glyph glyph-name="iacute" unicode="&#xed;" horiz-adv-x="146" 
d="M33 0l97 500h20l-97 -500h-20zM250 725l-106 -161h-20l106 161h20z" />
    <glyph glyph-name="icircumflex" unicode="&#xee;" horiz-adv-x="146" 
d="M33 0l97 500h20l-97 -500h-20zM174 725h18l61 -161h-20l-53 141l-109 -141h-20z" />
    <glyph glyph-name="idieresis" unicode="&#xef;" horiz-adv-x="146" 
d="M33 0l97 500h20l-97 -500h-20zM118 691l-18 -93h-20l18 93h20zM256 691l-18 -93h-20l18 93h20z" />
    <glyph glyph-name="eth" unicode="&#xf0;" horiz-adv-x="328" 
d="M299 628l63 19v-18l-61 -18l29 -181q5 -33 -2 -69l-43 -222q-14 -70 -56 -110.5t-98 -40.5t-82 40.5t-12 110.5l43 222q13 70 55 110.5t98 40.5q48 0 69 -28l-20 121l-87 -25l1 18l83 24l-14 90h21zM265 142l42 216q12 64 -9.5 100t-67.5 36t-82.5 -36t-48.5 -100
l-42 -216q-12 -64 10 -100t68 -36t82 36t48 100z" />
    <glyph glyph-name="ntilde" unicode="&#xf1;" horiz-adv-x="343" 
d="M242 0l70 364q13 63 -6 96.5t-65 33.5q-76 0 -122 -106l-75 -388h-20l97 500h20l-12 -62q20 35 51 54.5t65 19.5q54 0 77.5 -38t10.5 -107l-71 -367h-20zM274 650q14 -18 21.5 -23t17.5 -5q28 0 44 56l20 -2q-21 -72 -68 -72q-27 0 -51 32q-14 18 -21.5 23t-17.5 5
q-28 0 -44 -56l-20 2q21 72 68 72q27 0 51 -32z" />
    <glyph glyph-name="ograve" unicode="&#xf2;" horiz-adv-x="328" 
d="M307 358l-42 -216q-12 -64 -48 -100t-82 -36t-68 36t-10 100l42 216q12 64 48.5 100t82.5 36t67.5 -36t9.5 -100zM285 139l43 222q13 70 -13 110.5t-82 40.5t-98 -40.5t-55 -110.5l-43 -222q-14 -70 12 -110.5t82 -40.5t98 40.5t56 110.5zM259 564l-44 161h20l44 -161
h-20z" />
    <glyph glyph-name="oacute" unicode="&#xf3;" horiz-adv-x="328" 
d="M265 142l42 216q12 64 -9.5 100t-67.5 36t-82.5 -36t-48.5 -100l-42 -216q-12 -64 10 -100t68 -36t82 36t48 100zM328 361l-43 -222q-14 -70 -56 -110.5t-98 -40.5t-82 40.5t-12 110.5l43 222q13 70 55 110.5t98 40.5t82 -40.5t13 -110.5zM333 725l-106 -161h-20l106 161
h20z" />
    <glyph glyph-name="ocircumflex" unicode="&#xf4;" horiz-adv-x="328" 
d="M265 142l42 216q12 64 -9.5 100t-67.5 36t-82.5 -36t-48.5 -100l-42 -216q-12 -64 10 -100t68 -36t82 36t48 100zM328 361l-43 -222q-14 -70 -56 -110.5t-98 -40.5t-82 40.5t-12 110.5l43 222q13 70 55 110.5t98 40.5t82 -40.5t13 -110.5zM265 725h18l61 -161h-20
l-53 141l-109 -141h-20z" />
    <glyph glyph-name="otilde" unicode="&#xf5;" horiz-adv-x="328" 
d="M307 358l-42 -216q-12 -64 -48 -100t-82 -36t-68 36t-10 100l42 216q12 64 48.5 100t82.5 36t67.5 -36t9.5 -100zM285 139l43 222q13 70 -13 110.5t-82 40.5t-98 -40.5t-55 -110.5l-43 -222q-14 -70 12 -110.5t82 -40.5t98 40.5t56 110.5zM267 650q14 -18 21.5 -23
t17.5 -5q28 0 44 56l20 -2q-21 -72 -68 -72q-27 0 -51 32q-14 18 -21.5 23t-17.5 5q-28 0 -44 -56l-20 2q21 72 68 72q27 0 51 -32z" />
    <glyph glyph-name="odieresis" unicode="&#xf6;" horiz-adv-x="328" 
d="M307 358l-42 -216q-12 -64 -48 -100t-82 -36t-68 36t-10 100l42 216q12 64 48.5 100t82.5 36t67.5 -36t9.5 -100zM285 139l43 222q13 70 -13 110.5t-82 40.5t-98 -40.5t-55 -110.5l-43 -222q-14 -70 12 -110.5t82 -40.5t98 40.5t56 110.5zM209 691l-18 -93h-20l18 93h20z
M347 691l-18 -93h-20l18 93h20z" />
    <glyph glyph-name="divide" unicode="&#xf7;" horiz-adv-x="384" 
d="M71 317v18h302v-18h-302zM232 220v-65h-20v65h20zM232 497v-65h-20v65h20z" />
    <glyph glyph-name="oslash" unicode="&#xf8;" horiz-adv-x="328" 
d="M33 -38h-20l36 66q-27 41 -12 111l43 222q13 70 55 110.5t98 40.5q43 0 69 -26l29 52h20l-37 -66q27 -42 14 -111l-43 -222q-14 -70 -56 -110.5t-98 -40.5q-43 0 -70 25zM265 142l42 216q10 53 -5 91l-230 -416q21 -27 63 -27q46 0 82 36t48 100zM230 494
q-46 0 -82.5 -36t-48.5 -100l-42 -216q-10 -56 4 -91l230 415q-22 28 -61 28z" />
    <glyph glyph-name="ugrave" unicode="&#xf9;" horiz-adv-x="343" 
d="M138 500l-71 -364q-13 -63 6.5 -96.5t65.5 -33.5q75 0 121 106l76 388h20l-97 -500h-20l12 62q-20 -35 -51.5 -54.5t-65.5 -19.5q-54 0 -77.5 38t-10.5 107l72 367h20zM261 564l-44 161h20l44 -161h-20z" />
    <glyph glyph-name="uacute" unicode="&#xfa;" horiz-adv-x="343" 
d="M138 500l-71 -364q-13 -63 6.5 -96.5t65.5 -33.5q75 0 121 106l76 388h20l-97 -500h-20l12 62q-20 -35 -51.5 -54.5t-65.5 -19.5q-54 0 -77.5 38t-10.5 107l72 367h20zM343 725l-106 -161h-20l106 161h20z" />
    <glyph glyph-name="ucircumflex" unicode="&#xfb;" horiz-adv-x="343" 
d="M138 500l-71 -364q-13 -63 6.5 -96.5t65.5 -33.5q75 0 121 106l76 388h20l-97 -500h-20l12 62q-20 -35 -51.5 -54.5t-65.5 -19.5q-54 0 -77.5 38t-10.5 107l72 367h20zM271 725h18l61 -161h-20l-53 141l-109 -141h-20z" />
    <glyph glyph-name="udieresis" unicode="&#xfc;" horiz-adv-x="343" 
d="M138 500l-71 -364q-13 -63 6.5 -96.5t65.5 -33.5q75 0 121 106l76 388h20l-97 -500h-20l12 62q-20 -35 -51.5 -54.5t-65.5 -19.5q-54 0 -77.5 38t-10.5 107l72 367h20zM215 691l-18 -93h-20l18 93h20zM353 691l-18 -93h-20l18 93h20z" />
    <glyph glyph-name="yacute" unicode="&#xfd;" horiz-adv-x="302" 
d="M46 -143l64 143l-28 500h21l25 -458l205 458h21l-287 -643q-20 -43 -34 -55.5t-42 -12.5h-7l4 18h9q15 0 24.5 9.5t24.5 40.5zM327 725l-106 -161h-20l106 161h20z" />
    <glyph glyph-name="thorn" unicode="&#xfe;" horiz-adv-x="332" 
d="M122 403l-60 -306q4 -46 26.5 -68.5t57.5 -22.5q48 0 79.5 37.5t43.5 98.5l42 216q12 61 -5 98.5t-65 37.5q-78 0 -119 -91zM54 53l-53 -271h-20l181 930h20l-52 -265q43 65 114 65q56 0 78.5 -41.5t9.5 -109.5l-43 -222q-14 -68 -52.5 -109.5t-94.5 -41.5q-71 0 -88 65z
" />
    <glyph glyph-name="ydieresis" unicode="&#xff;" horiz-adv-x="302" 
d="M46 -143l64 143l-28 500h21l25 -458l205 458h21l-287 -643q-20 -43 -34 -55.5t-42 -12.5h-7l4 18h9q15 0 24.5 9.5t24.5 40.5zM196 691l-18 -93h-20l18 93h20zM334 691l-18 -93h-20l18 93h20z" />
    <glyph glyph-name="Amacron" unicode="&#x100;" horiz-adv-x="358" 
d="M298 0l-7 197h-209l-82 -197h-20l295 700h20l23 -700h-20zM277 660l-188 -445h201zM229 834l3 18h164l-3 -18h-164z" />
    <glyph glyph-name="amacron" unicode="&#x101;" horiz-adv-x="336" 
d="M120 5q77 0 132 87l32 165h-93q-53 0 -91 -34t-49 -92l-4 -18q-20 -108 73 -108zM120 400l-20 1q45 111 140 111q52 0 76.5 -35t10.5 -105l-72 -372h-20l11 59q-54 -71 -132 -71q-50 0 -74.5 31t-12.5 94l4 18q13 68 58 106t111 38h88l19 96q24 123 -70 123
q-77 0 -117 -94zM184 635l3 18h164l-3 -18h-164z" />
    <glyph glyph-name="Abreve" unicode="&#x102;" horiz-adv-x="358" 
d="M298 0l-7 197h-209l-82 -197h-20l295 700h20l23 -700h-20zM277 660l-188 -445h201zM298 770q-49 0 -69.5 33t-7.5 99l20 1q-21 -115 61 -115q81 0 105 115l20 -1q-13 -66 -46.5 -99t-82.5 -33z" />
    <glyph glyph-name="abreve" unicode="&#x103;" horiz-adv-x="336" 
d="M120 5q77 0 132 87l32 165h-93q-53 0 -91 -34t-49 -92l-4 -18q-20 -108 73 -108zM120 400l-20 1q45 111 140 111q52 0 76.5 -35t10.5 -105l-72 -372h-20l11 59q-54 -71 -132 -71q-50 0 -74.5 31t-12.5 94l4 18q13 68 58 106t111 38h88l19 96q24 123 -70 123
q-77 0 -117 -94zM254 573q-49 0 -69.5 33t-7.5 99l20 1q-21 -115 60 -115q82 0 106 115l20 -1q-13 -66 -46.5 -99t-82.5 -33z" />
    <glyph glyph-name="Aogonek" unicode="&#x104;" horiz-adv-x="358" 
d="M298 2l-7 195h-209l-82 -197h-20l295 700h20l23 -700q-79 -60 -93 -129l-1 -6q-6 -30 7.5 -48t39.5 -18q38 0 65 26l12 -14q-33 -30 -80 -30q-36 0 -53.5 23.5t-10.5 60.5l1 6q15 74 93 131zM277 660l-188 -445h201z" />
    <glyph glyph-name="aogonek" unicode="&#x105;" horiz-adv-x="336" 
d="M235 2l11 57q-54 -71 -132 -71q-50 0 -74.5 31t-12.5 94l4 18q13 68 58 106t111 38h88l19 96q24 123 -70 123q-77 0 -117 -94l-20 1q45 111 140 111q52 0 76.5 -35t10.5 -105l-72 -372q-79 -60 -93 -129l-1 -6q-6 -30 7.5 -48t39.5 -18q38 0 65 26l12 -14
q-33 -30 -80 -30q-36 0 -53.5 23.5t-10.5 60.5l1 6q14 73 93 131zM120 5q77 0 132 87l32 165h-93q-53 0 -91 -34t-49 -92l-4 -18q-20 -108 73 -108z" />
    <glyph glyph-name="Cacute" unicode="&#x106;" horiz-adv-x="386" 
d="M51 188l63 324q20 100 69.5 150t120.5 50t101.5 -50t10.5 -150l-2 -9l-20 -1l1 6q19 95 -7.5 140.5t-87.5 45.5q-130 0 -167 -186l-61 -316q-19 -95 7.5 -140.5t87.5 -45.5q130 0 167 186l1 6l20 -1l-2 -9q-20 -100 -69.5 -150t-120.5 -50t-101.5 50t-10.5 150zM400 924
l-106 -161h-20l106 161h20z" />
    <glyph glyph-name="cacute" unicode="&#x107;" horiz-adv-x="324" 
d="M37 139l43 222q13 70 55 110.5t98 40.5t82 -40.5t13 -110.5l-1 -6l-21 -1l1 4q12 64 -9.5 100t-67.5 36t-82.5 -36t-48.5 -100l-42 -216q-12 -64 10 -100t68 -36t82 36t48 100l1 4l20 -1l-1 -6q-14 -70 -56 -110.5t-98 -40.5t-82 40.5t-12 110.5zM325 725l-106 -161h-20
l106 161h20z" />
    <glyph glyph-name="Ccircumflex" unicode="&#x108;" horiz-adv-x="386" 
d="M51 188l63 324q20 100 69.5 150t120.5 50t101.5 -50t10.5 -150l-2 -9l-20 -1l1 6q19 95 -7.5 140.5t-87.5 45.5q-130 0 -167 -186l-61 -316q-19 -95 7.5 -140.5t87.5 -45.5q130 0 167 186l1 6l20 -1l-2 -9q-20 -100 -69.5 -150t-120.5 -50t-101.5 50t-10.5 150zM331 924
h18l61 -161h-20l-54 141l-108 -141h-20z" />
    <glyph glyph-name="ccircumflex" unicode="&#x109;" horiz-adv-x="324" 
d="M37 139l43 222q13 70 55 110.5t98 40.5t82 -40.5t13 -110.5l-1 -6l-21 -1l1 4q12 64 -9.5 100t-67.5 36t-82.5 -36t-48.5 -100l-42 -216q-12 -64 10 -100t68 -36t82 36t48 100l1 4l20 -1l-1 -6q-14 -70 -56 -110.5t-98 -40.5t-82 40.5t-12 110.5zM261 725h18l61 -161h-20
l-53 141l-109 -141h-20z" />
    <glyph glyph-name="Cdotaccent" unicode="&#x10a;" horiz-adv-x="386" 
d="M51 188l63 324q20 100 69.5 150t120.5 50t101.5 -50t10.5 -150l-2 -9l-20 -1l1 6q19 95 -7.5 140.5t-87.5 45.5q-130 0 -167 -186l-61 -316q-19 -95 7.5 -140.5t87.5 -45.5q130 0 167 186l1 6l20 -1l-2 -9q-20 -100 -69.5 -150t-120.5 -50t-101.5 50t-10.5 150zM341 890
l-18 -93h-20l18 93h20z" />
    <glyph glyph-name="cdotaccent" unicode="&#x10b;" horiz-adv-x="324" 
d="M80 361l-43 -222q-14 -70 12 -110.5t82 -40.5t98 40.5t56 110.5l1 6l-20 1l-1 -4q-12 -64 -48 -100t-82 -36t-68 36t-10 100l42 216q12 64 48.5 100t82.5 36t67.5 -36t9.5 -100l-1 -4l21 1l1 6q13 70 -13 110.5t-82 40.5t-98 -40.5t-55 -110.5zM272 691l-18 -93h-20
l18 93h20z" />
    <glyph glyph-name="Ccaron" unicode="&#x10c;" horiz-adv-x="386" 
d="M51 188l63 324q20 100 69.5 150t120.5 50t101.5 -50t10.5 -150l-2 -9l-20 -1l1 6q19 95 -7.5 140.5t-87.5 45.5q-130 0 -167 -186l-61 -316q-19 -95 7.5 -140.5t87.5 -45.5q130 0 167 186l1 6l20 -1l-2 -9q-20 -100 -69.5 -150t-120.5 -50t-101.5 50t-10.5 150zM316 763
h-18l-61 161h20l54 -141l108 141h20z" />
    <glyph glyph-name="ccaron" unicode="&#x10d;" horiz-adv-x="324" 
d="M80 361l-43 -222q-14 -70 12 -110.5t82 -40.5t98 40.5t56 110.5l1 6l-20 1l-1 -4q-12 -64 -48 -100t-82 -36t-68 36t-10 100l42 216q12 64 48.5 100t82.5 36t67.5 -36t9.5 -100l-1 -4l21 1l1 6q13 70 -13 110.5t-82 40.5t-98 -40.5t-55 -110.5zM246 564h-18l-61 161h20
l54 -141l108 141h20z" />
    <glyph glyph-name="Dcaron" unicode="&#x10e;" horiz-adv-x="396" 
d="M313 763h-18l-61 161h20l54 -141l108 141h20zM33 0l136 700h137q70 0 100.5 -50t11.5 -150l-59 -301q-19 -100 -68.5 -149.5t-120.5 -49.5h-137zM56 18h117q131 0 167 185l57 293q19 95 -7.5 140.5t-87.5 45.5h-117z" />
    <glyph glyph-name="dcaron" unicode="&#x10f;" horiz-adv-x="364" 
d="M246 97l60 306q-4 46 -26 68.5t-57 22.5q-48 0 -80 -37.5t-44 -98.5l-42 -216q-12 -61 5.5 -98.5t65.5 -37.5q77 0 118 91zM228 0l10 53q-43 -65 -114 -65q-56 0 -78.5 41.5t-8.5 109.5l43 222q13 68 51.5 109.5t94.5 41.5q71 0 88 -65l52 265h20l-138 -712h-20zM462 712
l-15 -78q-12 -57 -55 -70l5 23q22 10 30 47l15 78h20z" />
    <glyph glyph-name="Dcroat" unicode="&#x110;" horiz-adv-x="396" 
d="M52 341l3 18h47l67 341h137q70 0 100.5 -50t11.5 -150l-59 -301q-19 -100 -68.5 -149.5t-120.5 -49.5h-137l66 341h-47zM56 18h117q131 0 167 185l57 293q19 95 -7.5 140.5t-87.5 45.5h-117l-63 -323h98l-3 -18h-98z" />
    <glyph glyph-name="dcroat" unicode="&#x111;" horiz-adv-x="332" 
d="M248 608l3 18h98l17 86h20l-17 -86h42l-3 -18h-42l-118 -608h-20l10 53q-43 -65 -114 -65q-56 0 -78.5 41.5t-8.5 109.5l43 222q13 68 51.5 109.5t94.5 41.5q71 0 88 -65l32 161h-98zM246 97l60 306q-4 46 -26 68.5t-57 22.5q-48 0 -80 -37.5t-44 -98.5l-42 -216
q-12 -61 5.5 -98.5t65.5 -37.5q77 0 118 91z" />
    <glyph glyph-name="Emacron" unicode="&#x112;" horiz-adv-x="345" 
d="M33 0l136 700h250l-4 -18h-230l-60 -311h198l-4 -18h-198l-65 -335h230l-3 -18h-250zM234 834l3 18h164l-3 -18h-164z" />
    <glyph glyph-name="emacron" unicode="&#x113;" horiz-adv-x="328" 
d="M278 127l-19 2q-17 -61 -51 -92t-74 -31q-46 0 -68 35t-9 101l20 102h228l23 117q13 70 -13 110.5t-82 40.5t-98 -40.5t-55 -110.5l-43 -222q-15 -72 11 -111.5t82 -39.5q51 0 90.5 36t57.5 103zM307 358l-19 -96h-208l19 96q12 64 48.5 100t82.5 36t67.5 -36t9.5 -100z
M172 635l3 18h164l-3 -18h-164z" />
    <glyph glyph-name="Ebreve" unicode="&#x114;" horiz-adv-x="345" 
d="M33 0l136 700h250l-4 -18h-230l-60 -311h198l-4 -18h-198l-65 -335h230l-3 -18h-250zM303 770q-49 0 -69.5 33t-7.5 99l20 1q-21 -115 61 -115q81 0 105 115l20 -1q-13 -66 -46.5 -99t-82.5 -33z" />
    <glyph glyph-name="ebreve" unicode="&#x115;" horiz-adv-x="328" 
d="M278 127l-19 2q-17 -61 -51 -92t-74 -31q-46 0 -68 35t-9 101l20 102h228l23 117q13 70 -13 110.5t-82 40.5t-98 -40.5t-55 -110.5l-43 -222q-15 -72 11 -111.5t82 -39.5q51 0 90.5 36t57.5 103zM307 358l-19 -96h-208l19 96q12 64 48.5 100t82.5 36t67.5 -36t9.5 -100z
M242 573q-49 0 -69.5 33t-7.5 99l20 1q-21 -115 60 -115q82 0 106 115l20 -1q-13 -66 -46.5 -99t-82.5 -33z" />
    <glyph glyph-name="Edotaccent" unicode="&#x116;" horiz-adv-x="345" 
d="M33 0l136 700h250l-4 -18h-230l-60 -311h198l-4 -18h-198l-65 -335h230l-3 -18h-250zM336 890l-18 -93h-20l18 93h20z" />
    <glyph glyph-name="edotaccent" unicode="&#x117;" horiz-adv-x="328" 
d="M278 127l-19 2q-17 -61 -51 -92t-74 -31q-46 0 -68 35t-9 101l20 102h228l23 117q13 70 -13 110.5t-82 40.5t-98 -40.5t-55 -110.5l-43 -222q-15 -72 11 -111.5t82 -39.5q51 0 90.5 36t57.5 103zM307 358l-19 -96h-208l19 96q12 64 48.5 100t82.5 36t67.5 -36t9.5 -100z
M275 691l-18 -93h-20l18 93h20z" />
    <glyph glyph-name="Eogonek" unicode="&#x118;" horiz-adv-x="345" 
d="M33 0l136 700h250l-4 -18h-230l-60 -311h198l-4 -18h-198l-65 -335h230l-3 -18h-55q-79 -60 -93 -129l-1 -6q-6 -30 7.5 -48t39.5 -18q38 0 65 26l12 -14q-33 -30 -80 -30q-36 0 -53.5 23.5t-10.5 60.5l1 6q14 73 91 129h-173z" />
    <glyph glyph-name="eogonek" unicode="&#x119;" horiz-adv-x="328" 
d="M259 129l19 -2q-16 -59 -48.5 -94t-74.5 -43q-66 -54 -80 -119l-1 -6q-6 -30 7.5 -48t39.5 -18q38 0 65 26l12 -14q-33 -30 -80 -30q-36 0 -53.5 23.5t-10.5 60.5l1 6q13 65 75 117q-56 0 -82 39.5t-11 111.5l43 222q13 70 55 110.5t98 40.5t82 -40.5t13 -110.5l-23 -117
h-228l-20 -102q-13 -66 9 -101t68 -35q40 0 74 31t51 92zM288 262l19 96q12 64 -9.5 100t-67.5 36t-82.5 -36t-48.5 -100l-19 -96h208z" />
    <glyph glyph-name="Ecaron" unicode="&#x11a;" horiz-adv-x="345" 
d="M33 0l136 700h250l-4 -18h-230l-60 -311h198l-4 -18h-198l-65 -335h230l-3 -18h-250zM311 763h-18l-61 161h20l54 -141l108 141h20z" />
    <glyph glyph-name="ecaron" unicode="&#x11b;" horiz-adv-x="328" 
d="M278 127l-19 2q-17 -61 -51 -92t-74 -31q-46 0 -68 35t-9 101l20 102h228l23 117q13 70 -13 110.5t-82 40.5t-98 -40.5t-55 -110.5l-43 -222q-15 -72 11 -111.5t82 -39.5q51 0 90.5 36t57.5 103zM307 358l-19 -96h-208l19 96q12 64 48.5 100t82.5 36t67.5 -36t9.5 -100z
M249 564h-18l-61 161h20l54 -141l108 141h20z" />
    <glyph glyph-name="Gcircumflex" unicode="&#x11c;" horiz-adv-x="389" 
d="M240 313l4 20h137l-28 -145q-20 -100 -69.5 -150t-120.5 -50t-101.5 50t-10.5 150l63 324q20 100 69.5 150t120.5 50t101.5 -50t10.5 -150l-2 -9l-20 -1l1 6q19 95 -7.5 140.5t-87.5 45.5q-130 0 -167 -186l-61 -316q-19 -95 7.5 -140.5t87.5 -45.5q130 0 167 186l23 121
h-117zM332 924h18l61 -161h-20l-54 141l-108 -141h-20z" />
    <glyph glyph-name="gcircumflex" unicode="&#x11d;" horiz-adv-x="332" 
d="M211 -84l27 137q-43 -65 -114 -65q-56 0 -78.5 41.5t-8.5 109.5l43 222q13 68 51.5 109.5t94.5 41.5q71 0 88 -65l11 53h20l-114 -585q-28 -147 -141 -147q-97 0 -89 115l20 2q-4 -99 73 -99q92 0 117 130zM246 97l60 306q-4 46 -26 68.5t-57 22.5q-48 0 -80 -37.5
t-44 -98.5l-42 -216q-12 -61 5.5 -98.5t65.5 -37.5q77 0 118 91zM264 725h18l61 -161h-20l-53 141l-109 -141h-20z" />
    <glyph glyph-name="Gbreve" unicode="&#x11e;" horiz-adv-x="389" 
d="M240 313l4 20h137l-28 -145q-20 -100 -69.5 -150t-120.5 -50t-101.5 50t-10.5 150l63 324q20 100 69.5 150t120.5 50t101.5 -50t10.5 -150l-2 -9l-20 -1l1 6q19 95 -7.5 140.5t-87.5 45.5q-130 0 -167 -186l-61 -316q-19 -95 7.5 -140.5t87.5 -45.5q130 0 167 186l23 121
h-117zM311 770q-49 0 -69.5 33t-7.5 99l20 1q-21 -115 61 -115q81 0 105 115l20 -1q-13 -66 -46.5 -99t-82.5 -33z" />
    <glyph glyph-name="gbreve" unicode="&#x11f;" horiz-adv-x="332" 
d="M211 -84l27 137q-43 -65 -114 -65q-56 0 -78.5 41.5t-8.5 109.5l43 222q13 68 51.5 109.5t94.5 41.5q71 0 88 -65l11 53h20l-114 -585q-28 -147 -141 -147q-97 0 -89 115l20 2q-4 -99 73 -99q92 0 117 130zM246 97l60 306q-4 46 -26 68.5t-57 22.5q-48 0 -80 -37.5
t-44 -98.5l-42 -216q-12 -61 5.5 -98.5t65.5 -37.5q77 0 118 91zM244 573q-49 0 -69.5 33t-7.5 99l20 1q-21 -115 60 -115q82 0 106 115l20 -1q-13 -66 -46.5 -99t-82.5 -33z" />
    <glyph glyph-name="Gdotaccent" unicode="&#x120;" horiz-adv-x="389" 
d="M240 313l4 20h137l-28 -145q-20 -100 -69.5 -150t-120.5 -50t-101.5 50t-10.5 150l63 324q20 100 69.5 150t120.5 50t101.5 -50t10.5 -150l-2 -9l-20 -1l1 6q19 95 -7.5 140.5t-87.5 45.5q-130 0 -167 -186l-61 -316q-19 -95 7.5 -140.5t87.5 -45.5q130 0 167 186l23 121
h-117zM344 890l-18 -93h-20l18 93h20z" />
    <glyph glyph-name="gdotaccent" unicode="&#x121;" horiz-adv-x="332" 
d="M211 -84l27 137q-43 -65 -114 -65q-56 0 -78.5 41.5t-8.5 109.5l43 222q13 68 51.5 109.5t94.5 41.5q71 0 88 -65l11 53h20l-114 -585q-28 -147 -141 -147q-97 0 -89 115l20 2q-4 -99 73 -99q92 0 117 130zM246 97l60 306q-4 46 -26 68.5t-57 22.5q-48 0 -80 -37.5
t-44 -98.5l-42 -216q-12 -61 5.5 -98.5t65.5 -37.5q77 0 118 91zM277 691l-18 -93h-20l18 93h20z" />
    <glyph glyph-name="Gcommaaccent" unicode="&#x122;" horiz-adv-x="389" 
d="M240 313l4 20h137l-28 -145q-20 -100 -69.5 -150t-120.5 -50t-101.5 50t-10.5 150l63 324q20 100 69.5 150t120.5 50t101.5 -50t10.5 -150l-2 -9l-20 -1l1 6q19 95 -7.5 140.5t-87.5 45.5q-130 0 -167 -186l-61 -316q-19 -95 7.5 -140.5t87.5 -45.5q130 0 167 186l23 121
h-117zM119 -210l69 161h-20l-69 -161h20z" />
    <glyph glyph-name="gcommaaccent" unicode="&#x123;" horiz-adv-x="332" 
d="M211 -84l27 137q-43 -65 -114 -65q-56 0 -78.5 41.5t-8.5 109.5l43 222q13 68 51.5 109.5t94.5 41.5q71 0 88 -65l11 53h20l-114 -585q-28 -147 -141 -147q-97 0 -89 115l20 2q-4 -99 73 -99q92 0 117 130zM246 97l60 306q-4 46 -26 68.5t-57 22.5q-48 0 -80 -37.5
t-44 -98.5l-42 -216q-12 -61 5.5 -98.5t65.5 -37.5q77 0 118 91zM220 551l69 161h20l-69 -161h-20z" />
    <glyph glyph-name="Hcircumflex" unicode="&#x124;" horiz-adv-x="410" 
d="M297 0l68 352h-244l-68 -352h-20l136 700h20l-65 -330h244l65 330h20l-136 -700h-20zM345 924h18l61 -161h-20l-54 141l-108 -141h-20z" />
    <glyph glyph-name="hcircumflex" unicode="&#x125;" horiz-adv-x="343" 
d="M242 0l70 364q13 63 -6 96.5t-65 33.5q-76 0 -122 -106l-75 -388h-20l138 712h20l-53 -274q20 35 51 54.5t65 19.5q54 0 77.5 -38t10.5 -107l-71 -367h-20zM204 924h18l61 -161h-20l-54 141l-108 -141h-20z" />
    <glyph glyph-name="Hbar" unicode="&#x126;" horiz-adv-x="410" 
d="M474 568l-4 -18h-47l-106 -550h-20l68 352h-244l-68 -352h-20l106 550h-47l4 18h47l26 132h20l-26 -132h244l26 132h20l-26 -132h47zM124 370h244l35 180h-244z" />
    <glyph glyph-name="hbar" unicode="&#x127;" horiz-adv-x="343" 
d="M260 608h-98l-33 -170q20 35 51 54.5t65 19.5q54 0 77.5 -38t10.5 -107l-71 -367h-20l70 364q13 63 -6 96.5t-65 33.5q-76 0 -122 -106l-75 -388h-20l118 608h-42l3 18h42l17 86h20l-17 -86h98z" />
    <glyph glyph-name="Itilde" unicode="&#x128;" horiz-adv-x="146" 
d="M189 700l-136 -700h-20l136 700h20zM215 849q20 -28 39 -28q27 0 44 56l20 -2q-21 -72 -68 -72q-27 0 -51 32q-22 28 -40 28q-27 0 -44 -56l-19 2q20 72 68 72q15 0 25.5 -6.5t25.5 -25.5z" />
    <glyph glyph-name="itilde" unicode="&#x129;" horiz-adv-x="146" 
d="M33 0l97 500h20l-97 -500h-20zM176 650q14 -18 21.5 -23t17.5 -5q28 0 44 56l20 -2q-21 -72 -68 -72q-27 0 -51 32q-14 18 -21.5 23t-17.5 5q-28 0 -44 -56l-20 2q21 72 68 72q27 0 51 -32z" />
    <glyph glyph-name="Imacron" unicode="&#x12a;" horiz-adv-x="146" 
d="M189 700l-136 -700h-20l136 700h20zM123 834l3 18h164l-3 -18h-164z" />
    <glyph glyph-name="imacron" unicode="&#x12b;" horiz-adv-x="146" 
d="M33 0l97 500h20l-97 -500h-20zM84 635l3 18h164l-3 -18h-164z" />
    <glyph glyph-name="Ibreve" unicode="&#x12c;" horiz-adv-x="146" 
d="M189 700l-136 -700h-20l136 700h20zM192 770q-49 0 -69.5 33t-7.5 99l20 1q-21 -115 61 -115q81 0 105 115l20 -1q-13 -66 -46.5 -99t-82.5 -33z" />
    <glyph glyph-name="ibreve" unicode="&#x12d;" horiz-adv-x="146" 
d="M33 0l97 500h20l-97 -500h-20zM154 573q-49 0 -69.5 33t-7.5 99l20 1q-21 -115 60 -115q82 0 106 115l20 -1q-13 -66 -46.5 -99t-82.5 -33z" />
    <glyph glyph-name="Iogonek" unicode="&#x12e;" horiz-adv-x="146" 
d="M33 2l136 698h20l-136 -700q-78 -60 -92 -129l-1 -6q-6 -30 7.5 -48t38.5 -18q38 0 65 26l12 -14q-33 -30 -80 -30q-36 0 -53 23.5t-10 60.5l1 6q14 74 92 131z" />
    <glyph glyph-name="iogonek" unicode="&#x12f;" horiz-adv-x="146" 
d="M150 500l-97 -500q-78 -60 -92 -129l-1 -6q-6 -30 7.5 -48t38.5 -18q38 0 65 26l12 -14q-33 -30 -80 -30q-36 0 -53 23.5t-10 60.5l1 6q14 74 92 131l97 498h20zM156 635l15 77h20l-15 -77h-20z" />
    <glyph glyph-name="Idotaccent" unicode="&#x130;" horiz-adv-x="146" 
d="M189 700l-136 -700h-20l136 700h20zM225 890l-18 -93h-20l18 93h20z" />
    <glyph glyph-name="dotlessi" unicode="&#x131;" horiz-adv-x="146" 
d="M33 0l97 500h20l-97 -500h-20z" />
    <glyph glyph-name="IJ" unicode="&#x132;" horiz-adv-x="467" 
d="M189 700l-136 -700h-20l136 700h20zM255 -12q124 0 158 175l105 537h-20l-105 -536q-16 -82 -48.5 -120t-85.5 -38q-97 0 -81 130l-20 -1q-18 -147 97 -147z" />
    <glyph glyph-name="ij" unicode="&#x133;" horiz-adv-x="282" 
d="M33 0l97 500h20l-97 -500h-20zM156 635l15 77h20l-15 -77h-20zM292 635l15 77h20l-15 -77h-20zM147 -109l119 609h20l-119 -609q-10 -55 -33.5 -79t-65.5 -24h-11l4 18h13q30 0 47 19t26 66z" />
    <glyph glyph-name="Jcircumflex" unicode="&#x134;" horiz-adv-x="321" 
d="M109 -12q-115 0 -97 147l20 1q-16 -130 81 -130q53 0 85.5 38t48.5 120l105 536h20l-105 -537q-34 -175 -158 -175zM396 924h18l61 -161h-20l-54 141l-108 -141h-20z" />
    <glyph glyph-name="jcircumflex" unicode="&#x135;" horiz-adv-x="136" 
d="M1 -109l119 609h20l-119 -609q-10 -55 -33.5 -79t-64.5 -24h-11l4 18h13q30 0 46.5 18.5t25.5 66.5zM164 725h18l61 -161h-20l-53 141l-109 -141h-20z" />
    <glyph glyph-name="Kcommaaccent" unicode="&#x136;" horiz-adv-x="376" 
d="M407 700h20l-8 -41q-18 -93 -50 -147t-97 -110l64 -402h-21l-61 388l-150 -121l-51 -267h-20l136 700h20l-79 -406l129 104q75 61 108 113.5t51 146.5zM124 -211l70 161h-20l-70 -161h20z" />
    <glyph glyph-name="kcommaaccent" unicode="&#x137;" horiz-adv-x="316" 
d="M199 265l-123 -100l-32 -165h-20l138 712h20l-101 -521l102 83q60 48 90 97.5t43 116.5l3 12h20l-3 -12q-24 -126 -119 -208l57 -280h-21zM88 -210l69 161h-20l-69 -161h20z" />
    <glyph glyph-name="kgreenlandic" unicode="&#x138;" horiz-adv-x="316" 
d="M199 265l-123 -100l-32 -165h-20l97 500h20l-60 -309l102 83q60 48 90 97.5t43 116.5l3 12h20l-3 -12q-24 -126 -119 -208l57 -280h-21z" />
    <glyph glyph-name="Lacute" unicode="&#x139;" horiz-adv-x="322" 
d="M33 0l136 700h20l-133 -682h225l-3 -18h-245zM300 924l-106 -161h-20l106 161h20z" />
    <glyph glyph-name="lacute" unicode="&#x13a;" horiz-adv-x="172" 
d="M49 103l118 609h20l-118 -609q-9 -47 0.5 -66t39.5 -19h14l-3 -18h-12q-42 0 -56 24t-3 79zM296 924l-106 -161h-20l106 161h20z" />
    <glyph glyph-name="Lcommaaccent" unicode="&#x13b;" horiz-adv-x="322" 
d="M33 0l136 700h20l-133 -682h225l-3 -18h-245zM99 -210l69 161h-20l-69 -161h20z" />
    <glyph glyph-name="lcommaaccent" unicode="&#x13c;" horiz-adv-x="172" 
d="M49 103l118 609h20l-118 -609q-9 -47 0.5 -66t39.5 -19h14l-3 -18h-12q-42 0 -56 24t-3 79zM85 -49l-69 -161h-20l69 161h20z" />
    <glyph glyph-name="Lcaron" unicode="&#x13d;" horiz-adv-x="322" 
d="M33 0l136 700h20l-133 -682h225l-3 -18h-245zM367 712l-15 -78q-12 -57 -55 -70l5 23q22 10 30 47l15 78h20z" />
    <glyph glyph-name="lcaron" unicode="&#x13e;" horiz-adv-x="165" 
d="M49 103l118 609h20l-118 -609q-9 -47 0.5 -66t39.5 -19h14l-3 -18h-12q-42 0 -56 24t-3 79zM263 712l-15 -78q-12 -57 -55 -70l5 23q22 10 30 47l15 78h20z" />
    <glyph glyph-name="Ldot" unicode="&#x13f;" horiz-adv-x="322" 
d="M33 0l136 700h20l-133 -682h225l-3 -18h-245zM284 426l-18 -93h-20l18 93h20z" />
    <glyph glyph-name="ldot" unicode="&#x140;" horiz-adv-x="212" 
d="M49 103l118 609h20l-118 -609q-9 -47 0.5 -66t39.5 -19h14l-3 -18h-12q-42 0 -56 24t-3 79zM234 426l-18 -93h-20l18 93h20z" />
    <glyph glyph-name="Lslash" unicode="&#x141;" horiz-adv-x="322" 
d="M255 374l-141 -59l-58 -297h225l-3 -18h-245l59 306l-47 -19l4 21l47 19l73 373h20l-71 -364l141 58z" />
    <glyph glyph-name="lslash" unicode="&#x142;" horiz-adv-x="172" 
d="M194 381l-5 -21l-77 -32l-43 -225q-9 -47 0.5 -66t39.5 -19h14l-3 -18h-12q-42 0 -56 24t-3 79l42 216l-47 -19l4 21l47 19l72 372h20l-71 -363z" />
    <glyph glyph-name="Nacute" unicode="&#x143;" horiz-adv-x="434" 
d="M321 0l-142 653l-126 -653h-20l136 700h20l141 -653l127 653h20l-136 -700h-20zM427 924l-106 -161h-20l106 161h20z" />
    <glyph glyph-name="nacute" unicode="&#x144;" horiz-adv-x="343" 
d="M242 0l70 364q13 63 -6 96.5t-65 33.5q-76 0 -122 -106l-75 -388h-20l97 500h20l-12 -62q20 35 51 54.5t65 19.5q54 0 77.5 -38t10.5 -107l-71 -367h-20zM337 725l-106 -161h-20l106 161h20z" />
    <glyph glyph-name="Ncommaaccent" unicode="&#x145;" horiz-adv-x="434" 
d="M321 0l-142 653l-126 -653h-20l136 700h20l141 -653l127 653h20l-136 -700h-20zM142 -210l69 161h-20l-69 -161h20z" />
    <glyph glyph-name="ncommaaccent" unicode="&#x146;" horiz-adv-x="343" 
d="M242 0l70 364q13 63 -6 96.5t-65 33.5q-76 0 -122 -106l-75 -388h-20l97 500h20l-12 -62q20 35 51 54.5t65 19.5q54 0 77.5 -38t10.5 -107l-71 -367h-20zM86 -210l69 161h-20l-69 -161h20z" />
    <glyph glyph-name="Ncaron" unicode="&#x147;" horiz-adv-x="434" 
d="M321 0l-142 653l-126 -653h-20l136 700h20l141 -653l127 653h20l-136 -700h-20zM344 763h-18l-61 161h20l54 -141l108 141h20z" />
    <glyph glyph-name="ncaron" unicode="&#x148;" horiz-adv-x="343" 
d="M242 0l70 364q13 63 -6 96.5t-65 33.5q-76 0 -122 -106l-75 -388h-20l97 500h20l-12 -62q20 35 51 54.5t65 19.5q54 0 77.5 -38t10.5 -107l-71 -367h-20zM259 564h-18l-61 161h20l54 -141l108 141h20z" />
    <glyph glyph-name="napostrophe" unicode="&#x149;" horiz-adv-x="343" 
d="M242 0l70 364q13 63 -6 96.5t-65 33.5q-76 0 -122 -106l-75 -388h-20l97 500h20l-12 -62q20 35 51 54.5t65 19.5q54 0 77.5 -38t10.5 -107l-71 -367h-20zM175 712l-15 -78q-12 -57 -55 -70l5 23q22 10 30 47l15 78h20z" />
    <glyph glyph-name="Eng" unicode="&#x14a;" horiz-adv-x="434" 
d="M299 -109l22 109l-142 653l-126 -653h-20l136 700h20l141 -653l127 653h20l-158 -809q-10 -55 -33.5 -79t-65.5 -24h-16l4 18h18q30 0 47 19t26 66z" />
    <glyph glyph-name="eng" unicode="&#x14b;" horiz-adv-x="343" 
d="M220 -109l92 473q13 63 -6 96.5t-65 33.5q-76 0 -122 -106l-75 -388h-20l97 500h20l-12 -62q20 35 51 54.5t65 19.5q54 0 77.5 -38t10.5 -107l-93 -476q-10 -55 -33.5 -79t-65.5 -24h-11l4 18h13q30 0 47 19t26 66z" />
    <glyph glyph-name="Omacron" unicode="&#x14c;" horiz-adv-x="392" 
d="M51 188l63 324q20 100 69.5 150t120.5 50t101.5 -50t10.5 -150l-63 -324q-20 -100 -69.5 -150t-120.5 -50t-101.5 50t-10.5 150zM334 192l61 316q19 95 -7.5 140.5t-87.5 45.5q-130 0 -167 -186l-61 -316q-19 -95 7.5 -140.5t87.5 -45.5q130 0 167 186zM246 834l3 18h164
l-3 -18h-164z" />
    <glyph glyph-name="omacron" unicode="&#x14d;" horiz-adv-x="328" 
d="M307 358l-42 -216q-12 -64 -48 -100t-82 -36t-68 36t-10 100l42 216q12 64 48.5 100t82.5 36t67.5 -36t9.5 -100zM285 139l43 222q13 70 -13 110.5t-82 40.5t-98 -40.5t-55 -110.5l-43 -222q-14 -70 12 -110.5t82 -40.5t98 40.5t56 110.5zM175 635l3 18h164l-3 -18h-164z
" />
    <glyph glyph-name="Obreve" unicode="&#x14e;" horiz-adv-x="392" 
d="M51 188l63 324q20 100 69.5 150t120.5 50t101.5 -50t10.5 -150l-63 -324q-20 -100 -69.5 -150t-120.5 -50t-101.5 50t-10.5 150zM334 192l61 316q19 95 -7.5 140.5t-87.5 45.5q-130 0 -167 -186l-61 -316q-19 -95 7.5 -140.5t87.5 -45.5q130 0 167 186zM315 770
q-49 0 -69.5 33t-7.5 99l20 1q-21 -115 61 -115q81 0 105 115l20 -1q-13 -66 -46.5 -99t-82.5 -33z" />
    <glyph glyph-name="obreve" unicode="&#x14f;" horiz-adv-x="328" 
d="M307 358l-42 -216q-12 -64 -48 -100t-82 -36t-68 36t-10 100l42 216q12 64 48.5 100t82.5 36t67.5 -36t9.5 -100zM285 139l43 222q13 70 -13 110.5t-82 40.5t-98 -40.5t-55 -110.5l-43 -222q-14 -70 12 -110.5t82 -40.5t98 40.5t56 110.5zM245 573q-49 0 -69.5 33
t-7.5 99l20 1q-21 -115 60 -115q82 0 106 115l20 -1q-13 -66 -46.5 -99t-82.5 -33z" />
    <glyph glyph-name="Ohungarumlaut" unicode="&#x150;" horiz-adv-x="392" 
d="M51 188l63 324q20 100 69.5 150t120.5 50t101.5 -50t10.5 -150l-63 -324q-20 -100 -69.5 -150t-120.5 -50t-101.5 50t-10.5 150zM334 192l61 316q19 95 -7.5 140.5t-87.5 45.5q-130 0 -167 -186l-61 -316q-19 -95 7.5 -140.5t87.5 -45.5q130 0 167 186zM465 924
l-107 -161h-20l107 161h20zM373 924l-107 -161h-20l107 161h20z" />
    <glyph glyph-name="ohungarumlaut" unicode="&#x151;" horiz-adv-x="328" 
d="M265 142l42 216q12 64 -9.5 100t-67.5 36t-82.5 -36t-48.5 -100l-42 -216q-12 -64 10 -100t68 -36t82 36t48 100zM328 361l-43 -222q-14 -70 -56 -110.5t-98 -40.5t-82 40.5t-12 110.5l43 222q13 70 55 110.5t98 40.5t82 -40.5t13 -110.5zM398 725l-107 -161h-20l107 161
h20zM306 725l-107 -161h-20l107 161h20z" />
    <glyph glyph-name="OE" unicode="&#x152;" horiz-adv-x="580" 
d="M166 0q-71 0 -101.5 49.5t-11.5 149.5l59 301q19 100 69 150t121 50h352l-4 -18h-225l-61 -312h193l-3 -18h-193l-65 -334h225l-3 -18h-352zM169 18h107l129 664h-107q-130 0 -167 -186l-57 -293q-36 -185 95 -185z" />
    <glyph glyph-name="oe" unicode="&#x153;" horiz-adv-x="556" 
d="M263 78q-18 -42 -54 -66t-78 -24q-56 0 -82 40.5t-12 110.5l43 222q13 70 55 110.5t98 40.5q41 0 68.5 -24t28.5 -66q18 42 54 66t77 24q56 0 82 -40.5t13 -110.5l-23 -116h-228l-20 -103q-13 -66 9 -101t68 -35q40 0 74 31t51 92l19 -2q-18 -67 -57.5 -103t-90.5 -36
q-41 0 -67.5 24t-27.5 66zM517 263l18 95q12 64 -9.5 100t-67.5 36t-82.5 -36t-48.5 -100l-18 -95h208zM265 142l42 216q12 64 -9.5 100t-67.5 36t-82.5 -36t-48.5 -100l-42 -216q-12 -64 10 -100t68 -36t82 36t48 100z" />
    <glyph glyph-name="Racute" unicode="&#x154;" horiz-adv-x="381" 
d="M201 318h-87l-61 -318h-20l136 700h107q84 0 118.5 -48t15.5 -143q-27 -145 -137 -181l48 -328h-21l-47 323q-27 -5 -52 -5zM185 682l-67 -346h84q155 0 188 173q34 173 -121 173h-84zM386 924l-106 -161h-20l106 161h20z" />
    <glyph glyph-name="racute" unicode="&#x155;" horiz-adv-x="225" 
d="M120 394l-76 -394h-20l97 500h20l-14 -69q49 76 121 76q20 0 32 -6l-4 -19q-12 7 -31 7q-71 0 -125 -95zM290 725l-106 -161h-20l106 161h20z" />
    <glyph glyph-name="Rcommaaccent" unicode="&#x156;" horiz-adv-x="381" 
d="M201 318h-87l-61 -318h-20l136 700h107q84 0 118.5 -48t15.5 -143q-27 -145 -137 -181l48 -328h-21l-47 323q-27 -5 -52 -5zM185 682l-67 -346h84q155 0 188 173q34 173 -121 173h-84zM178 -49l-69 -161h-20l69 161h20z" />
    <glyph glyph-name="rcommaaccent" unicode="&#x157;" horiz-adv-x="225" 
d="M120 394l-76 -394h-20l97 500h20l-14 -69q49 76 121 76q20 0 32 -6l-4 -19q-12 7 -31 7q-71 0 -125 -95zM-15 -210l69 161h-20l-68 -161h19z" />
    <glyph glyph-name="Rcaron" unicode="&#x158;" horiz-adv-x="382" 
d="M115 318h87q25 0 52 5l47 -323h21l-48 328q110 36 137 181q19 95 -15.5 143t-118.5 48h-107l-136 -700h20zM119 336l67 346h84q155 0 121 -173q-33 -173 -188 -173h-84zM304 763h-18l-61 161h20l54 -141l108 141h20z" />
    <glyph glyph-name="rcaron" unicode="&#x159;" horiz-adv-x="225" 
d="M120 394l-76 -394h-20l97 500h20l-14 -69q49 76 121 76q20 0 32 -6l-4 -19q-12 7 -31 7q-71 0 -125 -95zM214 564h-18l-61 161h20l54 -141l108 141h20z" />
    <glyph glyph-name="Sacute" unicode="&#x15a;" horiz-adv-x="362" 
d="M40 157l3 14l20 1l-2 -12q-15 -73 10 -113.5t83 -40.5q57 0 97.5 40t55.5 114l3 20q14 70 -4.5 106t-78.5 60l-30 12q-60 25 -81 63t-6 116l3 16q14 73 57 116.5t110 43.5t93 -43.5t12 -116.5l-3 -17l-21 -1l3 15q14 68 -8 106.5t-79 38.5t-94 -38.5t-51 -106.5l-2 -11
q-13 -70 5.5 -106t78.5 -60l30 -12q60 -25 81 -63t6 -116l-5 -25q-15 -77 -62 -123t-114 -46t-96 46t-14 123zM378 924l-106 -161h-20l106 161h20z" />
    <glyph glyph-name="sacute" unicode="&#x15b;" horiz-adv-x="297" 
d="M59 125l-4 -20q-9 -46 9.5 -72.5t59.5 -26.5t69.5 26.5t37.5 72.5l3 16q11 57 -1 83t-55 41l-29 10q-46 16 -60 47t-2 94l1 4q10 52 45 82t82 30t70 -30t13 -82l-2 -13l-20 -1l2 14q9 44 -9.5 69t-56.5 25t-66.5 -25t-37.5 -69l-1 -6q-11 -57 1 -82.5t55 -40.5l29 -10
q46 -16 60 -47.5t2 -94.5l-3 -14q-10 -52 -44.5 -84.5t-87.5 -32.5q-52 0 -73 32.5t-11 84.5l4 19zM306 725l-106 -161h-20l106 161h20z" />
    <glyph glyph-name="Scircumflex" unicode="&#x15c;" horiz-adv-x="362" 
d="M40 157l3 14l20 1l-2 -12q-15 -73 10 -113.5t83 -40.5q57 0 97.5 40t55.5 114l3 20q14 70 -4.5 106t-78.5 60l-30 12q-60 25 -81 63t-6 116l3 16q14 73 57 116.5t110 43.5t93 -43.5t12 -116.5l-3 -17l-21 -1l3 15q14 68 -8 106.5t-79 38.5t-94 -38.5t-51 -106.5l-2 -11
q-13 -70 5.5 -106t78.5 -60l30 -12q60 -25 81 -63t6 -116l-5 -25q-15 -77 -62 -123t-114 -46t-96 46t-14 123zM311 924h18l61 -161h-20l-54 141l-108 -141h-20z" />
    <glyph glyph-name="scircumflex" unicode="&#x15d;" horiz-adv-x="297" 
d="M59 125l-4 -20q-9 -46 9.5 -72.5t59.5 -26.5t69.5 26.5t37.5 72.5l3 16q11 57 -1 83t-55 41l-29 10q-46 16 -60 47t-2 94l1 4q10 52 45 82t82 30t70 -30t13 -82l-2 -13l-20 -1l2 14q9 44 -9.5 69t-56.5 25t-66.5 -25t-37.5 -69l-1 -6q-11 -57 1 -82.5t55 -40.5l29 -10
q46 -16 60 -47.5t2 -94.5l-3 -14q-10 -52 -44.5 -84.5t-87.5 -32.5q-52 0 -73 32.5t-11 84.5l4 19zM241 725h18l61 -161h-20l-53 141l-109 -141h-20z" />
    <glyph glyph-name="Scedilla" unicode="&#x15e;" horiz-adv-x="362" 
d="M40 -214l16 16q19 -22 52 -22q63 0 74 58l1 4q5 27 -10 47.5t-51 29.5l-5 7l30 62q-66 1 -93.5 47t-13.5 122l3 14l20 1l-2 -12q-15 -73 10 -113.5t83 -40.5q57 0 97.5 40t55.5 114l3 20q14 70 -4.5 106t-78.5 60l-30 12q-60 25 -81 63t-6 116l3 16q14 73 57 116.5
t110 43.5t93 -43.5t12 -116.5l-3 -17l-21 -1l3 15q14 68 -8 106.5t-79 38.5t-94 -38.5t-51 -106.5l-2 -11q-13 -70 5.5 -106t78.5 -60l30 -12q60 -25 81 -63t6 -116l-5 -25q-14 -72 -56.5 -117.5t-103.5 -50.5l-27 -57q37 -10 53.5 -34.5t10.5 -53.5l-1 -7q-7 -33 -33 -54
t-64 -21q-43 0 -65 24z" />
    <glyph glyph-name="scedilla" unicode="&#x15f;" horiz-adv-x="298" 
d="M60 125l-4 -20q-9 -46 9.5 -72.5t59.5 -26.5t69.5 26.5t37.5 72.5l3 16q11 57 -1 83t-55 41l-29 10q-46 16 -60 47t-2 94l1 4q10 52 45 82t82 30t70 -30t13 -82l-2 -13l-20 -1l2 14q9 44 -9.5 69t-56.5 25t-66.5 -25t-37.5 -69l-1 -6q-11 -57 1 -82.5t55 -40.5l29 -10
q46 -16 60 -47.5t2 -94.5l-3 -14q-9 -47 -38 -78t-73 -37l-29 -58q37 -10 53.5 -34.5t10.5 -53.5l-1 -7q-7 -33 -33 -54t-64 -21q-42 0 -65 24l16 16q19 -22 52 -22q63 0 74 58l1 4q5 27 -10 47.5t-51 29.5l-5 7l29 62q-51 0 -72 32.5t-11 84.5l4 19z" />
    <glyph glyph-name="Scaron" unicode="&#x160;" horiz-adv-x="362" 
d="M43 171l-3 -14q-15 -77 14 -123t96 -46t114 46t62 123l5 25q15 78 -6 116t-81 63l-30 12q-60 24 -78.5 60t-5.5 106l2 11q14 68 51 106.5t94 38.5t79 -38.5t8 -106.5l-3 -15l21 1l3 17q14 73 -12 116.5t-93 43.5t-110 -43.5t-57 -116.5l-3 -16q-15 -78 6 -116t81 -63
l30 -12q60 -24 78.5 -60t4.5 -106l-3 -20q-15 -74 -55.5 -114t-97.5 -40q-58 0 -83 40.5t-10 113.5l2 12zM298 763h-18l-61 161h20l54 -141l108 141h20z" />
    <glyph glyph-name="scaron" unicode="&#x161;" horiz-adv-x="297" 
d="M55 105l4 20l-20 -1l-4 -19q-10 -52 11 -84.5t73 -32.5q53 0 87.5 32.5t44.5 84.5l3 14q12 63 -2 94.5t-60 47.5l-29 10q-43 15 -55 40.5t-1 82.5l1 6q9 44 37.5 69t66.5 25t56.5 -25t9.5 -69l-2 -14l20 1l2 13q10 52 -13 82t-70 30t-82 -30t-45 -82l-1 -4q-12 -63 2 -94
t60 -47l29 -10q43 -15 55 -41t1 -83l-3 -16q-9 -46 -37.5 -72.5t-69.5 -26.5t-59.5 26.5t-9.5 72.5zM228 564h-18l-61 161h20l54 -141l108 141h20z" />
    <glyph glyph-name="Tcommaaccent" unicode="&#x162;" horiz-adv-x="322" 
d="M8 -214l16 16q19 -22 52 -22q63 0 74 58l1 4q5 27 -10 47.5t-51 29.5l-5 7l37 74h-1l132 682h-137l4 18h294l-4 -18h-137l-132 -682l-34 -68q37 -10 53.5 -34.5t10.5 -53.5l-1 -7q-7 -33 -33 -54t-64 -21q-43 0 -65 24z" />
    <glyph glyph-name="tcommaaccent" unicode="&#x163;" horiz-adv-x="213" 
d="M-25 -214l16 16q19 -22 52 -22q63 0 74 58l1 4q5 27 -10 47.5t-51 29.5l-5 7l38 78q-43 16 -25 99l73 379h-57l4 18h57l27 142h20l-27 -142h89l-4 -18h-89l-73 -379q-9 -47 0.5 -66t39.5 -19h34l-3 -18h-32q-11 0 -16 1l-34 -69q37 -10 53.5 -34.5t10.5 -53.5l-1 -7
q-7 -33 -33 -54t-64 -21q-43 0 -65 24z" />
    <glyph glyph-name="Tcaron" unicode="&#x164;" horiz-adv-x="322" 
d="M116 682l4 18h294l-4 -18h-137l-132 -682h-20l132 682h-137zM288 763h-18l-61 161h20l54 -141l108 141h20z" />
    <glyph glyph-name="tcaron" unicode="&#x165;" horiz-adv-x="240" 
d="M65 103l73 379h-57l4 18h57l27 142h20l-27 -142h89l-4 -18h-89l-73 -379q-9 -47 0.5 -66t39.5 -19h34l-3 -18h-32q-42 0 -56 24t-3 79zM338 712l-15 -78q-12 -57 -55 -70l5 23q22 10 30 47l15 78h20z" />
    <glyph glyph-name="Tbar" unicode="&#x166;" horiz-adv-x="322" 
d="M116 682l4 18h294l-4 -18h-137l-61 -316h87l-4 -18h-87l-67 -348h-20l67 348h-87l4 18h87l61 316h-137z" />
    <glyph glyph-name="tbar" unicode="&#x167;" horiz-adv-x="213" 
d="M95 262h-49l4 18h49l39 202h-57l4 18h57l27 142h20l-27 -142h89l-4 -18h-89l-39 -202h77l-4 -18h-77l-30 -159q-9 -47 0.5 -66t39.5 -19h34l-3 -18h-32q-42 0 -56 24t-3 79z" />
    <glyph glyph-name="Utilde" unicode="&#x168;" horiz-adv-x="404" 
d="M336 192l99 508h20l-100 -512q-20 -100 -69 -150t-117 -50t-98 50t-10 150l100 512h20l-99 -508q-19 -95 6.5 -140.5t84.5 -45.5t101.5 45.5t61.5 140.5zM344 849q20 -28 39 -28q27 0 44 56l20 -2q-21 -72 -68 -72q-27 0 -51 32q-22 28 -40 28q-27 0 -44 -56l-19 2
q20 72 68 72q15 0 25.5 -6.5t25.5 -25.5z" />
    <glyph glyph-name="utilde" unicode="&#x169;" horiz-adv-x="343" 
d="M138 500l-71 -364q-13 -63 6.5 -96.5t65.5 -33.5q75 0 121 106l76 388h20l-97 -500h-20l12 62q-20 -35 -51.5 -54.5t-65.5 -19.5q-54 0 -77.5 38t-10.5 107l72 367h20zM273 650q14 -18 21.5 -23t17.5 -5q28 0 44 56l20 -2q-21 -72 -68 -72q-27 0 -51 32q-14 18 -21.5 23
t-17.5 5q-28 0 -44 -56l-20 2q21 72 68 72q27 0 51 -32z" />
    <glyph glyph-name="Umacron" unicode="&#x16a;" horiz-adv-x="404" 
d="M336 192l99 508h20l-100 -512q-20 -100 -69 -150t-117 -50t-98 50t-10 150l100 512h20l-99 -508q-19 -95 6.5 -140.5t84.5 -45.5t101.5 45.5t61.5 140.5zM252 834l3 18h164l-3 -18h-164z" />
    <glyph glyph-name="umacron" unicode="&#x16b;" horiz-adv-x="343" 
d="M138 500l-71 -364q-13 -63 6.5 -96.5t65.5 -33.5q75 0 121 106l76 388h20l-97 -500h-20l12 62q-20 -35 -51.5 -54.5t-65.5 -19.5q-54 0 -77.5 38t-10.5 107l72 367h20zM181 635l3 18h164l-3 -18h-164z" />
    <glyph glyph-name="Ubreve" unicode="&#x16c;" horiz-adv-x="404" 
d="M336 192l99 508h20l-100 -512q-20 -100 -69 -150t-117 -50t-98 50t-10 150l100 512h20l-99 -508q-19 -95 6.5 -140.5t84.5 -45.5t101.5 45.5t61.5 140.5zM321 770q-49 0 -69.5 33t-7.5 99l20 1q-21 -115 61 -115q81 0 105 115l20 -1q-13 -66 -46.5 -99t-82.5 -33z" />
    <glyph glyph-name="ubreve" unicode="&#x16d;" horiz-adv-x="343" 
d="M138 500l-71 -364q-13 -63 6.5 -96.5t65.5 -33.5q75 0 121 106l76 388h20l-97 -500h-20l12 62q-20 -35 -51.5 -54.5t-65.5 -19.5q-54 0 -77.5 38t-10.5 107l72 367h20zM251 573q-49 0 -69.5 33t-7.5 99l20 1q-21 -115 60 -115q82 0 106 115l20 -1q-13 -66 -46.5 -99
t-82.5 -33z" />
    <glyph glyph-name="Uring" unicode="&#x16e;" horiz-adv-x="404" 
d="M336 192l99 508h20l-100 -512q-20 -100 -69 -150t-117 -50t-98 50t-10 150l100 512h20l-99 -508q-19 -95 6.5 -140.5t84.5 -45.5t101.5 45.5t61.5 140.5zM276 843q-5 -27 9.5 -44t38.5 -17t44.5 16.5t25.5 44.5q6 27 -8.5 44t-38.5 17t-44.5 -16.5t-26.5 -44.5zM256 843
q7 35 34.5 57t60.5 22t51.5 -22t11.5 -57t-34 -57t-60 -22t-52 22t-12 57z" />
    <glyph glyph-name="uring" unicode="&#x16f;" horiz-adv-x="343" 
d="M138 500l-71 -364q-13 -63 6.5 -96.5t65.5 -33.5q75 0 121 106l76 388h20l-97 -500h-20l12 62q-20 -35 -51.5 -54.5t-65.5 -19.5q-54 0 -77.5 38t-10.5 107l72 367h20zM206 644q-6 -27 8.5 -44t38.5 -17t44.5 16.5t26.5 44.5q5 28 -9 44.5t-38 16.5t-45 -17t-26 -44z
M186 644q7 35 34 57t60 22t52 -22t12 -57t-34.5 -57t-60.5 -22t-51.5 22t-11.5 57z" />
    <glyph glyph-name="Uhungarumlaut" unicode="&#x170;" horiz-adv-x="404" 
d="M336 192l99 508h20l-100 -512q-20 -100 -69 -150t-117 -50t-98 50t-10 150l100 512h20l-99 -508q-19 -95 6.5 -140.5t84.5 -45.5t101.5 45.5t61.5 140.5zM471 924l-107 -161h-20l107 161h20zM379 924l-107 -161h-20l107 161h20z" />
    <glyph glyph-name="uhungarumlaut" unicode="&#x171;" horiz-adv-x="343" 
d="M138 500l-71 -364q-13 -63 6.5 -96.5t65.5 -33.5q75 0 121 106l76 388h20l-97 -500h-20l12 62q-20 -35 -51.5 -54.5t-65.5 -19.5q-54 0 -77.5 38t-10.5 107l72 367h20zM403 725l-107 -161h-20l107 161h20zM311 725l-107 -161h-20l107 161h20z" />
    <glyph glyph-name="Uogonek" unicode="&#x172;" horiz-adv-x="404" 
d="M336 191l99 509h20l-100 -513q-33 -171 -150 -196q-67 -55 -81 -120l-1 -6q-6 -30 7.5 -48t39.5 -18q38 0 65 26l12 -14q-33 -30 -80 -30q-36 0 -53.5 23.5t-10.5 60.5l1 6q13 65 74 116h-9q-68 0 -98 50t-10 150l100 513h20l-99 -509q-19 -95 6 -140.5t84 -45.5
t102 45.5t62 140.5z" />
    <glyph glyph-name="uogonek" unicode="&#x173;" horiz-adv-x="343" 
d="M356 500l-97 -500q-79 -60 -93 -129l-1 -6q-6 -30 7.5 -48t39.5 -18q38 0 65 26l12 -14q-33 -30 -80 -30q-36 0 -53.5 23.5t-10.5 60.5l1 6q14 73 93 131l12 60q-20 -35 -51.5 -54.5t-65.5 -19.5q-54 0 -77.5 38t-10.5 107l72 367h20l-71 -364q-13 -63 6.5 -96.5
t65.5 -33.5q75 0 121 106l76 388h20z" />
    <glyph glyph-name="Wcircumflex" unicode="&#x174;" horiz-adv-x="614" 
d="M403 700h20l2 -654l258 654h21l-277 -700h-20l-3 658l-257 -658h-20l-5 700h21l2 -654zM447 924h18l61 -161h-20l-54 141l-108 -141h-20z" />
    <glyph glyph-name="wcircumflex" unicode="&#x175;" horiz-adv-x="542" 
d="M330 460l-201 -460h-20l-26 500h21l23 -454l201 454h20l23 -454l201 454h21l-220 -500h-20zM372 725h18l61 -161h-20l-53 141l-109 -141h-20z" />
    <glyph glyph-name="Ycircumflex" unicode="&#x176;" horiz-adv-x="326" 
d="M143 0h-20l64 330l-68 370h20l63 -343l197 343h20l-212 -370zM303 924h18l61 -161h-20l-54 141l-108 -141h-20z" />
    <glyph glyph-name="ycircumflex" unicode="&#x177;" horiz-adv-x="302" 
d="M46 -143l64 143l-28 500h21l25 -458l205 458h21l-287 -643q-20 -43 -34 -55.5t-42 -12.5h-7l4 18h9q15 0 24.5 9.5t24.5 40.5zM252 725h18l61 -161h-20l-53 141l-109 -141h-20z" />
    <glyph glyph-name="Ydieresis" unicode="&#x178;" horiz-adv-x="326" 
d="M143 0h-20l64 330l-68 370h20l63 -343l197 343h20l-212 -370zM246 890l-18 -93h-20l18 93h20zM384 890l-18 -93h-20l18 93h20z" />
    <glyph glyph-name="Zacute" unicode="&#x179;" horiz-adv-x="326" 
d="M9 17l361 665h-224l4 18h246l-4 -17l-361 -665h232l-3 -18h-254zM383 924l-106 -161h-20l106 161h20z" />
    <glyph glyph-name="zacute" unicode="&#x17a;" horiz-adv-x="300" 
d="M327 500l-4 -17l-297 -465h215l-3 -18h-236l3 17l297 465h-198l4 18h219zM328 725l-106 -161h-20l106 161h20z" />
    <glyph glyph-name="Zdotaccent" unicode="&#x17b;" horiz-adv-x="326" 
d="M9 17l361 665h-224l4 18h246l-4 -17l-361 -665h232l-3 -18h-254zM322 890l-18 -93h-20l18 93h20z" />
    <glyph glyph-name="zdotaccent" unicode="&#x17c;" horiz-adv-x="300" 
d="M327 500l-4 -17l-297 -465h215l-3 -18h-236l3 17l297 465h-198l4 18h219zM268 691l-18 -93h-20l18 93h20z" />
    <glyph glyph-name="Zcaron" unicode="&#x17d;" horiz-adv-x="326" 
d="M9 17l361 665h-224l4 18h246l-4 -17l-361 -665h232l-3 -18h-254zM297 763h-18l-61 161h20l54 -141l108 141h20z" />
    <glyph glyph-name="zcaron" unicode="&#x17e;" horiz-adv-x="300" 
d="M327 500l-4 -17l-297 -465h215l-3 -18h-236l3 17l297 465h-198l4 18h219zM242 564h-18l-61 161h20l54 -141l108 141h20z" />
    <glyph glyph-name="longs" unicode="&#x17f;" horiz-adv-x="200" 
d="M149 500l21 109q10 55 33.5 79t65.5 24h19l-4 -18h-21q-30 0 -46.5 -18.5t-26.5 -66.5l-118 -609h-20l93 482h-57l4 18h57z" />
    <glyph glyph-name="uni0191" unicode="&#x191;" horiz-adv-x="335" 
d="M16 -109l158 809h245l-4 -18h-225l-63 -323h201l-3 -18h-201l-88 -450q-10 -55 -33.5 -79t-64.5 -24h-16l4 18h18q30 0 46.5 19t25.5 66z" />
    <glyph glyph-name="florin" unicode="&#x192;" horiz-adv-x="200" 
d="M167 482l-115 -591q-10 -55 -33.5 -79t-64.5 -24h-17l4 18h19q30 0 46.5 19t25.5 66l115 591h-57l4 18h57l21 109q10 55 33.5 79t65.5 24h17l-4 -18h-19q-30 0 -46.5 -18.5t-26.5 -66.5l-21 -109h76l-4 -18h-76z" />
    <glyph glyph-name="Aringacute" unicode="&#x1fa;" horiz-adv-x="424" 
d="M217 761q7 35 34.5 57t60.5 22t51.5 -22t11.5 -57q-6 -31 -28.5 -52t-51.5 -26l23 -683h-20l-7 197h-209l-82 -197h-20l287 683q-28 5 -42 25.5t-8 52.5zM277 660l-188 -445h201zM384 958l-63 -98h-20l63 98h20zM237 761q-5 -27 9.5 -44t38.5 -17t44.5 16.5t25.5 44.5
q6 27 -8.5 44t-38.5 17t-44.5 -16.5t-26.5 -44.5z" />
    <glyph glyph-name="aringacute" unicode="&#x1fb;" horiz-adv-x="336" 
d="M120 5q77 0 132 87l32 165h-96q-53 0 -89 -32.5t-47 -90.5l-5 -21q-20 -108 73 -108zM120 400l-20 1q45 111 140 111q52 0 76.5 -35t10.5 -105l-72 -372h-20l11 59q-54 -71 -132 -71q-50 0 -74.5 31t-12.5 94l5 21q13 68 56 104.5t109 36.5h91l19 96q24 123 -70 123
q-77 0 -117 -94zM209 644q-6 -27 8.5 -44t38.5 -17t44.5 16.5t26.5 44.5q5 28 -9 44.5t-38 16.5t-45 -17t-26 -44zM189 644q7 35 34 57t60 22t52 -22t12 -57t-34.5 -57t-60.5 -22t-51.5 22t-11.5 57zM355 841l-63 -98h-20l63 98h20z" />
    <glyph glyph-name="AEacute" unicode="&#x1fc;" horiz-adv-x="537" 
d="M230 0l38 197h-173l-108 -197h-22l386 700h260l-4 -18h-225l-61 -312h193l-3 -18h-193l-65 -334h225l-3 -18h-245zM105 215h166l91 465zM569 924l-106 -161h-20l106 161h20z" />
    <glyph glyph-name="aeacute" unicode="&#x1fd;" horiz-adv-x="553" 
d="M51 131l-4 -18q-20 -108 73 -108q79 0 137 98q2 24 5 36l22 118h-93q-53 0 -91 -34t-49 -92zM455 494q-46 0 -82.5 -36t-48.5 -100l-18 -95h208l18 95q12 64 -9.5 100t-67.5 36zM27 113l4 18q13 68 58 106t111 38h88l19 96q24 123 -70 123q-81 0 -118 -102l-21 1
q42 119 142 119q39 0 64 -20.5t26 -61.5q42 82 128 82q56 0 82 -40.5t13 -110.5l-23 -116h-228l-20 -103q-13 -66 9 -101t68 -35q40 0 74 31t51 92l19 -2q-18 -67 -57.5 -103t-90.5 -36q-41 0 -67 22t-30 64q-24 -38 -62 -62t-82 -24q-50 0 -74.5 31t-12.5 94zM461 725
l-106 -161h-20l106 161h20z" />
    <glyph glyph-name="Oslashacute" unicode="&#x1fe;" horiz-adv-x="392" 
d="M51 188l63 324q20 100 69.5 150t120.5 50q66 0 96 -44l37 64h20l-46 -82q22 -55 5 -138l-63 -324q-20 -100 -69.5 -150t-120.5 -50q-68 0 -97 44l-36 -65h-20l46 83q-23 49 -5 138zM72 192q-14 -72 -2 -117l319 571q-25 48 -89 48q-130 0 -167 -186zM334 192l61 316
q14 68 2 117l-319 -572q23 -47 89 -47q130 0 167 186zM403 924l-106 -161h-20l106 161h20z" />
    <glyph glyph-name="oslashacute" unicode="&#x1ff;" horiz-adv-x="328" 
d="M33 -38h-20l36 66q-27 41 -12 111l43 222q13 70 55 110.5t98 40.5q43 0 69 -26l29 52h20l-37 -66q27 -42 14 -111l-43 -222q-14 -70 -56 -110.5t-98 -40.5q-43 0 -70 25zM265 142l42 216q10 53 -5 91l-230 -416q21 -27 63 -27q46 0 82 36t48 100zM230 494
q-46 0 -82.5 -36t-48.5 -100l-42 -216q-10 -56 4 -91l230 415q-22 28 -61 28zM333 725l-106 -161h-20l106 161h20z" />
    <glyph glyph-name="Scommaaccent" unicode="&#x218;" horiz-adv-x="362" 
d="M40 157l3 14l20 1l-2 -12q-15 -73 10 -113.5t83 -40.5q57 0 97.5 40t55.5 114l3 20q14 70 -4.5 106t-78.5 60l-30 12q-60 25 -81 63t-6 116l3 16q14 73 57 116.5t110 43.5t93 -43.5t12 -116.5l-3 -17l-21 -1l3 15q14 68 -8 106.5t-79 38.5t-94 -38.5t-51 -106.5l-2 -11
q-13 -70 5.5 -106t78.5 -60l30 -12q60 -25 81 -63t6 -116l-5 -25q-15 -77 -62 -123t-114 -46t-96 46t-14 123zM173 -49l-69 -161h-20l69 161h20z" />
    <glyph glyph-name="scommaaccent" unicode="&#x219;" horiz-adv-x="297" 
d="M59 125l-4 -20q-9 -46 9.5 -72.5t59.5 -26.5t69.5 26.5t37.5 72.5l3 16q11 57 -1 83t-55 41l-29 10q-46 16 -60 47t-2 94l1 4q10 52 45 82t82 30t70 -30t13 -82l-2 -13l-20 -1l2 14q9 44 -9.5 69t-56.5 25t-66.5 -25t-37.5 -69l-1 -6q-11 -57 1 -82.5t55 -40.5l29 -10
q46 -16 60 -47.5t2 -94.5l-3 -14q-10 -52 -44.5 -84.5t-87.5 -32.5q-52 0 -73 32.5t-11 84.5l4 19zM143 -49l-69 -161h-20l69 161h20z" />
    <glyph glyph-name="uni021A" unicode="&#x21a;" horiz-adv-x="322" 
d="M116 682l4 18h294l-4 -18h-137l-132 -682h-20l132 682h-137zM76 -210l69 161h-20l-69 -161h20z" />
    <glyph glyph-name="uni021B" unicode="&#x21b;" horiz-adv-x="213" 
d="M65 103l73 379h-57l4 18h57l27 142h20l-27 -142h89l-4 -18h-89l-73 -379q-9 -47 0.5 -66t39.5 -19h34l-3 -18h-32q-42 0 -56 24t-3 79zM115 -49l-69 -161h-20l69 161h20z" />
    <glyph glyph-name="dotlessj" unicode="&#x237;" horiz-adv-x="136" 
d="M1 -109l119 609h20l-119 -609q-10 -55 -33.5 -79t-64.5 -24h-11l4 18h13q30 0 46.5 18.5t25.5 66.5z" />
    <glyph glyph-name="apostrophe" unicode="&#x2bc;" horiz-adv-x="230" 
d="M236 730l-15 -78q-10 -56 -54 -70l4 23q24 10 30 47l15 78h20z" />
    <glyph glyph-name="circumflex" unicode="&#x2c6;" horiz-adv-x="230" 
d="M217 730h18l61 -161h-20l-53 141l-109 -141h-20z" />
    <glyph glyph-name="caron" unicode="&#x2c7;" horiz-adv-x="230" 
d="M204 569h-18l-61 161h20l54 -141l108 141h20z" />
    <glyph glyph-name="uni02C9" unicode="&#x2c9;" horiz-adv-x="230" 
d="M127 639l3 18h164l-3 -18h-164z" />
    <glyph glyph-name="breve" unicode="&#x2d8;" horiz-adv-x="230" 
d="M197 578q-49 0 -69.5 33t-7.5 99l20 1q-21 -115 60 -115q82 0 106 115l20 -1q-13 -66 -46.5 -99t-82.5 -33z" />
    <glyph glyph-name="dotaccent" unicode="&#x2d9;" horiz-adv-x="230" 
d="M230 696l-18 -93h-20l18 93h20z" />
    <glyph glyph-name="ring" unicode="&#x2da;" horiz-adv-x="230" 
d="M152 649q-6 -27 8.5 -44t38.5 -17t44.5 16.5t26.5 44.5q5 28 -9 44.5t-38 16.5t-45 -17t-26 -44zM132 649q7 35 34 57t60 22t52 -22t12 -57t-34.5 -57t-60.5 -22t-51.5 22t-11.5 57z" />
    <glyph glyph-name="ogonek" unicode="&#x2db;" horiz-adv-x="230" 
d="M73 0h22q-79 -60 -93 -129l-1 -6q-6 -30 7.5 -48t39.5 -18q38 0 65 26l12 -14q-33 -30 -80 -30q-36 0 -53.5 23.5t-10.5 60.5l1 6q14 73 91 129z" />
    <glyph glyph-name="tilde" unicode="&#x2dc;" horiz-adv-x="230" 
d="M219 656q22 -28 40 -28q27 0 43 56l20 -2q-20 -72 -68 -72q-27 0 -51 32q-14 18 -21.5 23t-17.5 5q-27 0 -44 -56l-20 2q21 72 68 72q27 0 51 -32z" />
    <glyph glyph-name="hungarumlaut" unicode="&#x2dd;" horiz-adv-x="230" 
d="M320 730l-107 -161h-20l107 161h20zM228 730l-107 -161h-20l107 161h20z" />
    <glyph glyph-name="gravecomb" unicode="&#x300;" horiz-adv-x="0" 
d="M-65 569l-44 161h20l44 -161h-20z" />
    <glyph glyph-name="acutecomb" unicode="&#x301;" horiz-adv-x="0" 
d="M-15 730l-105 -161h-20l106 161h19z" />
    <glyph glyph-name="uni0302" unicode="&#x302;" horiz-adv-x="0" 
d="M-70 730h18l60 -161h-20l-52 141l-109 -141h-20z" />
    <glyph glyph-name="tildecomb" unicode="&#x303;" horiz-adv-x="0" 
d="M-69 656q22 -28 39 -28q27 0 43 56l20 -2q-20 -72 -67 -72q-27 0 -51 32q-14 18 -21.5 23t-17.5 5q-27 0 -44 -56l-20 2q21 72 68 72q27 0 51 -32z" />
    <glyph glyph-name="uni0304" unicode="&#x304;" horiz-adv-x="0" 
d="M-160 640l3 18h163l-3 -18h-163z" />
    <glyph glyph-name="uni0306" unicode="&#x306;" horiz-adv-x="0" 
d="M-90 578q-49 0 -69.5 33t-7.5 99l20 1q-21 -115 60 -115t105 115l20 -1q-13 -66 -46.5 -99t-81.5 -33z" />
    <glyph glyph-name="uni0307" unicode="&#x307;" horiz-adv-x="0" 
d="M-57 696l-18 -93h-20l18 93h20z" />
    <glyph glyph-name="uni0308" unicode="&#x308;" horiz-adv-x="0" 
d="M-126 696l-18 -93h-20l18 93h20zM11 696l-18 -93h-20l18 93h20z" />
    <glyph glyph-name="uni030A" unicode="&#x30a;" horiz-adv-x="0" 
d="M-135 649q-6 -27 8.5 -44t38.5 -17t44 16.5t26 44.5q5 28 -8.5 44.5t-37.5 16.5t-45 -17t-26 -44zM-155 649q7 35 34 57t60 22q32 0 51 -22t12 -57t-34 -57t-60 -22t-51.5 22t-11.5 57z" />
    <glyph glyph-name="uni030C" unicode="&#x30c;" horiz-adv-x="0" 
d="M-83 569h-18l-61 161h20l54 -141l107 141h20z" />
    <glyph glyph-name="uni0327" unicode="&#x327;" horiz-adv-x="0" 
d="M-320 -214l16 16q19 -22 52 -22q63 0 74 58l1 4q5 27 -10 47.5t-51 29.5l-5 7l36 74h19l-33 -68q37 -10 53.5 -34.5t10.5 -53.5l-1 -7q-7 -33 -33 -54t-64 -21q-43 0 -65 24z" />
    <glyph glyph-name="uni03A9" unicode="&#x3a9;" horiz-adv-x="392" 
d="M226 712q71 0 111 -50t40 -150v-298q0 -62 -11.5 -103.5t-28 -60.5t-42.5 -32h77v-18h-122v14q58 23 82.5 67t24.5 141v286q0 95 -35 140.5t-96 45.5t-96 -45.5t-35 -140.5v-286q0 -97 24.5 -141t82.5 -67v-14h-122v18h77q-26 13 -42.5 32t-28 60.5t-11.5 103.5v298
q0 100 40 150t111 50z" />
    <glyph glyph-name="uni0400" unicode="&#x400;" horiz-adv-x="345" 
d="M33 0l136 700h250l-4 -18h-230l-60 -311h198l-4 -18h-198l-65 -335h230l-3 -18h-250zM315 763l-44 161h20l44 -161h-20z" />
    <glyph glyph-name="afii10023" unicode="&#x401;" horiz-adv-x="345" 
d="M33 0l136 700h250l-4 -18h-230l-60 -311h198l-4 -18h-198l-65 -335h230l-3 -18h-250zM267 890l-18 -93h-20l18 93h20zM405 890l-18 -93h-20l18 93h20z" />
    <glyph glyph-name="afii10051" unicode="&#x402;" horiz-adv-x="450" 
d="M345 -47l67 342q15 79 -4.5 114t-73.5 35q-61 0 -116 -47l-77 -397h-20l132 682h-137l4 18h294l-4 -18h-137l-51 -262q56 42 118 42q124 0 93 -161l-68 -348q-10 -55 -33.5 -79t-65.5 -24h-11l4 18h13q30 0 47 19t26 66z" />
    <glyph glyph-name="afii10052" unicode="&#x403;" horiz-adv-x="333" 
d="M388 924l-106 -161h-20l106 161h20zM25 0l136 700h269l-4 -18h-249l-132 -682h-20z" />
    <glyph glyph-name="afii10053" unicode="&#x404;" horiz-adv-x="386" 
d="M51 188l63 324q20 100 69.5 150t120.5 50t101.5 -50t10.5 -150l-2 -9l-20 -1l1 6q19 95 -7.5 140.5t-87.5 45.5q-130 0 -167 -186l-29 -148h156l-3 -18h-156l-29 -150q-19 -95 7.5 -140.5t87.5 -45.5q130 0 167 186l1 6l20 -1l-2 -9q-20 -100 -69.5 -150t-120.5 -50
t-101.5 50t-10.5 150z" />
    <glyph glyph-name="afii10054" unicode="&#x405;" horiz-adv-x="362" 
d="M40 157l3 14l20 1l-2 -12q-15 -73 10 -113.5t83 -40.5q57 0 97.5 40t55.5 114l3 20q14 70 -4.5 106t-78.5 60l-30 12q-60 25 -81 63t-6 116l3 16q14 73 57 116.5t110 43.5t93 -43.5t12 -116.5l-3 -17l-21 -1l3 15q14 68 -8 106.5t-79 38.5t-94 -38.5t-51 -106.5l-2 -11
q-13 -70 5.5 -106t78.5 -60l30 -12q60 -25 81 -63t6 -116l-5 -25q-15 -77 -62 -123t-114 -46t-96 46t-14 123z" />
    <glyph glyph-name="afii10055" unicode="&#x406;" horiz-adv-x="146" 
d="M189 700l-136 -700h-20l136 700h20z" />
    <glyph glyph-name="afii10056" unicode="&#x407;" horiz-adv-x="146" 
d="M189 700l-136 -700h-20l136 700h20zM156 890l-18 -93h-20l18 93h20zM294 890l-18 -93h-20l18 93h20z" />
    <glyph glyph-name="afii10057" unicode="&#x408;" horiz-adv-x="321" 
d="M109 -12q-115 0 -97 147l20 1q-16 -130 81 -130q53 0 85.5 38t48.5 120l105 536h20l-105 -537q-34 -175 -158 -175z" />
    <glyph glyph-name="afii10058" unicode="&#x409;" horiz-adv-x="625" 
d="M602 192l-3 -14q-35 -178 -197 -178h-104l132 682h-222l-115 -591q-10 -55 -33.5 -79t-65.5 -24h-11l4 18h13q30 0 47 19t26 66l119 609h262l-65 -330h84q164 0 129 -178zM579 179l3 12q16 85 -12 123t-103 38h-81l-65 -334h81q75 0 118 38t59 123z" />
    <glyph glyph-name="afii10059" unicode="&#x40a;" horiz-adv-x="624" 
d="M601 192l-3 -14q-35 -178 -197 -178h-104l68 352h-244l-68 -352h-20l136 700h20l-65 -330h244l65 330h20l-65 -330h84q164 0 129 -178zM578 179l3 12q16 85 -12 123t-103 38h-81l-65 -334h81q75 0 118 38t59 123z" />
    <glyph glyph-name="afii10060" unicode="&#x40b;" horiz-adv-x="450" 
d="M355 0l57 295q15 79 -4.5 114t-73.5 35q-61 0 -116 -47l-77 -397h-20l132 682h-137l4 18h294l-4 -18h-137l-51 -262q56 42 118 42q124 0 93 -161l-58 -301h-20z" />
    <glyph glyph-name="afii10061" unicode="&#x40c;" horiz-adv-x="376" 
d="M407 700h20l-8 -41q-18 -93 -50 -147t-97 -110l64 -402h-21l-61 388l-150 -121l-51 -267h-20l136 700h20l-79 -406l129 104q75 61 108 113.5t51 146.5zM397 924l-106 -161h-20l106 161h20z" />
    <glyph glyph-name="uni040D" unicode="&#x40d;" horiz-adv-x="434" 
d="M457 700l-395 -653l127 653h-20l-136 -700h20l394 653l-126 -653h20l136 700h-20zM348 763l-44 161h20l44 -161h-20z" />
    <glyph glyph-name="afii10062" unicode="&#x40e;" horiz-adv-x="339" 
d="M104 69l68 147l-41 484h21l37 -449l213 449h21l-301 -637q-18 -37 -32.5 -50t-40.5 -13h-7l3 18h8q16 0 26.5 10.5t24.5 40.5zM288 770q-49 0 -69.5 33t-7.5 99l20 1q-21 -115 61 -115q81 0 105 115l20 -1q-13 -66 -46.5 -99t-82.5 -33z" />
    <glyph glyph-name="afii10145" unicode="&#x40f;" horiz-adv-x="410" 
d="M141 -120l24 120h-132l136 700h20l-133 -682h244l133 682h20l-136 -700h-132l-24 -120h-20z" />
    <glyph glyph-name="afii10017" unicode="&#x410;" horiz-adv-x="358" 
d="M298 0l-7 197h-209l-82 -197h-20l295 700h20l23 -700h-20zM277 660l-188 -445h201z" />
    <glyph glyph-name="afii10018" unicode="&#x411;" horiz-adv-x="362" 
d="M337 192l-3 -14q-35 -178 -197 -178h-104l136 700h218l-4 -18h-198l-61 -312h84q164 0 129 -178zM314 179l3 12q16 85 -12 123t-103 38h-81l-65 -334h81q75 0 118 38t59 123z" />
    <glyph glyph-name="afii10019" unicode="&#x412;" horiz-adv-x="379" 
d="M153 0h-120l136 700h104q82 0 113 -43t14 -131q-27 -134 -103 -164q79 -31 51 -174q-20 -100 -68.5 -144t-126.5 -44zM243 352h-122l-65 -334h97q72 0 114.5 40t60.5 129q32 165 -85 165zM124 370h121q103 0 135 156q31 156 -114 156h-81z" />
    <glyph glyph-name="afii10020" unicode="&#x413;" horiz-adv-x="333" 
d="M25 0l136 700h269l-4 -18h-249l-132 -682h-20z" />
    <glyph glyph-name="afii10021" unicode="&#x414;" horiz-adv-x="368" 
d="M314 18l-27 -138h-20l24 120h-286l-24 -120h-19l26 138h34q66 163 117 423l51 259h216l-133 -682h41zM43 18h210l129 664h-176l-47 -242q-48 -244 -116 -422z" />
    <glyph glyph-name="afii10022" unicode="&#x415;" horiz-adv-x="345" 
d="M33 0l136 700h250l-4 -18h-230l-60 -311h198l-4 -18h-198l-65 -335h230l-3 -18h-250z" />
    <glyph glyph-name="afii10024" unicode="&#x416;" horiz-adv-x="554" 
d="M294 294l79 406h20l-79 -406l129 104q65 52 90.5 105t44.5 155l9 42h20l-8 -41q-21 -108 -48 -162.5t-91 -106.5l49 -390h-21l-47 375l-133 -108l-51 -267h-20l51 267l-91 108l-191 -375h-21l199 390q-43 52 -49 110t16 159l8 41h20l-9 -42q-21 -91 -15 -149.5t50 -110.5
z" />
    <glyph glyph-name="afii10025" unicode="&#x417;" horiz-adv-x="352" 
d="M147 6q122 0 153 168l9 43q13 66 -12 103t-75 37h-56l3 18h56q45 0 78 35t43 88l12 61q14 68 -9.5 101.5t-72.5 33.5t-84.5 -33.5t-49.5 -101.5l-3 -17l-20 1l3 15q15 74 57.5 114t100.5 40t85.5 -40t12.5 -114l-12 -63q-19 -99 -99 -129q36 -11 55 -46.5t7 -100.5
l-9 -46q-36 -185 -177 -185t-105 185l2 9l20 1l-2 -9q-31 -168 89 -168z" />
    <glyph glyph-name="afii10026" unicode="&#x418;" horiz-adv-x="434" 
d="M62 47l395 653h20l-136 -700h-20l126 653l-394 -653h-20l136 700h20z" />
    <glyph glyph-name="afii10027" unicode="&#x419;" horiz-adv-x="434" 
d="M457 700l-395 -653l127 653h-20l-136 -700h20l394 653l-126 -653h20l136 700h-20zM336 770q-49 0 -69.5 33t-7.5 99l20 1q-21 -115 61 -115q81 0 105 115l20 -1q-13 -66 -46.5 -99t-82.5 -33z" />
    <glyph glyph-name="afii10028" unicode="&#x41a;" horiz-adv-x="374" 
d="M407 700h20l-8 -41q-18 -93 -50 -147t-97 -110l64 -402h-21l-61 388l-150 -121l-51 -267h-20l136 700h20l-79 -406l129 104q75 61 108 113.5t51 146.5z" />
    <glyph glyph-name="afii10029" unicode="&#x41b;" horiz-adv-x="409" 
d="M206 682l-115 -591q-10 -55 -33.5 -79t-65.5 -24h-11l4 18h13q30 0 47 19t26 66l119 609h262l-136 -700h-20l132 682h-222z" />
    <glyph glyph-name="afii10030" unicode="&#x41c;" horiz-adv-x="506" 
d="M268 184h-20l-71 456l-124 -640h-20l136 700h20l74 -492l266 492h20l-136 -700h-20l124 640z" />
    <glyph glyph-name="afii10031" unicode="&#x41d;" horiz-adv-x="410" 
d="M297 0l68 352h-244l-68 -352h-20l136 700h20l-65 -330h244l65 330h20l-136 -700h-20z" />
    <glyph glyph-name="afii10032" unicode="&#x41e;" horiz-adv-x="392" 
d="M51 188l63 324q20 100 69.5 150t120.5 50t101.5 -50t10.5 -150l-63 -324q-20 -100 -69.5 -150t-120.5 -50t-101.5 50t-10.5 150zM334 192l61 316q19 95 -7.5 140.5t-87.5 45.5q-130 0 -167 -186l-61 -316q-19 -95 7.5 -140.5t87.5 -45.5q130 0 167 186z" />
    <glyph glyph-name="afii10033" unicode="&#x41f;" horiz-adv-x="410" 
d="M297 0l132 682h-244l-132 -682h-20l136 700h284l-136 -700h-20z" />
    <glyph glyph-name="afii10034" unicode="&#x420;" horiz-adv-x="372" 
d="M116 326h84q155 0 189 178q18 91 -11.5 134.5t-108.5 43.5h-84zM199 308h-87l-59 -308h-20l136 700h107q172 0 133 -196q-37 -196 -210 -196z" />
    <glyph glyph-name="afii10035" unicode="&#x421;" horiz-adv-x="386" 
d="M51 188l63 324q20 100 69.5 150t120.5 50t101.5 -50t10.5 -150l-2 -9l-20 -1l1 6q19 95 -7.5 140.5t-87.5 45.5q-130 0 -167 -186l-61 -316q-19 -95 7.5 -140.5t87.5 -45.5q130 0 167 186l1 6l20 -1l-2 -9q-20 -100 -69.5 -150t-120.5 -50t-101.5 50t-10.5 150z" />
    <glyph glyph-name="afii10036" unicode="&#x422;" horiz-adv-x="322" 
d="M116 682l4 18h294l-4 -18h-137l-132 -682h-20l132 682h-137z" />
    <glyph glyph-name="afii10037" unicode="&#x423;" horiz-adv-x="339" 
d="M104 69l68 147l-41 484h21l37 -449l213 449h21l-301 -637q-18 -37 -32.5 -50t-40.5 -13h-7l3 18h8q16 0 26.5 10.5t24.5 40.5z" />
    <glyph glyph-name="afii10038" unicode="&#x424;" horiz-adv-x="498" 
d="M346 602h38q71 0 101 -49.5t11 -149.5l-21 -105q-19 -100 -68.5 -150t-120.5 -50h-38l-19 -98h-20l19 98h-38q-71 0 -101.5 49.5t-11.5 149.5l21 105q19 100 69 150t121 50h38l19 98h20zM380 584h-38l-91 -468h38q62 0 105.5 45.5t61.5 140.5l19 97q36 185 -95 185z
M193 116h38l91 468h-38q-130 0 -167 -186l-19 -97q-36 -185 95 -185z" />
    <glyph glyph-name="afii10039" unicode="&#x425;" horiz-adv-x="352" 
d="M430 700l-201 -338l75 -362h-21l-71 340l-203 -340h-21l214 362l-68 338h21l65 -316l189 316h21z" />
    <glyph glyph-name="afii10040" unicode="&#x426;" horiz-adv-x="415" 
d="M453 700l-133 -682h41l-27 -138h-20l24 120h-305l136 700h20l-133 -682h244l133 682h20z" />
    <glyph glyph-name="afii10041" unicode="&#x427;" horiz-adv-x="376" 
d="M283 0h-20l54 280q-57 -42 -124 -42q-60 0 -85.5 42t-10.5 121l59 299h20l-59 -302q-14 -69 8 -105.5t72 -36.5q65 0 124 47l78 397h20z" />
    <glyph glyph-name="afii10042" unicode="&#x428;" horiz-adv-x="666" 
d="M556 18l133 682h20l-136 -700h-540l136 700h20l-133 -682h240l133 682h20l-133 -682h240z" />
    <glyph glyph-name="afii10043" unicode="&#x429;" horiz-adv-x="671" 
d="M556 18l133 682h20l-133 -682h41l-27 -138h-20l24 120h-561l136 700h20l-133 -682h240l133 682h20l-133 -682h240z" />
    <glyph glyph-name="afii10044" unicode="&#x42a;" horiz-adv-x="437" 
d="M391 179l3 12q16 85 -12 123t-103 38h-81l-65 -334h81q75 0 118 38t59 123zM242 682h-127l4 18h147l-65 -330h84q164 0 129 -178l-3 -14q-35 -178 -197 -178h-104z" />
    <glyph glyph-name="afii10045" unicode="&#x42b;" horiz-adv-x="499" 
d="M406 0h-20l136 700h20zM314 179l3 12q16 85 -12 123t-103 38h-81l-65 -334h81q75 0 118 38t59 123zM337 192l-3 -14q-35 -178 -197 -178h-104l136 700h20l-65 -330h84q164 0 129 -178z" />
    <glyph glyph-name="afii10046" unicode="&#x42c;" horiz-adv-x="360" 
d="M314 179l3 12q16 85 -12 123t-103 38h-81l-65 -334h81q75 0 118 38t59 123zM337 192l-3 -14q-35 -178 -197 -178h-104l136 700h20l-65 -330h84q164 0 129 -178z" />
    <glyph glyph-name="afii10047" unicode="&#x42d;" horiz-adv-x="386" 
d="M410 512l-63 -324q-20 -100 -69.5 -150t-120.5 -50t-101.5 50t-10.5 150l2 9l20 1l-1 -6q-19 -95 7.5 -140.5t87.5 -45.5q130 0 167 186l29 150h-156l3 18h156l29 148q19 95 -7.5 140.5t-87.5 45.5q-130 0 -167 -186l-1 -6l-20 1l2 9q20 100 69.5 150t120.5 50t101.5 -50
t10.5 -150z" />
    <glyph glyph-name="afii10048" unicode="&#x42e;" horiz-adv-x="509" 
d="M168 188l30 154h-79l-66 -342h-20l136 700h20l-67 -340h79l30 152q20 100 69.5 150t120.5 50t101.5 -50t10.5 -150l-63 -324q-20 -100 -69.5 -150t-120.5 -50t-101.5 50t-10.5 150zM451 192l61 316q19 95 -7.5 140.5t-87.5 45.5q-130 0 -167 -186l-61 -316
q-19 -95 7.5 -140.5t87.5 -45.5q130 0 167 186z" />
    <glyph glyph-name="afii10049" unicode="&#x42f;" horiz-adv-x="381" 
d="M329 318h-87q-25 0 -50 5l-171 -323h-21l174 328q-94 35 -67 181q38 191 210 191h107l-136 -700h-20zM333 336l67 346h-84q-155 0 -189 -173q-33 -173 122 -173h84z" />
    <glyph glyph-name="afii10065" unicode="&#x430;" horiz-adv-x="336" 
d="M120 5q77 0 132 87l32 165h-93q-53 0 -91 -34t-49 -92l-4 -18q-20 -108 73 -108zM120 400l-20 1q45 111 140 111q52 0 76.5 -35t10.5 -105l-72 -372h-20l11 59q-54 -71 -132 -71q-50 0 -74.5 31t-12.5 94l4 18q13 68 58 106t111 38h88l19 96q24 123 -70 123
q-77 0 -117 -94z" />
    <glyph glyph-name="afii10066" unicode="&#x431;" horiz-adv-x="325" 
d="M325 361l-45 -232q-13 -65 -52.5 -103t-94.5 -38t-79.5 38t-11.5 103l76 395q14 70 46 107.5t87 52.5l90 25l2 -19l-89 -24q-48 -13 -75.5 -46.5t-40.5 -97.5l-15 -75q43 65 114 65q56 0 78.5 -41.5t9.5 -109.5zM260 132l44 226q12 61 -5 98.5t-65 37.5q-78 0 -119 -91
l-53 -271q-11 -59 9.5 -92.5t65.5 -33.5t78.5 33.5t44.5 92.5z" />
    <glyph glyph-name="afii10067" unicode="&#x432;" horiz-adv-x="305" 
d="M119 0h-95l97 500h89q60 0 83.5 -29.5t13.5 -80.5l-3 -18q-18 -92 -74 -113q60 -17 40 -117l-4 -20q-11 -58 -49 -90t-98 -32zM284 372l2 9q20 101 -82 101h-67l-41 -214h81q50 0 73 25.5t34 78.5zM92 250l-45 -232h72q107 0 128 108l3 14q11 58 -4.5 84t-67.5 26h-86z
" />
    <glyph glyph-name="afii10068" unicode="&#x433;" horiz-adv-x="267" 
d="M137 482l-93 -482h-20l97 500h205l-4 -18h-185z" />
    <glyph glyph-name="afii10069" unicode="&#x434;" horiz-adv-x="303" 
d="M256 18l-25 -128h-20l22 110h-234l-22 -110h-19l24 128h35q51 132 90 334l29 148h177l-94 -482h37zM38 18h161l90 464h-137l-25 -130q-41 -206 -89 -334z" />
    <glyph glyph-name="afii10070" unicode="&#x435;" horiz-adv-x="328" 
d="M259 129l19 -2q-18 -67 -57.5 -103t-90.5 -36q-56 0 -82 39.5t-11 111.5l43 222q13 70 55 110.5t98 40.5t82 -40.5t13 -110.5l-23 -117h-228l-20 -102q-13 -66 9 -101t68 -35q40 0 74 31t51 92zM288 262l19 96q12 64 -9.5 100t-67.5 36t-82.5 -36t-48.5 -100l-19 -96h208
z" />
    <glyph glyph-name="afii10072" unicode="&#x436;" horiz-adv-x="432" 
d="M329 267l-96 -76l-37 -191h-20l37 191l-68 76l-142 -267h-21l151 281q-30 38 -36 81t8 110l6 28h20l-6 -28q-14 -69 -6.5 -111t40.5 -78l59 -65l55 282h20l-55 -282l85 65q47 36 69.5 77t36.5 112l6 28h20l-6 -28q-13 -69 -35 -111t-67 -80l43 -281h-21z" />
    <glyph glyph-name="afii10073" unicode="&#x437;" horiz-adv-x="304" 
d="M119 -12q-53 0 -78.5 34t-14.5 87l5 29l21 1l-6 -30q-9 -46 12.5 -74.5t64.5 -28.5t75.5 28.5t41.5 74.5l10 52q17 90 -54 90h-68l4 18h68q26 0 46.5 22t29.5 65l7 39q9 46 -10.5 72.5t-57.5 26.5t-68.5 -26.5t-39.5 -72.5l-3 -18l-20 1l3 17q10 53 46.5 85t84.5 32
t71.5 -32t13.5 -85l-7 -40q-15 -74 -60 -93q50 -20 34 -99l-10 -54q-11 -53 -49.5 -87t-91.5 -34z" />
    <glyph glyph-name="afii10074" unicode="&#x438;" horiz-adv-x="342" 
d="M325 451l-281 -451h-20l97 500h20l-88 -451l282 451h20l-97 -500h-20z" />
    <glyph glyph-name="afii10075" unicode="&#x439;" horiz-adv-x="342" 
d="M44 0l281 451l-87 -451h20l97 500h-20l-282 -451l88 451h-20l-97 -500h20zM252 573q-49 0 -69.5 33t-7.5 99l20 1q-21 -115 60 -115q82 0 106 115l20 -1q-13 -66 -46.5 -99t-82.5 -33z" />
    <glyph glyph-name="afii10076" unicode="&#x43a;" horiz-adv-x="316" 
d="M199 265l-123 -100l-32 -165h-20l97 500h20l-60 -309l102 83q60 48 90 97.5t43 116.5l3 12h20l-3 -12q-24 -126 -119 -208l57 -280h-21z" />
    <glyph glyph-name="afii10077" unicode="&#x43b;" horiz-adv-x="348" 
d="M361 500l-97 -500h-20l93 482h-184l-76 -391q-10 -55 -33.5 -79t-65.5 -24h-10l3 18h13q30 0 47 19t26 66l80 409h224z" />
    <glyph glyph-name="afii10078" unicode="&#x43c;" horiz-adv-x="400" 
d="M207 152h-16l-61 292l-86 -444h-20l97 500h17l67 -318l191 318h17l-97 -500h-20l86 444z" />
    <glyph glyph-name="afii10079" unicode="&#x43d;" horiz-adv-x="333" 
d="M346 500l-97 -500h-20l48 248h-185l-48 -248h-20l97 500h20l-46 -234h185l46 234h20z" />
    <glyph glyph-name="afii10080" unicode="&#x43e;" horiz-adv-x="328" 
d="M265 142l42 216q12 64 -9.5 100t-67.5 36t-82.5 -36t-48.5 -100l-42 -216q-12 -64 10 -100t68 -36t82 36t48 100zM328 361l-43 -222q-14 -70 -56 -110.5t-98 -40.5t-82 40.5t-12 110.5l43 222q13 70 55 110.5t98 40.5t82 -40.5t13 -110.5z" />
    <glyph glyph-name="afii10081" unicode="&#x43f;" horiz-adv-x="337" 
d="M350 500l-97 -500h-20l93 482h-189l-93 -482h-20l97 500h229z" />
    <glyph glyph-name="afii10082" unicode="&#x440;" horiz-adv-x="332" 
d="M122 403l-60 -306q4 -46 26.5 -68.5t57.5 -22.5q48 0 79.5 37.5t43.5 98.5l42 216q12 61 -5 98.5t-65 37.5q-78 0 -119 -91zM141 500l-11 -53q43 65 114 65q56 0 78.5 -41.5t9.5 -109.5l-43 -222q-14 -68 -52.5 -109.5t-94.5 -41.5q-71 0 -88 65l-53 -271h-20l140 718h20
z" />
    <glyph glyph-name="afii10083" unicode="&#x441;" horiz-adv-x="324" 
d="M37 139l43 222q13 70 55 110.5t98 40.5t82 -40.5t13 -110.5l-1 -6l-21 -1l1 4q12 64 -9.5 100t-67.5 36t-82.5 -36t-48.5 -100l-42 -216q-12 -64 10 -100t68 -36t82 36t48 100l1 4l20 -1l-1 -6q-14 -70 -56 -110.5t-98 -40.5t-82 40.5t-12 110.5z" />
    <glyph glyph-name="afii10084" unicode="&#x442;" horiz-adv-x="272" 
d="M71 482l4 18h256l-4 -18h-118l-93 -482h-20l93 482h-118z" />
    <glyph glyph-name="afii10085" unicode="&#x443;" horiz-adv-x="302" 
d="M46 -143l64 143l-28 500h21l25 -458l205 458h21l-287 -643q-20 -43 -34 -55.5t-42 -12.5h-7l4 18h9q15 0 24.5 9.5t24.5 40.5z" />
    <glyph glyph-name="afii10086" unicode="&#x444;" horiz-adv-x="536" 
d="M258 53l-53 -271h-20l53 271q-43 -65 -114 -65q-56 0 -78.5 41.5t-8.5 109.5l43 222q13 68 51.5 109.5t94.5 41.5q71 0 88 -65l52 265h20l-52 -265q43 65 114 65q56 0 78.5 -41.5t9.5 -109.5l-43 -222q-14 -68 -52.5 -109.5t-94.5 -41.5q-71 0 -88 65zM326 403l-60 -306
q4 -46 26.5 -68.5t57.5 -22.5q48 0 79.5 37.5t43.5 98.5l42 216q12 61 -5 98.5t-65 37.5q-78 0 -119 -91zM246 97l60 306q-4 46 -26 68.5t-57 22.5q-48 0 -80 -37.5t-44 -98.5l-42 -216q-12 -61 5.5 -98.5t65.5 -37.5q77 0 118 91z" />
    <glyph glyph-name="afii10087" unicode="&#x445;" horiz-adv-x="286" 
d="M150 259l-62 241h21l58 -222l144 222h21l-157 -241l69 -259h-21l-64 241l-156 -241h-21z" />
    <glyph glyph-name="afii10088" unicode="&#x446;" horiz-adv-x="340" 
d="M24 0l97 500h20l-94 -482h189l94 482h20l-94 -482h37l-25 -128h-20l22 110h-246z" />
    <glyph glyph-name="afii10089" unicode="&#x447;" horiz-adv-x="318" 
d="M71 297l40 203h20l-40 -206q-11 -53 7.5 -79.5t54.5 -26.5q59 0 105 39l53 273h20l-97 -500h-20l39 205q-43 -35 -104 -35q-47 0 -68.5 32t-9.5 95z" />
    <glyph glyph-name="afii10090" unicode="&#x448;" horiz-adv-x="536" 
d="M549 500l-97 -500h-428l97 500h20l-94 -482h184l94 482h20l-94 -482h184l94 482h20z" />
    <glyph glyph-name="afii10091" unicode="&#x449;" horiz-adv-x="539" 
d="M24 0l97 500h20l-94 -482h184l94 482h20l-94 -482h184l94 482h20l-94 -482h37l-25 -128h-20l22 110h-445z" />
    <glyph glyph-name="afii10092" unicode="&#x44a;" horiz-adv-x="363" 
d="M208 500l-40 -202h71q60 0 88.5 -33t14.5 -103l-5 -26q-27 -136 -155 -136h-91l93 482h-113l4 18h133zM318 139l3 20q24 121 -88 121h-68l-51 -262h68q112 0 136 121z" />
    <glyph glyph-name="afii10093" unicode="&#x44b;" horiz-adv-x="409" 
d="M251 139l3 20q24 121 -88 121h-68l-51 -262h68q112 0 136 121zM275 162l-5 -26q-27 -136 -155 -136h-91l97 500h20l-40 -202h71q60 0 88.5 -33t14.5 -103zM305 0l97 500h20l-97 -500h-20z" />
    <glyph glyph-name="afii10094" unicode="&#x44c;" horiz-adv-x="296" 
d="M251 139l3 20q24 121 -88 121h-68l-51 -262h68q112 0 136 121zM275 162l-5 -26q-27 -136 -155 -136h-91l97 500h20l-40 -202h71q60 0 88.5 -33t14.5 -103z" />
    <glyph glyph-name="afii10095" unicode="&#x44d;" horiz-adv-x="324" 
d="M324 361l-43 -222q-14 -70 -56 -110.5t-98 -40.5q-54 0 -80.5 38t-15.5 105l20 1q-9 -60 13.5 -93t66.5 -33q46 0 82 36t48 100l19 99h-116l4 18h116l19 99q12 64 -9.5 100t-67.5 36q-44 0 -79.5 -33t-49.5 -93l-20 1q16 67 57 105t95 38q56 0 82 -40.5t13 -110.5z" />
    <glyph glyph-name="afii10096" unicode="&#x44e;" horiz-adv-x="430" 
d="M430 361l-43 -222q-14 -70 -56 -110.5t-98 -40.5t-82 40.5t-12 110.5l19 102h-68l-46 -241h-20l97 500h20l-47 -241h68l20 102q13 70 55 110.5t98 40.5t82 -40.5t13 -110.5zM367 142l42 216q12 64 -9.5 100t-67.5 36t-82.5 -36t-48.5 -100l-42 -216q-12 -64 10 -100
t68 -36t82 36t48 100z" />
    <glyph glyph-name="afii10097" unicode="&#x44f;" horiz-adv-x="321" 
d="M245 500h89l-97 -500h-20l43 226h-69q-28 0 -47 5l-130 -231h-22l136 236q-70 29 -51 127q13 71 58 104t110 33zM310 482h-67q-123 0 -146 -119t100 -119h67z" />
    <glyph glyph-name="uni0450" unicode="&#x450;" horiz-adv-x="328" 
d="M278 127l-19 2q-17 -61 -51 -92t-74 -31q-46 0 -68 35t-9 101l20 102h228l23 117q13 70 -13 110.5t-82 40.5t-98 -40.5t-55 -110.5l-43 -222q-15 -72 11 -111.5t82 -39.5q51 0 90.5 36t57.5 103zM307 358l-19 -96h-208l19 96q12 64 48.5 100t82.5 36t67.5 -36t9.5 -100z
M256 564l-44 161h20l44 -161h-20z" />
    <glyph glyph-name="afii10071" unicode="&#x451;" horiz-adv-x="328" 
d="M278 127l-19 2q-17 -61 -51 -92t-74 -31q-46 0 -68 35t-9 101l20 102h228l23 117q13 70 -13 110.5t-82 40.5t-98 -40.5t-55 -110.5l-43 -222q-15 -72 11 -111.5t82 -39.5q51 0 90.5 36t57.5 103zM307 358l-19 -96h-208l19 96q12 64 48.5 100t82.5 36t67.5 -36t9.5 -100z
M206 691l-18 -93h-20l18 93h20zM344 691l-18 -93h-20l18 93h20z" />
    <glyph glyph-name="afii10099" unicode="&#x452;" horiz-adv-x="343" 
d="M220 -109l92 473q13 63 -6 96.5t-65 33.5q-76 0 -122 -106l-75 -388h-20l118 608h-42l3 18h42l17 86h20l-17 -86h98l-3 -18h-98l-33 -170q20 35 51 54.5t65 19.5q54 0 77.5 -38t10.5 -107l-93 -476q-10 -55 -33.5 -79t-65.5 -24h-11l4 18h13q30 0 47 19t26 66z" />
    <glyph glyph-name="afii10100" unicode="&#x453;" horiz-adv-x="267" 
d="M137 482l-93 -482h-20l97 500h205l-4 -18h-185zM326 725l-106 -161h-20l106 161h20z" />
    <glyph glyph-name="afii10101" unicode="&#x454;" horiz-adv-x="324" 
d="M37 139l43 222q13 70 55 110.5t98 40.5q54 0 80.5 -38t15.5 -105l-20 -1q9 60 -13 93t-66 33q-46 0 -82.5 -36t-48.5 -100l-19 -99h116l-4 -18h-116l-19 -99q-12 -64 10 -100t68 -36q44 0 79 33t49 93l20 -1q-16 -67 -57 -105t-95 -38q-56 0 -82 40.5t-12 110.5z" />
    <glyph glyph-name="afii10102" unicode="&#x455;" horiz-adv-x="298" 
d="M60 125l-4 -20q-9 -46 9.5 -72.5t59.5 -26.5t69.5 26.5t37.5 72.5l3 16q11 57 -1 83t-55 41l-29 10q-46 16 -60 47t-2 94l1 4q10 52 45 82t82 30t70 -30t13 -82l-2 -13l-20 -1l2 14q9 44 -9.5 69t-56.5 25t-66.5 -25t-37.5 -69l-1 -6q-11 -57 1 -82.5t55 -40.5l29 -10
q46 -16 60 -47.5t2 -94.5l-3 -14q-10 -52 -44.5 -84.5t-87.5 -32.5q-52 0 -73 32.5t-11 84.5l4 19z" />
    <glyph glyph-name="afii10103" unicode="&#x456;" horiz-adv-x="146" 
d="M33 0l97 500h20l-97 -500h-20zM156 635l15 77h20l-15 -77h-20z" />
    <glyph glyph-name="afii10104" unicode="&#x457;" horiz-adv-x="146" 
d="M33 0l97 500h20l-97 -500h-20zM118 691l-18 -93h-20l18 93h20zM256 691l-18 -93h-20l18 93h20z" />
    <glyph glyph-name="afii10105" unicode="&#x458;" horiz-adv-x="136" 
d="M146 635l15 77h20l-15 -77h-20zM1 -109l119 609h20l-119 -609q-10 -55 -33.5 -79t-64.5 -24h-11l4 18h13q30 0 46.5 18.5t25.5 66.5z" />
    <glyph glyph-name="afii10106" unicode="&#x459;" horiz-adv-x="516" 
d="M495 162l-5 -26q-27 -136 -155 -136h-91l93 482h-184l-76 -391q-10 -55 -33.5 -79t-65.5 -24h-10l3 18h13q30 0 47 19t26 66l80 409h224l-40 -202h71q60 0 88.5 -33t14.5 -103zM471 139l3 20q24 121 -88 121h-68l-51 -262h68q112 0 136 121z" />
    <glyph glyph-name="afii10107" unicode="&#x45a;" horiz-adv-x="501" 
d="M480 162l-5 -26q-27 -136 -155 -136h-91l48 248h-185l-48 -248h-20l97 500h20l-46 -234h185l46 234h20l-40 -202h71q60 0 88.5 -33t14.5 -103zM456 139l3 20q24 121 -88 121h-68l-51 -262h68q112 0 136 121z" />
    <glyph glyph-name="afii10108" unicode="&#x45b;" horiz-adv-x="343" 
d="M260 608h-98l-33 -170q20 35 51 54.5t65 19.5q54 0 77.5 -38t10.5 -107l-71 -367h-20l70 364q13 63 -6 96.5t-65 33.5q-76 0 -122 -106l-75 -388h-20l118 608h-42l3 18h42l17 86h20l-17 -86h98z" />
    <glyph glyph-name="afii10109" unicode="&#x45c;" horiz-adv-x="316" 
d="M199 265l-123 -100l-32 -165h-20l97 500h20l-60 -309l102 83q60 48 90 97.5t43 116.5l3 12h20l-3 -12q-24 -126 -119 -208l57 -280h-21zM331 725l-106 -161h-20l106 161h20z" />
    <glyph glyph-name="uni045D" unicode="&#x45d;" horiz-adv-x="342" 
d="M44 0l281 451l-87 -451h20l97 500h-20l-282 -451l88 451h-20l-97 -500h20zM262 564l-44 161h20l44 -161h-20z" />
    <glyph glyph-name="afii10110" unicode="&#x45e;" horiz-adv-x="296" 
d="M43 -143l64 143l-28 500h21l25 -458l205 458h21l-287 -643q-20 -43 -34 -55.5t-42 -12.5h-7l4 18h9q15 0 24.5 9.5t24.5 40.5zM229 573q-49 0 -69.5 33t-7.5 99l20 1q-21 -115 60 -115q82 0 106 115l20 -1q-13 -66 -46.5 -99t-82.5 -33z" />
    <glyph glyph-name="afii10193" unicode="&#x45f;" horiz-adv-x="337" 
d="M148 0l-22 -110h-20l22 110h-104l97 500h20l-94 -482h189l94 482h20l-97 -500h-105z" />
    <glyph glyph-name="afii10050" unicode="&#x490;" horiz-adv-x="333" 
d="M457 840l-31 -158h-249l-132 -682h-20l136 700h249l27 140h20z" />
    <glyph glyph-name="afii10098" unicode="&#x491;" horiz-adv-x="277" 
d="M306 500l19 100h20l-23 -118h-185l-93 -482h-20l97 500h185z" />
    <glyph glyph-name="Wgrave" unicode="&#x1e80;" horiz-adv-x="614" 
d="M423 700h-20l-258 -654l-2 654h-21l5 -700h20l257 658l3 -658h20l277 700h-21l-258 -654zM438 763l-44 161h20l44 -161h-20z" />
    <glyph glyph-name="wgrave" unicode="&#x1e81;" horiz-adv-x="542" 
d="M330 460l-201 -460h-20l-26 500h21l23 -454l201 454h20l23 -454l201 454h21l-220 -500h-20zM362 564l-44 161h20l44 -161h-20z" />
    <glyph glyph-name="Wacute" unicode="&#x1e82;" horiz-adv-x="614" 
d="M403 700h20l2 -654l258 654h21l-277 -700h-20l-3 658l-257 -658h-20l-5 700h21l2 -654zM518 924l-106 -161h-20l106 161h20z" />
    <glyph glyph-name="wacute" unicode="&#x1e83;" horiz-adv-x="542" 
d="M330 460l-201 -460h-20l-26 500h21l23 -454l201 454h20l23 -454l201 454h21l-220 -500h-20zM444 725l-106 -161h-20l106 161h20z" />
    <glyph glyph-name="Wdieresis" unicode="&#x1e84;" horiz-adv-x="614" 
d="M423 700h-20l-258 -654l-2 654h-21l5 -700h20l257 658l3 -658h20l277 700h-21l-258 -654zM392 890l-18 -93h-20l18 93h20zM530 890l-18 -93h-20l18 93h20z" />
    <glyph glyph-name="wdieresis" unicode="&#x1e85;" horiz-adv-x="542" 
d="M330 460l-201 -460h-20l-26 500h21l23 -454l201 454h20l23 -454l201 454h21l-220 -500h-20zM316 691l-18 -93h-20l18 93h20zM454 691l-18 -93h-20l18 93h20z" />
    <glyph glyph-name="Ygrave" unicode="&#x1ef2;" horiz-adv-x="326" 
d="M143 0h-20l64 330l-68 370h20l63 -343l197 343h20l-212 -370zM294 763l-44 161h20l44 -161h-20z" />
    <glyph glyph-name="ygrave" unicode="&#x1ef3;" horiz-adv-x="302" 
d="M46 -143l64 143l-28 500h21l25 -458l205 458h21l-287 -643q-20 -43 -34 -55.5t-42 -12.5h-7l4 18h9q15 0 24.5 9.5t24.5 40.5zM246 564l-44 161h20l44 -161h-20z" />
    <glyph glyph-name="thinspace" unicode="&#x2009;" horiz-adv-x="140" 
 />
    <glyph glyph-name="uni2010" unicode="&#x2010;" horiz-adv-x="243" 
d="M72 317l4 18h161l-4 -18h-161z" />
    <glyph glyph-name="figuredash" unicode="&#x2012;" horiz-adv-x="396" 
d="M386 317h-314l4 18h314z" />
    <glyph glyph-name="endash" unicode="&#x2013;" horiz-adv-x="350" 
d="M381 317h-350l4 18h350z" />
    <glyph glyph-name="emdash" unicode="&#x2014;" horiz-adv-x="700" 
d="M731 317h-700l4 18h700z" />
    <glyph glyph-name="afii00208" unicode="&#x2015;" horiz-adv-x="700" 
d="M661 317h-560l4 18h560z" />
    <glyph glyph-name="uni2016" unicode="&#x2016;" horiz-adv-x="300" 
d="M26 -130l171 879h20l-171 -879h-20zM142 -130l171 879h20l-171 -879h-20z" />
    <glyph glyph-name="underscoredbl" unicode="&#x2017;" horiz-adv-x="426" 
d="M-3 -56h350l-4 -18h-350zM-23 -157h350l-4 -18h-350z" />
    <glyph glyph-name="quoteleft" unicode="&#x2018;" horiz-adv-x="174" 
d="M162 596l16 78q10 56 54 70l-4 -23q-24 -10 -30 -47l-16 -78h-20z" />
    <glyph glyph-name="quoteright" unicode="&#x2019;" horiz-adv-x="174" 
d="M211 744l-15 -78q-10 -56 -55 -70l5 23q22 10 30 47l15 78h20z" />
    <glyph glyph-name="quotesinglbase" unicode="&#x201a;" horiz-adv-x="174" 
d="M79 65l-15 -78q-10 -56 -55 -70l5 23q24 10 30 47l15 78h20z" />
    <glyph glyph-name="quotereversed" unicode="&#x201b;" horiz-adv-x="174" 
d="M176 666l15 78h20l-15 -78q-8 -37 12 -47l-5 -23q-37 13 -27 70z" />
    <glyph glyph-name="quotedblleft" unicode="&#x201c;" 
d="M162 596l16 78q10 56 54 70l-4 -23q-24 -10 -30 -47l-16 -78h-20zM242 596l16 78q10 56 54 70l-4 -23q-24 -10 -30 -47l-16 -78h-20z" />
    <glyph glyph-name="quotedblright" unicode="&#x201d;" 
d="M211 744l-15 -78q-10 -56 -55 -70l5 23q22 10 30 47l15 78h20zM291 744l-15 -78q-10 -56 -55 -70l5 23q22 10 30 47l15 78h20z" />
    <glyph glyph-name="quotedblbase" unicode="&#x201e;" 
d="M79 65l-15 -78q-10 -56 -55 -70l5 23q24 10 30 47l15 78h20zM159 65l-15 -78q-10 -56 -55 -70l5 23q24 10 30 47l15 78h20z" />
    <glyph glyph-name="uni201F" unicode="&#x201f;" 
d="M176 666l15 78h20l-15 -78q-8 -37 12 -47l-5 -23q-37 13 -27 70zM256 666l15 78h20l-15 -78q-8 -37 12 -47l-5 -23q-37 13 -27 70z" />
    <glyph glyph-name="dagger" unicode="&#x2020;" horiz-adv-x="436" 
d="M301 535l-129 -666h-20l129 666h-128l4 18h128l38 195h20l-38 -195h128l-4 -18h-128z" />
    <glyph glyph-name="daggerdbl" unicode="&#x2021;" horiz-adv-x="436" 
d="M193 82l88 453h-128l4 18h128l38 195h20l-38 -195h128l-4 -18h-128l-88 -453h128l-3 -18h-128l-38 -195h-20l38 195h-128l3 18h128z" />
    <glyph glyph-name="bullet" unicode="&#x2022;" horiz-adv-x="272" 
d="M267 326q0 -42 -29.5 -71.5t-71.5 -29.5t-71.5 29.5t-29.5 71.5t29.5 71.5t71.5 29.5t71.5 -29.5t29.5 -71.5z" />
    <glyph glyph-name="onedotenleader" unicode="&#x2024;" horiz-adv-x="174" 
d="M79 65l-12 -65h-20l12 65h20z" />
    <glyph glyph-name="twodotenleader" unicode="&#x2025;" horiz-adv-x="348" 
d="M79 65l-12 -65h-20l12 65h20zM253 65l-12 -65h-20l12 65h20z" />
    <glyph glyph-name="ellipsis" unicode="&#x2026;" horiz-adv-x="522" 
d="M79 65l-12 -65h-20l12 65h20zM253 65l-12 -65h-20l12 65h20zM427 65l-12 -65h-20l12 65h20z" />
    <glyph glyph-name="perthousand" unicode="&#x2030;" horiz-adv-x="675" 
d="M103 0l337 700h20l-337 -700h-20zM287 605l-32 -163q-20 -107 -93 -107t-53 107l32 163q21 107 94 107t52 -107zM161 607l-32 -167q-18 -88 36 -88q26 0 43.5 20.5t26.5 67.5l32 167q18 88 -35 88t-71 -88zM275 95l32 163q20 107 93 107t53 -107l-32 -163
q-21 -107 -94 -107t-52 107zM401 93l32 167q18 88 -36 88q-26 0 -43.5 -20.5t-26.5 -67.5l-32 -167q-18 -88 35 -88t71 88zM463 95l32 163q20 107 93 107t53 -107l-32 -163q-21 -107 -94 -107t-52 107zM589 93l32 167q18 88 -36 88q-26 0 -43.5 -20.5t-26.5 -67.5l-32 -167
q-18 -88 35 -88t71 88z" />
    <glyph glyph-name="minute" unicode="&#x2032;" horiz-adv-x="154" 
d="M108 478l85 222h21l-86 -222h-20z" />
    <glyph glyph-name="second" unicode="&#x2033;" horiz-adv-x="251" 
d="M108 478l85 222h21l-86 -222h-20zM205 478l85 222h21l-86 -222h-20z" />
    <glyph glyph-name="guilsinglleft" unicode="&#x2039;" horiz-adv-x="225" 
d="M241 424l-161 -112l117 -112l-4 -20l-128 125l3 14l177 125z" />
    <glyph glyph-name="guilsinglright" unicode="&#x203a;" horiz-adv-x="225" 
d="M205 312l-117 112l4 20l129 -125l-3 -14l-178 -125l4 20z" />
    <glyph glyph-name="exclamdbl" unicode="&#x203c;" horiz-adv-x="286" 
d="M73 169l104 531h20l-104 -531h-20zM73 65l-12 -65h-20l12 65h20zM197 169l104 531h20l-104 -531h-20zM197 65l-12 -65h-20l12 65h20z" />
    <glyph glyph-name="uni203E" unicode="&#x203e;" horiz-adv-x="230" 
d="M127 639l3 18h164l-3 -18h-164z" />
    <glyph glyph-name="fraction" unicode="&#x2044;" horiz-adv-x="109" 
d="M290 700l-376 -700h-19l376 700h19z" />
    <glyph glyph-name="zerosuperior" unicode="&#x2070;" 
d="M132 588l-47 -239q-9 -50 7.5 -76t52.5 -26t62.5 26t35.5 76l47 239q9 50 -7 76t-52 26t-63 -26t-36 -76zM65 348l47 241q11 55 43.5 87t78.5 32t66.5 -32t9.5 -87l-47 -241q-11 -55 -43.5 -87t-78.5 -32t-66.5 32t-9.5 87z" />
    <glyph glyph-name="uni2071" unicode="&#x2071;" 
d="M133 237l64 333h20l-64 -333h-20zM214 657l9 43h20l-9 -43h-20z" />
    <glyph glyph-name="foursuperior" unicode="&#x2074;" 
d="M276 368l-3 -18h-37l-22 -113h-20l22 113h-159l2 14l216 336h29l-65 -332h37zM82 368h137l60 307z" />
    <glyph glyph-name="fivesuperior" unicode="&#x2075;" 
d="M172 682l-34 -177q24 38 73 38q91 0 63 -143l-5 -28q-15 -75 -44.5 -109t-79.5 -34t-66.5 34t-1.5 109l2 10l20 1l-2 -11q-14 -70 0.5 -97.5t51.5 -27.5t61.5 27t38.5 98l5 28q25 125 -48 125q-50 0 -76 -58h-20l46 233h160l-4 -18h-140z" />
    <glyph glyph-name="sixsuperior" unicode="&#x2076;" 
d="M272 392l-7 -34q-12 -62 -45.5 -95.5t-78.5 -33.5t-65.5 33.5t-8.5 95.5l7 34q8 39 23 67l133 241h20l-110 -197q20 18 58 18q45 0 65.5 -33.5t8.5 -95.5zM245 358l7 34q10 55 -5.5 83t-52.5 28t-63.5 -28t-36.5 -83l-7 -34q-11 -55 5 -83t53 -28q36 0 62.5 28t37.5 83z
" />
    <glyph glyph-name="sevensuperior" unicode="&#x2077;" 
d="M131 682l4 18h196l-3 -15l-206 -448h-20l205 445h-176z" />
    <glyph glyph-name="eightsuperior" unicode="&#x2078;" 
d="M141 229q-49 0 -67.5 33t-7.5 90l5 25q18 94 84 114q-47 19 -33 95l4 18q10 49 38.5 76.5t69.5 27.5t59.5 -27.5t8.5 -76.5l-4 -18q-14 -75 -69 -95q58 -20 40 -114l-5 -25q-12 -58 -43.5 -90.5t-79.5 -32.5zM190 482q-79 0 -99 -105l-5 -25q-20 -105 59 -105t99 105
l5 25q20 105 -59 105zM194 500q32 0 54 22t30 64l4 18q16 86 -51 86q-32 0 -54.5 -22t-30.5 -64l-4 -18q-8 -42 6 -64t46 -22z" />
    <glyph glyph-name="ninesuperior" unicode="&#x2079;" 
d="M103 545l7 34q12 62 45.5 95.5t78.5 33.5t65.5 -33.5t8.5 -95.5l-7 -34q-8 -39 -23 -67l-132 -241h-20l109 197q-20 -18 -58 -18q-45 0 -65.5 33.5t-8.5 95.5zM130 579l-7 -34q-10 -55 5.5 -83t52.5 -28t63.5 28t36.5 83l7 34q11 55 -4.5 83t-52.5 28t-63.5 -28
t-37.5 -83z" />
    <glyph glyph-name="uni207A" unicode="&#x207a;" 
d="M177 361v100h-94v18h94v98h20v-98h94v-18h-94v-100h-20z" />
    <glyph glyph-name="uni207B" unicode="&#x207b;" 
d="M291 461h-208v18h208v-18z" />
    <glyph glyph-name="uni207C" unicode="&#x207c;" 
d="M291 411h-208v18h208v-18zM291 511h-208v18h208v-18z" />
    <glyph glyph-name="uni207D" unicode="&#x207d;" 
d="M145 344l49 249q13 69 38 107.5t72 64.5l4 -21q-38 -19 -60 -53.5t-35 -100.5l-47 -243q-12 -69 -4 -101.5t39 -52.5l-12 -21q-37 26 -47 64t3 108z" />
    <glyph glyph-name="uni207E" unicode="&#x207e;" 
d="M230 593l-49 -249q-13 -70 -38 -108t-72 -64l-4 21q38 19 60 53.5t35 100.5l47 243q12 69 4 101.5t-39 52.5l12 21q38 -26 47.5 -64t-3.5 -108z" />
    <glyph glyph-name="uni207F" unicode="&#x207f;" 
d="M232 237h-20l52 269q15 73 -46 73q-51 0 -91 -62l-54 -280h-20l68 351h20l-8 -42q37 51 92 51q35 0 51 -23.5t8 -65.5z" />
    <glyph glyph-name="zeroinferior" unicode="&#x2080;" 
d="M61 225l-46 -239q-10 -50 6.5 -76t52.5 -26t62.5 26t36.5 76l46 239q10 50 -6.5 76t-52.5 26t-62.5 -26t-36.5 -76zM-5 -15l46 241q11 55 44 87t79 32t66 -32t9 -87l-46 -241q-11 -55 -44 -87t-79 -32t-66 32t-9 87z" />
    <glyph glyph-name="oneinferior" unicode="&#x2081;" 
d="M165 -126h-166l4 18h73l82 425l-79 -34l3 19l80 35h20l-86 -445h73z" />
    <glyph glyph-name="twoinferior" unicode="&#x2082;" 
d="M211 209l5 25q10 50 -8 71.5t-50 21.5q-76 0 -94 -93l-8 -40l-20 1l8 40q11 56 44.5 83t73.5 27t62.5 -27t11.5 -83l-5 -26q-11 -60 -54 -112l-168 -205h167l-4 -18h-192l3 14l178 217q40 49 50 104z" />
    <glyph glyph-name="threeinferior" unicode="&#x2083;" 
d="M70 -134q-94 0 -67 140l2 13l20 1l-2 -12q-13 -68 0.5 -96t50.5 -28q76 0 99 124l5 26q19 96 -45 96q-22 0 -45 -15l-12 10l143 194h-146l3 18h169l-3 -15l-134 -183q13 8 31 8q39 0 54.5 -28.5t5.5 -81.5l-6 -31q-27 -140 -123 -140z" />
    <glyph glyph-name="fourinferior" unicode="&#x2084;" 
d="M205 5l-3 -18h-37l-22 -113h-20l22 113h-159l3 14l215 336h29l-65 -332h37zM11 5h137l60 307z" />
    <glyph glyph-name="fiveinferior" unicode="&#x2085;" 
d="M102 319l-35 -177q24 38 73 38q92 0 64 -143l-6 -28q-14 -75 -44 -109t-80 -34t-66 34t-2 109l2 10l20 1l-2 -11q-13 -70 1 -97.5t51 -27.5t62 27.5t38 97.5l6 28q24 125 -49 125q-49 0 -75 -58h-20l45 233h160l-3 -18h-140z" />
    <glyph glyph-name="sixinferior" unicode="&#x2086;" 
d="M201 29l-6 -34q-12 -62 -46 -95.5t-79 -33.5t-65 33.5t-8 95.5l6 34q7 34 23 67l133 241h20l-109 -197q20 18 57 18q45 0 65.5 -33.5t8.5 -95.5zM175 -5l6 34q11 55 -4.5 83t-52.5 28t-63.5 -28t-37.5 -83l-6 -34q-11 -55 4.5 -83t52.5 -28t63.5 28t37.5 83z" />
    <glyph glyph-name="seveninferior" unicode="&#x2087;" 
d="M61 319l3 18h196l-3 -15l-206 -448h-20l206 445h-176z" />
    <glyph glyph-name="eightinferior" unicode="&#x2088;" 
d="M70 -134q-48 0 -67 32.5t-8 90.5l5 25q18 94 84 114q-47 20 -32 95l3 18q10 49 39 76.5t70 27.5t59 -27.5t8 -76.5l-3 -18q-15 -76 -70 -95q58 -19 40 -114l-5 -25q-11 -57 -42.5 -90t-80.5 -33zM120 119q-80 0 -100 -105l-5 -25q-20 -105 59 -105t99 105l5 25
q20 105 -58 105zM123 137q32 0 54.5 22t30.5 64l3 18q9 42 -5 64t-46 22q-67 0 -85 -86l-3 -18q-16 -86 51 -86z" />
    <glyph glyph-name="nineinferior" unicode="&#x2089;" 
d="M33 182l6 34q12 62 46 95.5t79 33.5t65 -33.5t8 -95.5l-6 -34q-7 -34 -23 -67l-133 -241h-20l109 197q-20 -18 -57 -18q-45 0 -65.5 33.5t-8.5 95.5zM59 216l-6 -34q-11 -55 4.5 -83t52.5 -28t63.5 28t37.5 83l6 34q11 55 -4.5 83t-52.5 28t-63.5 -28t-37.5 -83z" />
    <glyph glyph-name="uni208A" unicode="&#x208a;" 
d="M109 -2v100h-94v18h94v98h20v-98h94v-18h-94v-100h-20z" />
    <glyph glyph-name="uni208B" unicode="&#x208b;" 
d="M223 98h-208v18h208v-18z" />
    <glyph glyph-name="uni208C" unicode="&#x208c;" 
d="M223 48h-208v18h208v-18zM223 148h-208v18h208v-18z" />
    <glyph glyph-name="uni208D" unicode="&#x208d;" 
d="M75 -19l48 249q13 69 38 107.5t73 64.5l4 -21q-38 -20 -60.5 -54t-34.5 -100l-48 -243q-12 -69 -3.5 -102t38.5 -52l-12 -21q-37 26 -46.5 64t3.5 108z" />
    <glyph glyph-name="uni208E" unicode="&#x208e;" 
d="M159 230l-48 -249q-13 -69 -38 -107.5t-73 -64.5l-4 21q38 20 60.5 54t34.5 100l48 243q12 69 3.5 102t-38.5 52l12 21q37 -26 46.5 -64t-3.5 -108z" />
    <glyph glyph-name="uni2090" unicode="&#x2090;" 
d="M59 -116q53 0 93 57l22 111h-55q-46 0 -72 -19.5t-35 -64.5l-1 -6q-7 -37 5.5 -57.5t42.5 -20.5zM34 130l1 4q10 50 38 75.5t69 25.5t59 -26.5t8 -76.5l-50 -258h-20l8 40q-37 -48 -92 -48q-39 0 -56 25t-8 70l2 9q19 100 129 100h55l11 58q18 89 -49 89q-68 0 -86 -89z
" />
    <glyph glyph-name="uni2091" unicode="&#x2091;" 
d="M165 -29l20 -1q-12 -50 -42 -77t-73 -27q-94 0 -71 117l26 135q23 117 117 117t71 -117l-14 -74h-168l-12 -60q-19 -100 55 -100q68 0 91 87zM45 117l-10 -55h148l10 55q20 100 -54 100t-94 -100z" />
    <glyph glyph-name="uni2092" unicode="&#x2092;" 
d="M139 217q-74 0 -94 -100l-26 -133q-19 -100 55 -100t93 100l26 133q20 100 -54 100zM142 235q94 0 71 -117l-26 -135q-23 -117 -117 -117t-71 117l26 135q23 117 117 117z" />
    <glyph glyph-name="uni2093" unicode="&#x2093;" 
d="M64 226l45 -154l106 154h21l-117 -169l56 -182h-21l-50 167l-115 -167h-20l127 182l-53 169h21z" />
    <glyph glyph-name="uni2094" unicode="&#x2094;" 
d="M48 130l-20 1q25 104 114 104q94 0 71 -117l-26 -135q-23 -117 -117 -117t-71 117l15 74h168l11 60q20 100 -54 100q-68 0 -91 -87zM74 -116q74 0 93 100l11 55h-148l-11 -55q-19 -100 55 -100z" />
    <glyph glyph-name="uni20A0" unicode="&#x20a0;" horiz-adv-x="440" 
d="M137 573l-45 -230q-12 -61 7.5 -91t61.5 -30q55 0 97 48l43 220h177l-4 -18h-157l-41 -210h129l-3 -18h-129l-44 -226h157l-3 -18h-177l47 244q-35 -40 -96 -40q-55 0 -76 37t-9 101l45 232q12 64 47.5 101t89.5 37q53 0 74.5 -36t9.5 -97l-20 -1q10 58 -9 87t-59 29
q-41 0 -71 -30t-42 -91z" />
    <glyph glyph-name="colonmonetary" unicode="&#x20a1;" horiz-adv-x="386" 
d="M98 -95l17 89q-96 32 -64 193l63 325q31 160 140 193l17 89h20l-17 -85q15 3 30 3q14 0 21 -1l16 83h20l-17 -87q104 -28 72 -195l-2 -9l-20 -1l1 6q30 152 -55 180l-132 -678q96 28 126 181l1 6l20 -1l-2 -9q-33 -167 -148 -195l-17 -87h-20l16 83q-7 -1 -21 -1
q-16 0 -28 3l-17 -85h-20zM72 191q-29 -146 47 -178l131 672q-89 -32 -117 -177zM166 5q14 0 22 1l133 686q-14 2 -21 2q-16 0 -29 -3l-133 -684q8 -2 28 -2z" />
    <glyph glyph-name="uni20A2" unicode="&#x20a2;" horiz-adv-x="386" 
d="M237 304l-58 -298q121 10 155 186l1 6l20 -1l-2 -9q-20 -100 -69.5 -150t-120.5 -50t-101.5 50t-10.5 150l63 324q20 100 69.5 150t120.5 50t101.5 -50t10.5 -150l-2 -9l-20 -1l1 6q19 95 -7.5 140.5t-87.5 45.5q-130 0 -167 -186l-61 -316q-35 -181 87 -186l76 391h20
l-11 -56q38 63 97 63q15 0 22 -3l-3 -18q-9 3 -22 3q-58 0 -101 -82z" />
    <glyph glyph-name="franc" unicode="&#x20a3;" horiz-adv-x="335" 
d="M296 381h-164l-14 -71h164l-4 -18h-164l-56 -292h-20l56 292h-51l4 18h51l14 71h-51l3 18h51l59 301h245l-4 -18h-225l-55 -283h164z" />
    <glyph glyph-name="lira" unicode="&#x20a4;" horiz-adv-x="386" 
d="M272 262h-146l-18 -94q-20 -105 -61 -150h276l-3 -18h-302l2 13q49 51 65 138l21 111h-46l4 18h46l14 71h-46l3 18h46l35 180q16 80 56 121.5t101 41.5q60 0 84.5 -41.5t8.5 -121.5l-9 -45l-20 -1l9 45q28 146 -77 146t-133 -146l-35 -179h146l-3 -18h-146l-14 -71h146z
" />
    <glyph glyph-name="uni20A6" unicode="&#x20a6;" horiz-adv-x="434" 
d="M43 315h51l14 71h-51l3 18h51l58 296h20l63 -296h147l58 296h20l-58 -296h51l-3 -18h-51l-14 -71h51l-4 -18h-51l-57 -297h-20l-65 297h-146l-57 -297h-20l57 297h-51zM275 297l55 -250l48 250h-103zM179 653l-48 -249h102zM257 386l15 -71h110l14 71h-139zM128 386
l-14 -71h138l-15 71h-109z" />
    <glyph glyph-name="peseta" unicode="&#x20a7;" horiz-adv-x="687" 
d="M404 18h112q88 0 107 99l4 20q11 55 -0.5 80t-53.5 38l-16 5q-49 15 -61.5 43t-0.5 93l2 6q10 51 40 80.5t74 29.5t63 -29.5t9 -80.5l-3 -15l-20 -1l3 16q8 43 -6 67.5t-49 24.5t-59 -24.5t-32 -67.5l-2 -8q-11 -57 0 -80.5t56 -37.5l16 -5q45 -14 58.5 -44t1.5 -92
l-4 -18q-23 -117 -131 -117h-109q-42 0 -56 24t-3 79l73 379h-51q-43 -174 -205 -174h-49l-59 -308h-20l136 700h69q172 0 133 -196v-4h50l27 142h20l-27 -142h82l-4 -18h-82l-73 -379q-9 -47 0.5 -66t39.5 -19zM116 326h46q155 0 189 178q18 91 -11.5 134.5t-108.5 43.5
h-46z" />
    <glyph glyph-name="uni20A8" unicode="&#x20a8;" horiz-adv-x="612" 
d="M192 318h-78l-61 -318h-20l136 700h98q84 0 118.5 -48t15.5 -143q-27 -145 -137 -181l50 -328h-21l-49 323q-27 -5 -52 -5zM185 682l-67 -346h75q155 0 188 173q34 173 -121 173h-75zM384 125l-4 -20q-9 -46 8.5 -72.5t55.5 -26.5t65.5 26.5t36.5 72.5l3 16
q12 58 2.5 84.5t-51.5 40.5l-29 10q-45 16 -56.5 46.5t1.5 93.5l2 6q9 52 42.5 81t76.5 29t65 -29t12 -81l-3 -15l-20 -1l3 16q8 44 -8.5 68t-51.5 24t-61.5 -24t-34.5 -68l-2 -8q-12 -58 -2.5 -83t51.5 -39l29 -10q46 -16 57 -48t-2 -95l-3 -14q-10 -52 -43.5 -84.5
t-83.5 -32.5q-48 0 -68.5 32.5t-10.5 84.5l4 19z" />
    <glyph glyph-name="uni20A9" unicode="&#x20a9;" horiz-adv-x="614" 
d="M403 700h20l1 -296h142l117 296h21l-118 -296h70l-3 -18h-73l-29 -71h88l-4 -18h-91l-117 -297h-20l-2 297h-143l-115 -297h-20l-3 297h-91l4 18h87v71h-73l3 18h69l-1 296h21l1 -296h142zM404 658l-100 -254h101zM424 297l1 -251l99 251h-100zM144 297l1 -251l99 251
h-100zM298 386l-28 -71h135v71h-107zM424 386v-71h107l28 71h-135zM144 386v-71h107l28 71h-135z" />
    <glyph glyph-name="afii57636" unicode="&#x20aa;" horiz-adv-x="542" 
d="M33 0l136 700h117q104 0 128.5 -46.5t-1.5 -157.5l-46 -234h-20l46 233q25 103 4 145t-120 42h-92l-132 -682h-20zM585 700l-136 -700h-117q-104 0 -129 46.5t1 157.5l46 234h20l-46 -233q-25 -103 -4 -145t120 -42h92l133 682h20z" />
    <glyph glyph-name="dong" unicode="&#x20ab;" horiz-adv-x="332" 
d="M245 596l4 18h98l17 86h20l-17 -86h42l-4 -18h-42l-115 -596h-20l10 53q-43 -65 -114 -65q-56 0 -78.5 41.5t-8.5 109.5l40 210q13 68 52 109.5t95 41.5q71 0 88 -65l31 161h-98zM246 97l58 294q-4 46 -26.5 68.5t-57.5 22.5q-48 0 -79.5 -37.5t-43.5 -98.5l-40 -204
q-12 -61 5.5 -98.5t65.5 -37.5q77 0 118 91zM40 -107h184l-4 -18h-184z" />
    <glyph glyph-name="Euro" unicode="&#x20ac;" horiz-adv-x="394" 
d="M273 385h-156l-13 -71h146l-6 -18h-144l-20 -104q-19 -95 7.5 -140.5t87.5 -45.5q130 0 167 186l1 6l20 -1l-2 -9q-20 -100 -69.5 -150t-120.5 -50t-101.5 50t-10.5 150l21 108h-35l4 18h35l13 71h-35l4 18h35l21 109q20 100 69.5 150t120.5 50t101.5 -50t10.5 -150
l-2 -9l-20 -1l1 6q19 95 -7.5 140.5t-87.5 45.5q-130 0 -167 -186l-20 -105h158z" />
    <glyph glyph-name="afii61248" unicode="&#x2105;" horiz-adv-x="643" 
d="M481 700l-240 -700h-19l240 700h19zM70 394v175q0 64 28 101.5t80 37.5q49 0 77 -35t31 -100l-18 -1q-8 118 -90 118q-42 0 -65 -31.5t-23 -92.5v-169q0 -61 23 -92.5t65 -31.5q82 0 90 118l18 -1q-3 -65 -31 -100t-77 -35q-52 0 -80 37.5t-28 101.5zM525 -8
q52 0 80 37.5t28 101.5v175q0 64 -28 101.5t-80 37.5t-80 -37.5t-28 -101.5v-175q0 -64 28 -101.5t80 -37.5zM525 427q42 0 65 -31.5t23 -92.5v-169q0 -61 -23 -92.5t-65 -31.5t-65 31.5t-23 92.5v169q0 61 23 92.5t65 31.5z" />
    <glyph glyph-name="uni2109" unicode="&#x2109;" horiz-adv-x="547" 
d="M260 610q0 -41 -26.5 -69.5t-69.5 -28.5t-69.5 28.5t-26.5 69.5t26.5 69.5t69.5 28.5t69.5 -28.5t26.5 -69.5zM240 610q0 35 -21.5 57.5t-54.5 22.5t-54.5 -22.5t-21.5 -57.5t21.5 -57.5t54.5 -22.5t54.5 22.5t21.5 57.5zM305 0v700h250v-18h-230v-319h206v-18h-206v-345
h-20z" />
    <glyph glyph-name="afii61289" unicode="&#x2113;" horiz-adv-x="287" 
d="M269 599v-56q0 -275 -156 -383v-36q0 -118 69 -118q64 0 80 108l19 -3q-9 -62 -32.5 -92.5t-66.5 -30.5q-47 0 -68 33t-21 103v23q-21 -11 -39 -19l-6 19q29 13 45 23v429q0 52 23 82.5t65 30.5t65 -30.5t23 -82.5zM249 543v55q0 42 -17 69t-51 27t-51 -27t-17 -69v-415
q136 102 136 360z" />
    <glyph glyph-name="afii61352" unicode="&#x2116;" horiz-adv-x="555" 
d="M295 0l-182 629v-629h-20v700h18l182 -619v619h20v-700h-18zM364 0v18h180v-18h-180zM454 499q91 0 91 -137v-149q0 -137 -91 -137t-91 137v149q0 137 91 137zM454 94q71 0 71 119v149q0 119 -71 119t-71 -119v-149q0 -119 71 -119z" />
    <glyph glyph-name="uni2117" unicode="&#x2117;" horiz-adv-x="494" 
d="M463 268v164q0 262 -186 262t-186 -262v-164q0 -262 186 -262t186 262zM484 433v-166q0 -279 -207 -279t-207 279v166q0 279 207 279t207 -279zM261 329h-40v-188h-20v418h60q58 0 87.5 -26.5t29.5 -88.5t-29.5 -88.5t-87.5 -26.5zM221 347h39q51 0 74.5 21t23.5 76
t-23.5 76t-74.5 21h-39v-194z" />
    <glyph glyph-name="uni2120" unicode="&#x2120;" horiz-adv-x="399" 
d="M171 445v16q0 30 -10.5 43t-42.5 23l-13 4q-34 11 -47 31t-13 52v12q0 36 18.5 58t50.5 22t50.5 -22t18.5 -58v-12l-20 -1v12q0 30 -13 46.5t-36 16.5t-36 -16.5t-13 -46.5v-10q0 -27 10.5 -42.5t38.5 -24.5l13 -4q64 -19 64 -76v-24q0 -36 -20 -59.5t-52 -23.5
q-33 0 -52.5 23.5t-19.5 59.5v14l20 1v-14q0 -31 14 -48.5t38 -17.5t38 17.5t14 48.5zM319 460h-14l-63 181v-275h-20v334h17l73 -205l73 205h17v-334h-20v275z" />
    <glyph glyph-name="uni2121" unicode="&#x2121;" horiz-adv-x="618" 
d="M44 700h246v-18h-113v-682h-20v682h-113v18zM626 18v-18h-4q-48 0 -65 25t-17 87v600h20v-596q0 -58 12 -78t50 -20h4zM461 110l20 -2q-16 -120 -112 -120q-55 0 -84.5 39.5t-29.5 111.5v222q0 72 29.5 111.5t84.5 39.5t84.5 -39.5t29.5 -111.5v-116h-208v-103
q0 -66 24.5 -101t69.5 -35q76 0 92 104zM463 263v95q0 66 -24.5 101t-69.5 35t-69.5 -35t-24.5 -101v-95h188z" />
    <glyph glyph-name="trademark" unicode="&#x2122;" horiz-adv-x="384" 
d="M35 682v18h152v-18h-66v-316h-20v316h-66zM304 460h-14l-63 181v-275h-20v334h17l73 -205l73 205h17v-334h-20v275z" />
    <glyph glyph-name="Omega" unicode="&#x2126;" horiz-adv-x="392" 
d="M226 712q71 0 111 -50t40 -150v-298q0 -62 -11.5 -103.5t-28 -60.5t-42.5 -32h77v-18h-122v14q58 23 82.5 67t24.5 141v286q0 95 -35 140.5t-96 45.5t-96 -45.5t-35 -140.5v-286q0 -97 24.5 -141t82.5 -67v-14h-122v18h77q-26 13 -42.5 32t-28 60.5t-11.5 103.5v298
q0 100 40 150t111 50z" />
    <glyph glyph-name="estimated" unicode="&#x212e;" horiz-adv-x="518" 
d="M413 357v291q-48 46 -124 46t-124 -46v-291h248zM165 339v-286q50 -47 129 -47q120 0 180 105l20 -4q-65 -119 -200 -119q-104 0 -168 74.5t-64 208.5v158q0 133 63.5 208t163.5 75t163.5 -75t63.5 -208v-90h-351z" />
    <glyph glyph-name="onethird" unicode="&#x2153;" horiz-adv-x="617" 
d="M544 700l-376 -700h-19l376 700h19zM458 -8q-95 0 -68 140l3 13l20 1l-2 -12q-14 -68 -0.5 -96t50.5 -28t61.5 28t38.5 96l5 26q19 96 -46 96q-22 0 -45 -15l-12 10l143 194h-146l3 18h169l-2 -15l-135 -183q14 8 32 8q39 0 54.5 -28.5t4.5 -81.5l-6 -31
q-27 -140 -122 -140zM236 237h-166l3 18h73l83 425l-80 -34l4 19l80 35h20l-87 -445h73z" />
    <glyph glyph-name="twothirds" unicode="&#x2154;" horiz-adv-x="617" 
d="M458 -8q-95 0 -68 140l3 13l20 1l-2 -12q-14 -68 -0.5 -96t50.5 -28t61.5 28t38.5 96l5 26q19 96 -46 96q-22 0 -45 -15l-12 10l143 194h-146l3 18h169l-2 -15l-135 -183q14 8 32 8q39 0 54.5 -28.5t4.5 -81.5l-6 -31q-27 -140 -122 -140zM544 700l-376 -700h-19l376 700
h19zM282 572l5 25q10 50 -8 71.5t-50 21.5q-76 0 -94 -93l-8 -40l-20 1l8 40q10 56 43.5 83t73.5 27t62.5 -27t12.5 -83l-5 -26q-13 -62 -54 -112l-169 -205h167l-3 -18h-192l2 14l178 217q39 48 51 104z" />
    <glyph glyph-name="onefifth" unicode="&#x2155;" horiz-adv-x="617" 
d="M544 700l-376 -700h-19l376 700h19zM489 445l-34 -177q24 38 73 38q91 0 63 -143l-5 -28q-15 -75 -44.5 -109t-79.5 -34t-66.5 34t-1.5 109l2 10l20 1l-2 -11q-14 -70 0 -97.5t51 -27.5t62 27.5t39 97.5l5 28q25 125 -49 125q-49 0 -75 -58h-20l45 233h160l-3 -18h-140z
M236 237h-166l3 18h73l83 425l-80 -34l4 19l80 35h20l-87 -445h73z" />
    <glyph glyph-name="twofifths" unicode="&#x2156;" horiz-adv-x="617" 
d="M544 700l-376 -700h-19l376 700h19zM489 445l-34 -177q24 38 73 38q91 0 63 -143l-5 -28q-15 -75 -44.5 -109t-79.5 -34t-66.5 34t-1.5 109l2 10l20 1l-2 -11q-14 -70 0 -97.5t51 -27.5t62 27.5t39 97.5l5 28q25 125 -49 125q-49 0 -75 -58h-20l45 233h160l-3 -18h-140z
M282 572l5 25q10 50 -8 71.5t-50 21.5q-76 0 -94 -93l-8 -40l-20 1l8 40q10 56 43.5 83t73.5 27t62.5 -27t12.5 -83l-5 -26q-13 -62 -54 -112l-169 -205h167l-3 -18h-192l2 14l178 217q39 48 51 104z" />
    <glyph glyph-name="threefifths" unicode="&#x2157;" horiz-adv-x="617" 
d="M544 700l-376 -700h-19l376 700h19zM489 445l-34 -177q24 38 73 38q91 0 63 -143l-5 -28q-15 -75 -44.5 -109t-79.5 -34t-66.5 34t-1.5 109l2 10l20 1l-2 -11q-14 -70 0 -97.5t51 -27.5t62 27.5t39 97.5l5 28q25 125 -49 125q-49 0 -75 -58h-20l45 233h160l-3 -18h-140z
M141 229q-95 0 -68 140l3 13l20 1l-2 -12q-14 -68 0 -96t51 -28t61 28t38 96l5 26q19 96 -46 96q-22 0 -45 -15l-12 10l143 194h-146l4 18h169l-3 -15l-135 -183q14 8 32 8q39 0 54.5 -28.5t4.5 -81.5l-6 -31q-27 -140 -122 -140z" />
    <glyph glyph-name="fourfifths" unicode="&#x2158;" horiz-adv-x="617" 
d="M489 445l-34 -177q24 38 73 38q91 0 63 -143l-5 -28q-15 -75 -44.5 -109t-79.5 -34t-66.5 34t-1.5 109l2 10l20 1l-2 -11q-14 -70 0 -97.5t51 -27.5t62 27.5t39 97.5l5 28q25 125 -49 125q-49 0 -75 -58h-20l45 233h160l-3 -18h-140zM544 700l-376 -700h-19l376 700h19z
M273 350l3 18h-37l65 332h-29l-216 -336l-2 -14h159l-22 -113h20l22 113h37zM219 368h-137l197 307z" />
    <glyph glyph-name="onesixth" unicode="&#x2159;" horiz-adv-x="617" 
d="M544 700l-376 -700h-19l376 700h19zM582 121l7 34q12 62 -8.5 95.5t-65.5 33.5q-38 0 -58 -18l109 197h-20l-132 -241q-15 -28 -23 -67l-7 -34q-12 -62 8.5 -95.5t65.5 -33.5t78.5 33.5t45.5 95.5zM569 155l-7 -34q-11 -55 -37.5 -83t-63.5 -28t-52.5 28t-4.5 83l7 34
q10 55 36.5 83t63.5 28t52.5 -28t5.5 -83zM236 237h-166l3 18h73l83 425l-80 -34l4 19l80 35h20l-87 -445h73z" />
    <glyph glyph-name="fivesixths" unicode="&#x215a;" horiz-adv-x="617" 
d="M582 121l7 34q12 62 -8.5 95.5t-65.5 33.5q-38 0 -58 -18l109 197h-20l-132 -241q-15 -28 -23 -67l-7 -34q-12 -62 8.5 -95.5t65.5 -33.5t78.5 33.5t45.5 95.5zM569 155l-7 -34q-11 -55 -37.5 -83t-63.5 -28t-52.5 28t-4.5 83l7 34q10 55 36.5 83t63.5 28t52.5 -28
t5.5 -83zM544 700l-376 -700h-19l376 700h19zM172 682l-34 -177q24 38 73 38q91 0 63 -143l-5 -28q-15 -75 -44.5 -109t-79.5 -34t-66.5 34t-1.5 109l2 10l20 1l-2 -11q-14 -70 0.5 -97.5t51.5 -27.5t61.5 27t38.5 98l5 28q25 125 -48 125q-50 0 -76 -58h-20l46 233h160
l-4 -18h-140z" />
    <glyph glyph-name="oneeighth" unicode="&#x215b;" horiz-adv-x="617" 
d="M544 700l-376 -700h-19l376 700h19zM458 -8q48 0 79.5 32.5t43.5 90.5l5 25q18 94 -40 114q55 20 69 95l4 18q10 49 -8.5 76.5t-59.5 27.5t-69.5 -27.5t-38.5 -76.5l-4 -18q-14 -76 33 -95q-66 -20 -84 -114l-5 -25q-11 -57 7.5 -90t67.5 -33zM507 245q79 0 59 -105
l-5 -25q-20 -105 -100 -105q-78 0 -58 105l5 25q20 105 99 105zM511 263q-32 0 -46 22t-6 64l4 18q8 42 30.5 64t54.5 22q67 0 51 -86l-4 -18q-8 -42 -30 -64t-54 -22zM236 237h-166l3 18h73l83 425l-80 -34l4 19l80 35h20l-87 -445h73z" />
    <glyph glyph-name="threeeighths" unicode="&#x215c;" horiz-adv-x="617" 
d="M544 700l-376 -700h-19l376 700h19zM458 -8q48 0 79.5 32.5t43.5 90.5l5 25q18 94 -40 114q55 20 69 95l4 18q10 49 -8.5 76.5t-59.5 27.5t-69.5 -27.5t-38.5 -76.5l-4 -18q-14 -76 33 -95q-66 -20 -84 -114l-5 -25q-11 -57 7.5 -90t67.5 -33zM507 245q79 0 59 -105
l-5 -25q-20 -105 -100 -105q-78 0 -58 105l5 25q20 105 99 105zM511 263q-32 0 -46 22t-6 64l4 18q8 42 30.5 64t54.5 22q67 0 51 -86l-4 -18q-8 -42 -30 -64t-54 -22zM141 229q-95 0 -68 140l3 13l20 1l-2 -12q-14 -68 0 -96t51 -28t61 28t38 96l5 26q19 96 -46 96
q-22 0 -45 -15l-12 10l143 194h-146l4 18h169l-3 -15l-135 -183q14 8 32 8q39 0 54.5 -28.5t4.5 -81.5l-6 -31q-27 -140 -122 -140z" />
    <glyph glyph-name="fiveeighths" unicode="&#x215d;" horiz-adv-x="617" 
d="M544 700l-376 -700h-19l376 700h19zM458 -8q48 0 79.5 32.5t43.5 90.5l5 25q18 94 -40 114q55 20 69 95l4 18q10 49 -8.5 76.5t-59.5 27.5t-69.5 -27.5t-38.5 -76.5l-4 -18q-14 -76 33 -95q-66 -20 -84 -114l-5 -25q-11 -57 7.5 -90t67.5 -33zM507 245q79 0 59 -105
l-5 -25q-20 -105 -100 -105q-78 0 -58 105l5 25q20 105 99 105zM511 263q-32 0 -46 22t-6 64l4 18q8 42 30.5 64t54.5 22q67 0 51 -86l-4 -18q-8 -42 -30 -64t-54 -22zM172 682l-34 -177q24 38 73 38q91 0 63 -143l-5 -28q-15 -75 -44.5 -109t-79.5 -34t-66.5 34t-1.5 109
l2 10l20 1l-2 -11q-14 -70 0.5 -97.5t51.5 -27.5t61.5 27t38.5 98l5 28q25 125 -48 125q-50 0 -76 -58h-20l46 233h160l-4 -18h-140z" />
    <glyph glyph-name="seveneighths" unicode="&#x215e;" horiz-adv-x="617" 
d="M544 700l-376 -700h-19l376 700h19zM458 -8q48 0 79.5 32.5t43.5 90.5l5 25q18 94 -40 114q55 20 69 95l4 18q10 49 -8.5 76.5t-59.5 27.5t-69.5 -27.5t-38.5 -76.5l-4 -18q-14 -76 33 -95q-66 -20 -84 -114l-5 -25q-11 -57 7.5 -90t67.5 -33zM507 245q79 0 59 -105
l-5 -25q-20 -105 -100 -105q-78 0 -58 105l5 25q20 105 99 105zM511 263q-32 0 -46 22t-6 64l4 18q8 42 30.5 64t54.5 22q67 0 51 -86l-4 -18q-8 -42 -30 -64t-54 -22zM131 682l4 18h196l-3 -15l-206 -448h-20l205 445h-176z" />
    <glyph glyph-name="uni215F" unicode="&#x215f;" horiz-adv-x="617" 
d="M544 700l-376 -700h-19l376 700h19zM236 237h-166l3 18h73l83 425l-80 -34l4 19l80 35h20l-87 -445h73z" />
    <glyph glyph-name="arrowleft" unicode="&#x2190;" horiz-adv-x="524" 
d="M170 342h359v-20h-359v-87l-115 97l115 97v-87z" />
    <glyph glyph-name="arrowup" unicode="&#x2191;" horiz-adv-x="524" 
d="M302 635v-673h-20v673h-87l97 115l97 -115h-87z" />
    <glyph glyph-name="arrowright" unicode="&#x2192;" horiz-adv-x="524" 
d="M414 322h-359v20h359v87l115 -97l-115 -97v87z" />
    <glyph glyph-name="arrowdown" unicode="&#x2193;" horiz-adv-x="524" 
d="M282 77v673h20v-673h87l-97 -115l-97 115h87z" />
    <glyph glyph-name="arrowboth" unicode="&#x2194;" horiz-adv-x="524" 
d="M170 342h244v87l115 -97l-115 -97v87h-244v-87l-115 97l115 97v-87z" />
    <glyph glyph-name="arrowupdn" unicode="&#x2195;" horiz-adv-x="524" 
d="M282 77v558h-87l97 115l97 -115h-87v-558h87l-97 -115l-97 115h87z" />
    <glyph glyph-name="arrowupdnbse" unicode="&#x21a8;" horiz-adv-x="524" 
d="M192 -70h200v-18h-200v18zM282 77v558h-87l97 115l97 -115h-87v-558h87l-97 -115l-97 115h87z" />
    <glyph glyph-name="partialdiff" unicode="&#x2202;" horiz-adv-x="376" 
d="M84 538v12q0 82 37.5 122t99.5 40t99.5 -40t37.5 -122v-349q0 -110 -35.5 -161.5t-108.5 -51.5t-108.5 51.5t-35.5 161.5v25q0 110 35.5 161.5t108.5 51.5q38 0 71 -16.5t53 -42.5v168q0 73 -31 109.5t-86 36.5t-86 -36.5t-31 -109.5v-11zM214 421q-62 0 -93 -46
t-31 -152v-19q0 -106 31 -152t93 -46t93 46t31 152v150q-22 31 -55 49t-69 18z" />
    <glyph glyph-name="Delta" unicode="&#x2206;" horiz-adv-x="358" 
d="M378 0h-338l159 700h20zM209 660l-145 -642h290z" />
    <glyph glyph-name="product" unicode="&#x220f;" horiz-adv-x="410" 
d="M357 -111v833h-244v-833h-20v851h284v-851h-20z" />
    <glyph glyph-name="summation" unicode="&#x2211;" horiz-adv-x="373" 
d="M75 -98l143 418l-143 403v17h292v-18h-270l140 -397v-10l-139 -408h269v-18h-292v13z" />
    <glyph glyph-name="minus" unicode="&#x2212;" horiz-adv-x="384" 
d="M71 317v18h302v-18h-302z" />
    <glyph glyph-name="uni2215" unicode="&#x2215;" horiz-adv-x="109" 
d="M214 700l-240 -700h-19l240 700h19z" />
    <glyph glyph-name="uni2219" unicode="&#x2219;" horiz-adv-x="174" 
d="M127 359v-65h-20v65h20z" />
    <glyph glyph-name="radical" unicode="&#x221a;" horiz-adv-x="308" 
d="M209 0h-18l-100 357h-57v18h72l92 -328l115 723h21z" />
    <glyph glyph-name="infinity" unicode="&#x221e;" horiz-adv-x="576" 
d="M308 326q-23 35 -54 53.5t-61 18.5q-37 0 -58.5 -19.5t-21.5 -52.5t21.5 -52.5t58.5 -19.5q30 0 61 18.5t54 53.5zM543 326q0 -42 -27.5 -66t-69.5 -24q-75 0 -128 74q-53 -74 -128 -74q-42 0 -69.5 24t-27.5 66t27.5 66t69.5 24q75 0 128 -74q53 74 128 74
q42 0 69.5 -24t27.5 -66zM328 326q23 -35 54 -53.5t61 -18.5q37 0 58.5 19.5t21.5 52.5t-21.5 52.5t-58.5 19.5q-30 0 -61 -18.5t-54 -53.5z" />
    <glyph glyph-name="orthogonal" unicode="&#x221f;" horiz-adv-x="373" 
d="M383 18v-18h-290v575h20v-557h270z" />
    <glyph glyph-name="intersection" unicode="&#x2229;" horiz-adv-x="428" 
d="M244 617q73 0 112 -51.5t39 -139.5v-426h-20v423q0 81 -34 128.5t-97 47.5t-97 -47.5t-34 -128.5v-423h-20v426q0 88 39 139.5t112 51.5z" />
    <glyph glyph-name="integral" unicode="&#x222b;" horiz-adv-x="208" 
d="M144 609v-718q0 -55 -18.5 -79t-60.5 -24h-17v18h19q30 0 43.5 19t13.5 66v718q0 55 18.5 79t60.5 24h17v-18h-19q-30 0 -43.5 -19t-13.5 -66z" />
    <glyph glyph-name="approxequal" unicode="&#x2248;" horiz-adv-x="384" 
d="M305 359q26 0 42.5 21t18.5 58l20 -1q-1 -45 -23.5 -70.5t-57.5 -25.5q-25 0 -48.5 13.5t-39.5 29.5t-37 29.5t-41 13.5q-26 0 -42.5 -21t-18.5 -58l-20 1q1 45 23.5 70.5t57.5 25.5q25 0 48.5 -13.5t39.5 -29.5t37 -29.5t41 -13.5zM305 225q26 0 42.5 21t18.5 58l20 -1
q-1 -45 -23.5 -70.5t-57.5 -25.5q-25 0 -48.5 13.5t-39.5 29.5t-37 29.5t-41 13.5q-26 0 -42.5 -21t-18.5 -58l-20 1q1 45 23.5 70.5t57.5 25.5q25 0 48.5 -13.5t39.5 -29.5t37 -29.5t41 -13.5z" />
    <glyph glyph-name="notequal" unicode="&#x2260;" horiz-adv-x="384" 
d="M71 394v18h181l75 163h20l-76 -163h102v-18h-110l-63 -136h173v-18h-181l-75 -163h-20l75 163h-101v18h110l62 136h-172z" />
    <glyph glyph-name="equivalence" unicode="&#x2261;" horiz-adv-x="384" 
d="M71 465v18h302v-18h-302zM71 169v18h302v-18h-302zM71 317v18h302v-18h-302z" />
    <glyph glyph-name="lessequal" unicode="&#x2264;" horiz-adv-x="384" 
d="M71 0v18h302v-18h-302zM363 123l-282 156v16l282 156v-21l-257 -143l257 -143v-21z" />
    <glyph glyph-name="greaterequal" unicode="&#x2265;" horiz-adv-x="384" 
d="M373 18v-18h-302v18h302zM363 279l-282 -156v21l257 143l-257 143v21l282 -156v-16z" />
    <glyph glyph-name="house" unicode="&#x2302;" horiz-adv-x="402" 
d="M231 573l-123 -248v-307h246v307zM88 328l143 288l143 -288v-328h-286v328z" />
    <glyph glyph-name="revlogicalnot" unicode="&#x2310;" horiz-adv-x="384" 
d="M378 335v-18h-282v-132h-20v150h302z" />
    <glyph glyph-name="uni2318" unicode="&#x2318;" horiz-adv-x="518" 
d="M215 433v124q0 43 -14 62.5t-46 19.5t-46 -19.5t-14 -62.5v-42q0 -43 15.5 -62.5t54.5 -19.5h50zM235 415v-179h108v179h-108zM363 557v-124h50q39 0 54.5 19.5t15.5 62.5v42q0 43 -14 62.5t-46 19.5t-46 -19.5t-14 -62.5zM215 94v124h-50q-39 0 -54.5 -19.5t-15.5 -62.5
v-42q0 -43 14 -62.5t46 -19.5t46 19.5t14 62.5zM363 415v-179h50q45 0 67.5 -23t22.5 -75v-46q0 -98 -80 -98t-80 98v126h-108v-126q0 -98 -80 -98t-80 98v46q0 52 22.5 75t67.5 23h50v179h-50q-45 0 -67.5 23t-22.5 75v46q0 98 80 98t80 -98v-126h108v126q0 98 80 98
t80 -98v-46q0 -52 -22.5 -75t-67.5 -23h-50zM363 218v-124q0 -43 14 -62.5t46 -19.5t46 19.5t14 62.5v42q0 43 -15.5 62.5t-54.5 19.5h-50z" />
    <glyph glyph-name="lozenge" unicode="&#x25ca;" horiz-adv-x="382" 
d="M81 302l140 -401l140 401l-140 401zM382 302l-161 -459l-161 459l161 459z" />
    <glyph glyph-name="H18533" unicode="&#x25cf;" horiz-adv-x="834" 
d="M749 290q0 -125 -88.5 -214t-213.5 -89t-213.5 89t-88.5 214t88.5 214t213.5 89t213.5 -89t88.5 -214z" />
    <glyph glyph-name="fi" horiz-adv-x="338" 
d="M225 0l93 482h-153l-93 -482h-20l93 482h-57l4 18h57l21 109q10 55 33.5 79t65.5 24h17l-4 -18h-19q-30 0 -46.5 -18.5t-26.5 -66.5l-21 -109h173l-97 -500h-20zM348 635l15 77h20l-15 -77h-20z" />
    <glyph glyph-name="fl" horiz-adv-x="363" 
d="M240 103l111 574q-34 17 -81 17q-32 0 -51 -17.5t-29 -67.5l-21 -109h76l-4 -18h-76l-93 -482h-20l93 482h-57l4 18h57l21 109q11 57 35.5 80t68.5 23q49 0 81 -17l3 17h20l-118 -609q-9 -47 0.5 -66t39.5 -19h14l-3 -18h-12q-42 0 -56 24t-3 79z" />
    <glyph glyph-name="commaaccent" horiz-adv-x="230" 
d="M104 -49l-69 -161h-20l69 161h20z" />
    <glyph glyph-name="zero.tnum" horiz-adv-x="348" 
d="M141 -12q-63 0 -86.5 48t-5.5 139l68 350q36 187 165 187q63 0 86.5 -48t6.5 -139l-68 -350q-18 -91 -60.5 -139t-105.5 -48zM145 6q110 0 142 174l67 340q34 174 -76 174q-108 0 -142 -174l-67 -340q-32 -174 76 -174z" />
    <glyph glyph-name="one.tnum" horiz-adv-x="272" 
d="M232 0h-217l3 18h99l129 663l-108 -47l3 19l110 47h19l-133 -682h98z" />
    <glyph glyph-name="two.tnum" horiz-adv-x="340" 
d="M278 712q125 0 91 -176l-6 -27q-9 -49 -26 -85.5t-54 -86.5l-242 -319h227l-3 -18h-250l3 17l247 327q63 83 78 165l6 27q31 158 -75 158q-104 0 -135 -158l-5 -25l-20 1l5 24q34 176 159 176z" />
    <glyph glyph-name="three.tnum" horiz-adv-x="327" 
d="M270 164l16 79q31 158 -74 158q-28 0 -52 -17l-11 12l203 286h-199l4 18h220l-4 -17l-194 -274q17 10 39 10q122 0 88 -176l-16 -79q-34 -176 -160 -176t-92 176l5 24l20 1l-5 -25q-31 -158 76 -158q105 0 136 158z" />
    <glyph glyph-name="four.tnum" horiz-adv-x="331" 
d="M312 193l-3 -18h-55l-34 -175h-20l34 175h-204l3 17l303 508h20l-99 -507h55zM54 193h183l89 457z" />
    <glyph glyph-name="five.tnum" horiz-adv-x="339" 
d="M188 682l-57 -293q41 49 99 49q121 0 88 -173l-20 -101q-34 -176 -160 -176t-92 176l5 24l20 1l-5 -25q-31 -158 76 -158q105 0 136 158l20 101q30 155 -72 155q-58 0 -101 -63h-20l67 343h211l-4 -18h-191z" />
    <glyph glyph-name="six.tnum" horiz-adv-x="318" 
d="M127 -12q-63 0 -86.5 48t-5.5 139l7 38q11 58 35 105l210 382h20l-180 -328q31 28 80 28q63 0 86.5 -48t6.5 -139l-7 -38q-18 -91 -60.5 -139t-105.5 -48zM131 6q110 0 142 174l6 28q34 174 -75 174t-143 -174l-6 -28q-32 -174 76 -174z" />
    <glyph glyph-name="seven.tnum" horiz-adv-x="308" 
d="M130 682l4 18h248l-4 -17l-309 -683h-21l309 682h-227z" />
    <glyph glyph-name="eight.tnum" horiz-adv-x="330" 
d="M273 712q56 0 78 -41t7 -117l-4 -21q-24 -121 -101 -149q83 -28 55 -178l-6 -31q-37 -187 -170 -187t-96 187l6 31q28 150 123 178q-66 29 -43 149l4 21q15 76 53 117t94 41zM136 6q114 0 146 174l5 21q34 174 -80 174q-112 0 -146 -174l-5 -21q-32 -174 80 -174z
M211 393q96 0 124 145l2 11q28 145 -68 145t-124 -145l-2 -11q-28 -145 68 -145z" />
    <glyph glyph-name="nine.tnum" horiz-adv-x="318" 
d="M266 712q63 0 86.5 -48t6.5 -139l-8 -38q-11 -58 -35 -105l-209 -382h-20l179 328q-31 -28 -80 -28q-63 0 -86.5 48t-6.5 139l8 38q36 187 165 187zM262 694q-108 0 -142 -174l-6 -28q-34 -174 75 -174t143 174l6 28q34 174 -76 174z" />
    <glyph glyph-name="parenleft.case" horiz-adv-x="249" 
d="M205 566l-84 -431q-19 -91 -10 -142t55 -76l-10 -20q-54 30 -65.5 88.5t9.5 145.5l85 439q19 97 50 150.5t98 83.5l2 -20q-56 -26 -84 -74.5t-46 -143.5z" />
    <glyph glyph-name="parenright.case" horiz-adv-x="249" 
d="M120 135l84 431q19 91 9.5 142t-55.5 76l10 20q55 -30 66 -88.5t-10 -145.5l-85 -439q-19 -97 -50 -150.5t-98 -83.5l-2 20q56 26 84 74.5t47 143.5z" />
    <glyph glyph-name="hyphen.case" horiz-adv-x="243" 
d="M77 341l3 18h161l-3 -18h-161z" />
    <glyph glyph-name="at.case" horiz-adv-x="498" 
d="M399 559q65 0 84 -50l10 47q22 116 -8 171t-114 55q-85 0 -136.5 -55t-73.5 -171l-81 -413q-22 -116 8 -171t114 -55q55 0 97 27l5 -17q-42 -28 -105 -28q-185 0 -139 243l81 415q46 243 233 243q186 0 139 -241l-61 -314q-29 -149 -140 -149q-112 0 -83 149l32 165
q16 82 54.5 115.5t83.5 33.5zM316 114q91 0 116 132l45 231q-20 64 -81 64q-37 0 -69 -29t-46 -103l-32 -163q-25 -132 67 -132z" />
    <glyph glyph-name="bracketleft.case" horiz-adv-x="220" 
d="M24 -88l171 876h112l-4 -18h-92l-163 -840h92l-4 -18h-112z" />
    <glyph glyph-name="bracketright.case" horiz-adv-x="220" 
d="M271 788l-171 -876h-112l4 18h92l163 840h-92l4 18h112z" />
    <glyph glyph-name="braceleft.case" horiz-adv-x="219" 
d="M72 341l3 18q54 0 66 64l52 270q9 47 38 71t66 24h9l-4 -18h-9q-27 0 -49.5 -19.5t-30.5 -60.5l-52 -264q-11 -62 -54 -76q37 -13 25 -76l-52 -264q-8 -41 7 -60.5t43 -19.5h9l-4 -18h-9q-37 0 -56 24t-10 71l52 270q7 31 -4 47.5t-36 16.5z" />
    <glyph glyph-name="braceright.case" horiz-adv-x="219" 
d="M222 359l-3 -18q-52 0 -66 -64l-52 -270q-9 -47 -38 -71t-66 -24h-9l4 18h9q27 0 49.5 19.5t30.5 60.5l52 264q12 63 55 76q-38 13 -26 76l52 264q8 41 -7 60.5t-43 19.5h-9l4 18h9q37 0 56 -24t10 -71l-52 -270q-12 -64 40 -64z" />
    <glyph glyph-name="exclamdown.case" horiz-adv-x="162" 
d="M41 0l103 531h20l-103 -531h-20zM197 700l-13 -65h-20l13 65h20z" />
    <glyph glyph-name="guillemotleft.case" horiz-adv-x="357" 
d="M248 462l-160 -112l117 -112l-4 -20l-129 125l3 14l177 125zM380 462l-160 -112l117 -112l-4 -20l-129 125l3 14l177 125z" />
    <glyph glyph-name="periodcentered.case" horiz-adv-x="174" 
d="M141 383l-13 -65h-20l13 65h20z" />
    <glyph glyph-name="guillemotright.case" horiz-adv-x="357" 
d="M345 350l-118 112l4 20l129 -125l-3 -14l-177 -125l4 20zM213 350l-118 112l4 20l129 -125l-3 -14l-177 -125l4 20z" />
    <glyph glyph-name="questiondown.case" horiz-adv-x="329" 
d="M256 635l13 65h20l-13 -65h-20zM140 -12q-118 0 -88 160l8 39q8 43 29.5 77t68.5 81q33 33 45.5 59t23.5 83l6 32h20l-6 -32q-13 -64 -25.5 -89.5t-51.5 -64.5q-42 -42 -62.5 -74.5t-27.5 -71.5l-8 -39q-14 -72 5.5 -107t66.5 -35q98 0 126 142l8 40l20 -1l-8 -39
q-15 -79 -53 -119.5t-97 -40.5z" />
    <glyph glyph-name="endash.case" horiz-adv-x="350" 
d="M386 341h-350l3 18h350z" />
    <glyph glyph-name="emdash.case" horiz-adv-x="700" 
d="M736 341h-700l3 18h700z" />
    <glyph glyph-name="bullet.case" horiz-adv-x="272" 
d="M267 350q0 -42 -29.5 -71.5t-71.5 -29.5t-71.5 29.5t-29.5 71.5t29.5 71.5t71.5 29.5t71.5 -29.5t29.5 -71.5z" />
    <glyph glyph-name="guilsinglleft.case" horiz-adv-x="225" 
d="M248 462l-160 -112l117 -112l-4 -20l-129 125l3 14l177 125z" />
    <glyph glyph-name="guilsinglright.case" horiz-adv-x="225" 
d="M213 350l-118 112l4 20l129 -125l-3 -14l-177 -125l4 20z" />
    <glyph glyph-name="zero.numerator" 
d="M132 588l-47 -239q-9 -50 7.5 -76t52.5 -26t62.5 26t35.5 76l47 239q9 50 -7 76t-52 26t-63 -26t-36 -76zM65 348l47 241q11 55 43.5 87t78.5 32t66.5 -32t9.5 -87l-47 -241q-11 -55 -43.5 -87t-78.5 -32t-66.5 32t-9.5 87z" />
    <glyph glyph-name="one.numerator" 
d="M236 237h-166l3 18h73l83 425l-80 -34l4 19l80 35h20l-87 -445h73z" />
    <glyph glyph-name="two.numerator" 
d="M282 572l5 25q10 50 -8 71.5t-50 21.5q-76 0 -94 -93l-8 -40l-20 1l8 40q10 56 43.5 83t73.5 27t62.5 -27t12.5 -83l-5 -26q-13 -62 -54 -112l-169 -205h167l-3 -18h-192l2 14l178 217q39 48 51 104z" />
    <glyph glyph-name="three.numerator" 
d="M141 229q-95 0 -68 140l3 13l20 1l-2 -12q-14 -68 0 -96t51 -28t61 28t38 96l5 26q19 96 -46 96q-22 0 -45 -15l-12 10l143 194h-146l4 18h169l-3 -15l-135 -183q14 8 32 8q39 0 54.5 -28.5t4.5 -81.5l-6 -31q-27 -140 -122 -140z" />
    <glyph glyph-name="four.numerator" 
d="M276 368l-3 -18h-37l-22 -113h-20l22 113h-159l2 14l216 336h29l-65 -332h37zM82 368h137l60 307z" />
    <glyph glyph-name="five.numerator" 
d="M172 682l-34 -177q24 38 73 38q91 0 63 -143l-5 -28q-15 -75 -44.5 -109t-79.5 -34t-66.5 34t-1.5 109l2 10l20 1l-2 -11q-14 -70 0.5 -97.5t51.5 -27.5t61.5 27t38.5 98l5 28q25 125 -48 125q-50 0 -76 -58h-20l46 233h160l-4 -18h-140z" />
    <glyph glyph-name="six.numerator" 
d="M272 392l-7 -34q-12 -62 -45.5 -95.5t-78.5 -33.5t-65.5 33.5t-8.5 95.5l7 34q8 39 23 67l133 241h20l-110 -197q20 18 58 18q45 0 65.5 -33.5t8.5 -95.5zM245 358l7 34q10 55 -5.5 83t-52.5 28t-63.5 -28t-36.5 -83l-7 -34q-11 -55 5 -83t53 -28q36 0 62.5 28t37.5 83z
" />
    <glyph glyph-name="seven.numerator" 
d="M131 682l4 18h196l-3 -15l-206 -448h-20l205 445h-176z" />
    <glyph glyph-name="eight.numerator" 
d="M141 229q-49 0 -67.5 33t-7.5 90l5 25q18 94 84 114q-47 19 -33 95l4 18q10 49 38.5 76.5t69.5 27.5t59.5 -27.5t8.5 -76.5l-4 -18q-14 -75 -69 -95q58 -20 40 -114l-5 -25q-12 -58 -43.5 -90.5t-79.5 -32.5zM190 482q-79 0 -99 -105l-5 -25q-20 -105 59 -105t99 105
l5 25q20 105 -59 105zM194 500q32 0 54 22t30 64l4 18q16 86 -51 86q-32 0 -54.5 -22t-30.5 -64l-4 -18q-8 -42 6 -64t46 -22z" />
    <glyph glyph-name="nine.numerator" 
d="M103 545l7 34q12 62 45.5 95.5t78.5 33.5t65.5 -33.5t8.5 -95.5l-7 -34q-8 -39 -23 -67l-132 -241h-20l109 197q-20 -18 -58 -18q-45 0 -65.5 33.5t-8.5 95.5zM130 579l-7 -34q-10 -55 5.5 -83t52.5 -28t63.5 28t36.5 83l7 34q11 55 -4.5 83t-52.5 28t-63.5 -28
t-37.5 -83z" />
    <glyph glyph-name="zero.denominator" 
d="M86 351l-47 -239q-9 -50 7 -76t52 -26t63 26t36 76l47 239q9 50 -7 76t-52 26t-63 -26t-36 -76zM19 111l47 241q11 55 43.5 87t78.5 32t66.5 -32t9.5 -87l-47 -241q-11 -55 -43.5 -87t-78.5 -32t-66.5 32t-9.5 87z" />
    <glyph glyph-name="one.denominator" 
d="M190 0h-166l3 18h73l83 425l-80 -34l4 19l79 35h20l-86 -445h73z" />
    <glyph glyph-name="two.denominator" 
d="M236 335l4 25q10 50 -7.5 71.5t-49.5 21.5q-76 0 -95 -93l-7 -40l-20 1l8 40q10 56 43.5 83t73.5 27t62.5 -27t12.5 -83l-5 -26q-13 -60 -54 -112l-169 -205h167l-3 -18h-192l2 14l178 217q39 48 51 104z" />
    <glyph glyph-name="three.denominator" 
d="M95 -8q-95 0 -68 140l3 13l20 1l-2 -12q-14 -68 -0.5 -96t50.5 -28t61.5 28t38.5 96l5 26q19 96 -46 96q-22 0 -45 -15l-12 10l143 194h-146l3 18h169l-2 -15l-135 -183q14 8 32 8q39 0 54.5 -28.5t4.5 -81.5l-6 -31q-27 -140 -122 -140z" />
    <glyph glyph-name="four.denominator" 
d="M230 131l-4 -18h-37l-21 -113h-20l21 113h-159l3 14l215 336h29l-64 -332h37zM36 131h137l60 307z" />
    <glyph glyph-name="five.denominator" 
d="M126 445l-34 -177q24 38 73 38q91 0 63 -143l-5 -28q-15 -75 -44.5 -109t-79.5 -34t-66.5 34t-1.5 109l2 10l20 1l-2 -11q-14 -70 0 -97.5t51 -27.5t62 27.5t39 97.5l5 28q25 125 -49 125q-49 0 -75 -58h-20l45 233h160l-3 -18h-140z" />
    <glyph glyph-name="six.denominator" 
d="M226 155l-7 -34q-12 -62 -45.5 -95.5t-78.5 -33.5t-65.5 33.5t-8.5 95.5l7 34q8 39 23 67l132 241h20l-109 -197q20 18 58 18q45 0 65.5 -33.5t8.5 -95.5zM199 121l7 34q10 55 -5.5 83t-52.5 28t-63.5 -28t-36.5 -83l-7 -34q-11 -55 4.5 -83t52.5 -28t63.5 28t37.5 83z
" />
    <glyph glyph-name="seven.denominator" 
d="M85 445l3 18h196l-2 -15l-206 -448h-20l205 445h-176z" />
    <glyph glyph-name="eight.denominator" 
d="M95 -8q-49 0 -67.5 33t-7.5 90l5 25q18 94 84 114q-47 19 -33 95l4 18q10 49 38.5 76.5t69.5 27.5t59.5 -27.5t8.5 -76.5l-4 -18q-14 -75 -69 -95q58 -20 40 -114l-5 -25q-12 -58 -43.5 -90.5t-79.5 -32.5zM144 245q-79 0 -99 -105l-5 -25q-20 -105 58 -105q80 0 100 105
l5 25q20 105 -59 105zM148 263q32 0 54 22t30 64l4 18q16 86 -51 86q-32 0 -54.5 -22t-30.5 -64l-4 -18q-8 -42 6 -64t46 -22z" />
    <glyph glyph-name="nine.denominator" 
d="M57 308l7 34q12 62 45.5 95.5t78.5 33.5t65.5 -33.5t8.5 -95.5l-7 -34q-8 -39 -23 -67l-132 -241h-20l109 197q-20 -18 -58 -18q-45 0 -65.5 33.5t-8.5 95.5zM84 342l-7 -34q-10 -55 5.5 -83t52.5 -28t63.5 28t36.5 83l7 34q11 55 -4.5 83t-52.5 28t-63.5 -28t-37.5 -83z
" />
    </font>
</defs>
</svg>
